<svg xmlns="http://www.w3.org/2000/svg" width="56" height="55" fill="none" viewBox="0 0 56 55">
  <path fill="#000B1D" d="M45.5769.5H9.80769C4.39105.5 0 4.89105 0 10.3077v34.3846C0 50.1089 4.39105 54.5 9.80769 54.5H45.5769c5.4167 0 9.8077-4.3911 9.8077-9.8077V10.3077C55.3846 4.89105 50.9936.5 45.5769.5Z"/>
  <path fill="#fff" d="M30.5294 23.1126c-1.2931 4.3338-2.3812 8.5114-3.6743 12.6005-.734 2.3067-1.5378 4.5086-2.5512 5.9065-1.1185 1.5727-3.2156 3.0756-5.7317 3.0756-1.7826 0-3.5301-.8389-3.5301-2.6912 0-1.1533 1.1882-2.2367 2.1319-2.2367.1992-.0079.3965.0404.5695.1392.1731.0989.3148.2445.4091.42.8738 1.5727 1.7126 2.4813 2.0971 2.4813.3844 0 .6989-.5241 1.3279-2.7958l4.5873-16.8965-3.3004-.0037c-.2447-.734.1035-1.6129.5228-1.7877h3.2853c.629-2.0271 1.3708-4.0992 2.4193-5.9515 1.5727-2.8309 4.089-5.0677 7.5489-5.0677 2.6212 0 3.7046 1.2582 3.7046 2.866-.0348 1.7124-1.5376 2.5861-2.2367 2.5861-.5591 0-.8387-.4193-1.0135-1.0134-.5941-2.2368-1.363-2.9009-1.8174-2.9009-.4542 0-1.1534.8387-1.9221 2.5862-1.0136 2.2019-1.6954 4.6002-2.3244 6.9067l3.9969-.0052c.2445.4893.0459 1.5021-.5483 1.7818l-3.9505.0004Z"/>
</svg>
