<svg xmlns="http://www.w3.org/2000/svg" width="56" height="55" fill="none" viewBox="0 0 56 55">
  <defs>
    <clipPath id="a">
      <path fill="#fff" d="M0 .5h56v54H0z"/>
    </clipPath>
  </defs>
  <g clip-path="url(#a)">
    <path fill="#000B1D" d="M46.0862.5H9.91383C4.43857.5 0 4.93857 0 10.4138v34.1724C0 50.0614 4.43857 54.5 9.91383 54.5H46.0862C51.5614 54.5 56 50.0614 56 44.5862V10.4138C56 4.93857 51.5614.5 46.0862.5Z"/>
    <path fill="#fff" fill-rule="evenodd" d="M41.3933 38.1925a2.92781 2.92781 0 0 0-1.9114.719l-3.6251-3.6252a13.51086 13.51086 0 0 0 2.9792-8.3945c-.0093-2.8885-.974-5.6928-2.7437-7.9756l3.4355-3.4821c.558.4523 1.2627.6838 1.9802.6507a2.92995 2.92995 0 0 0 1.9117-.8308c.5138-.5019.8253-1.175.8754-1.8916a2.9296 2.9296 0 0 0-2.3817-3.0833 2.92952 2.92952 0 0 0-2.0514.3692 2.92937 2.92937 0 0 0-1.2867 1.6398 2.92928 2.92928 0 0 0 .1294 2.0803l-3.476 3.5257a13.10757 13.10757 0 0 0-4.3488-3.0821 13.1067 13.1067 0 0 0-5.2164-1.0957c-3.4923.0183-6.837 1.4112-9.31 3.8772-2.473 2.466-3.8754 5.8067-3.9035 9.299.0184 3.5188 1.4098 6.8913 3.8778 9.3994 2.4681 2.5081 5.8178 3.9537 9.3358 4.0288a12.96606 12.96606 0 0 0 5.0684-1.0649 12.96421 12.96421 0 0 0 4.2472-2.9637l3.6936 3.6982a2.95364 2.95364 0 0 0-.1529 1.8497c.1492.617.4931 1.1695.9808 1.5757a2.95334 2.95334 0 0 0 1.7271.6795c.6338.0351 1.262-.135 1.7916-.4849.5295-.35.9322-.8612 1.1485-1.458a2.95441 2.95441 0 0 0 .052-1.8553 2.95433 2.95433 0 0 0-1.0651-1.52 2.95388 2.95388 0 0 0-1.7615-.5845Zm-5.2031-11.2829a10.80446 10.80446 0 0 1-2.2207 6.4879l-4.746-4.746c.2398-.4397.3748-.9288.3947-1.4293a3.25508 3.25508 0 0 0-.2804-1.4559l4.8626-4.9318a10.38918 10.38918 0 0 1 1.9898 6.0751ZM25.732 37.636c-2.8-.0739-5.4612-1.235-7.4199-3.2372-1.9586-2.0022-3.0609-4.6883-3.0733-7.4892.0248-2.7737 1.1389-5.4265 3.1018-7.3863 1.963-1.9598 4.6177-3.0695 7.3914-3.0898a10.39604 10.39604 0 0 1 7.6173 3.3633l-4.7966 4.865a3.57503 3.57503 0 0 0-2.4593-.9747 3.42 3.42 0 0 0-2.4183 1.0017c-.6413.6414-1.0017 1.5113-1.0017 2.4183 0 .907.3604 1.7769 1.0017 2.4183a3.42 3.42 0 0 0 2.4183 1.0017 3.56246 3.56246 0 0 0 2.2852-.8348l4.7282 4.7281a10.25046 10.25046 0 0 1-3.3585 2.3628 10.2525 10.2525 0 0 1-4.0163.8552v-.0024Z" clip-rule="evenodd"/>
  </g>
</svg>
