<svg xmlns="http://www.w3.org/2000/svg" width="56" height="54" fill="none" viewBox="0 0 56 54">
  <path fill="#EB1000" d="M46.0862 0H9.91383C4.43857 0 0 4.43857 0 9.91383V44.0862C0 49.5614 4.43857 54 9.91383 54H46.0862C51.5614 54 56 49.5614 56 44.0862V9.91383C56 4.43857 51.5614 0 46.0862 0Z"/>
  <path fill="#fff" d="M30.6539 36.1984c0 .231-.1873.4182-.4183.4182s-.4183-.1872-.4183-.4182.1873-.4183.4183-.4183.4183.1873.4183.4183Zm-.8366 1.0028c-.1234 0-.2316.0478-.3249.1143.0184-.0537.0341-.1091.0341-.1692 0-.2922-.2371-.5297-.5297-.5297-.2925 0-.5297.2375-.5297.5297 0 .2929.2372.5297.5297.5297.1094 0 .2054-.0408.29-.098-.0222.0607-.0391.1249-.0391.1931 0 .3144.2552.57.5696.57.3147 0 .57-.2556.57-.57 0-.3144-.2553-.5699-.57-.5699Zm-.99 1.2647c-.0207-.3419-.2978-.6149-.6449-.6149-.0609 0-.1158.0193-.1715.0345.1004-.1097.1654-.2526.1654-.4131 0-.3401-.2759-.616-.616-.616s-.6161.2759-.6161.616.276.6161.6161.6161c.0531 0 .1006-.0175.1499-.0304-.1103.1167-.1806.2725-.1806.4457 0 .297.2025.5373.474.6166-.0003.0088-.0049.0158-.0049.0245 0 .3886.3153.7042.7044.7042.3888 0 .7041-.3156.7041-.7042 0-.3447-.2526-.6183-.5799-.679Zm-1.6287.6347c.0306-.0799.0516-.1645.0516-.2555 0-.3734-.2873-.6703-.651-.7065.0895-.1143.1517-.252.1517-.4089 0-.322-.2302-.5781-.5318-.6452.138-.1149.231-.2812.231-.4749 0-.2403-.14-.4427-.3389-.5472.3074-.0134.5539-.2631.5539-.5734 0-.3191-.2587-.5775-.5778-.5775s-.5778.2584-.5778.5775c0 .2164.1242.3984.3007.4976-.3389.0076-.6125.2818-.6125.623 0 .2923.2044.5262.4748.5957-.1592.123-.2686.3074-.2686.5244 0 .3401.2561.6096.5836.6557-.1061.1254-.1776.2823-.1776.4597 0 .3453.2482.6201.5723.6901-.0534.1079-.0901.2252-.0901.3541 0 .4463.3619.808.8082.808.4463 0 .8083-.3617.8083-.808 0-.4113-.3122-.7379-.71-.7887Zm-8.27-4.9632c0 .2864-.1645.5273-.3982.6586.0426-.0076.0814-.0257.126-.0257.4238 0 .7674.3436.7674.7671 0 .1225-.0347.234-.0854.3366.1339-.1155.3027-.1925.4935-.1925.4159 0 .7514.3337.761.7473.0826-.3168.3521-.5519.6904-.567-.0706-.1062-.1219-.227-.1219-.3646 0-.3722.3016-.6738.6738-.6738.3719 0 .6735.3016.6735.6738 0 .3465-.2652.6218-.6018.6592.1007.1289.1704.2841.1704.4602 0 .199-.0805.3769-.2054.5122.1383.1336.22.3162.2421.5175.0225-.1937.1068-.3658.2439-.4906-.1549-.1325-.2582-.3221-.2582-.5414 0-.3763.2914-.6755.6592-.7088-.0936-.1126-.1572-.2526-.1572-.4107 0-.2374.133-.4357.322-.5501-.2788-.0449-.4955-.2759-.4955-.5682 0-.3237.2625-.5862.5865-.5862.3241 0 .5866.2625.5866.5862 0 .2054-.1114.3769-.2707.4819.3217.0397.5746.3033.5746.6364 0 .3273-.245.5863-.5588.633.119.1283.1954.2975.1954.4865 0 .1919-.0779.364-.2004.4935.1966.1435.3325.3641.3325.626 0 .1429-.0484.2701-.1149.3856.2596.147.4425.4148.4425.7339 0 .0915-.0254.1755-.0522.2584.0887.042.1695.0962.2403.1622-.0808-.1237-.1397-.2631-.1397-.4224 0-.168.0645-.3156.1546-.4439-.268-.1085-.4579-.3687-.4579-.6762 0-.2175.0997-.4077.2508-.5413-.2039-.1161-.3477-.3267-.3477-.5781 0-.3524.2734-.6324.6178-.6627-.1286-.1126-.2141-.273-.2141-.4574 0-.252.1523-.4673.3693-.5623-.0321.0058-.0612.0192-.0948.0192-.3176 0-.5749-.2578-.5749-.5752 0-.3173.2573-.5752.5749-.5752s.5749.2579.5749.5752c0 .2351-.1423.437-.3448.5256.0371-.007.0712-.0221.1103-.0221.3395 0 .6149.2753.6149.6148 0 .315-.2407.5659-.5464.6009.1546.1236.2602.3057.2602.5192 0 .1843-.0747.3511-.1948.4725.2386.1207.4066.3617.4066.6469 0 .1435-.0519.2695-.1234.3827.3118.105.5396.3909.5396.7374 0 .0968-.023.1873-.0551.273.3733.1091.6516.4399.6516.8482 0 .4959-.4019.8978-.8978.8978-.4282 0-.7694-.3063-.8593-.7076-.0898.4369-.4585.7718-.9223.7718-.3771 0-.6959-.2229-.8532-.5391-.161.3547-.5139.6038-.9287.6038-.3794 0-.6974-.2164-.8741-.5233-.1791.3238-.5114.5519-.9075.5519-.3835 0-.7049-.2158-.8884-.5233-.1838.3098-.5072.5274-.8934.5274-.4513 0-.8296-.2864-.9801-.6849-.1913.1902-.4544.308-.7455.308-.5843 0-1.0582-.4737-1.0582-1.0582 0-.0455.0204-.0846.0259-.1283-.1082.0379-.2205.0688-.3418.0688-.5799 0-1.0501-.4702-1.0501-1.05 0-.2275.0878-.4265.2106-.5986-.5192-.0478-.9305-.4707-.9305-1.0028 0-.4048.2407-.7484.5831-.9135-.3022-.1698-.5151-.4813-.5151-.8523 0-.5349.4259-.9649.9564-.9847-.1703-.1733-.2768-.4107-.2768-.6732 0-.532.4311-.9631.9631-.9631.0161 0 .0295.0081.0455.0093-.1855-.1733-.3051-.4154-.3051-.6895 0-.5245.425-.9492.9495-.9492.0388 0 .0714.0175.1088.0222-.2112-.1715-.3547-.4229-.3547-.7164 0-.5168.4188-.9357.9354-.9357.0613 0 .1146.0233.1724.035-.2383-.1668-.4043-.4293-.4043-.7426 0-.5093.4127-.9217.9217-.9217.084 0 .1596.0268.2372.0478-.2672-.1581-.4553-.4363-.4553-.7694 0-.5017.4066-.9083.908-.9083.1064 0 .205.0268.2998.0607-.2961-.1459-.5043-.444-.5043-.7958 0-.4941.4005-.8942.8943-.8942.2634 0 .4944.1184.658.2998.1024-.0449.2144-.0723.3337-.0723.2666 0 .4929.1336.6449.329.1044-.0537.2182-.0916.3439-.0916.2724 0 .5002.1505.6353.3652.1026-.0595.2152-.1027.3427-.1027.3238 0 .5836.2252.6618.5244.0697-.0262.1435-.0449.2226-.0449.3494 0 .6326.283.6326.6324 0 .1855-.0828.3483-.21.4643a.5554.5554 0 0 1 .2162-.0437c.3086 0 .5585.2503.5585.5589 0 .1516-.0615.2887-.1598.3891.0881-.0794.2018-.1307.3296-.1307.275 0 .4982.2228.4982.4982 0 .2747-.2232.4976-.4982.4976-.2748 0-.4979-.2229-.4979-.4976 0-.1354.0548-.2573.1423-.3471-.0991.0904-.2281.1487-.3727.1487-.3084 0-.5583-.2502-.5583-.5582 0-.1546.0633-.2946.1648-.3961-.0753.032-.1581.0495-.2453.0495-.2742 0-.502-.1767-.5898-.4211-.0901.0425-.1881.0705-.2946.0705-.2266 0-.4183-.1149-.5457-.2823-.1243.0881-.2681.1511-.4323.1511-.2197 0-.4142-.0957-.5536-.2444-.1284.0816-.2719.1411-.4352.1411-.2176 0-.4122-.0881-.56-.2252-.1301.0735-.2719.1266-.4317.1266-.1045 0-.2013-.0268-.2943-.0595.0854.042.1659.0922.2336.1575.1196-.0647.2497-.1114.3952-.1114.2477 0 .4653.1114.6193.2824.119-.0753.252-.1301.4031-.1301.2534 0 .4675.1301.6084.3179.1155-.0834.2503-.1429.404-.1429.3016 0 .5542.1913.6548.4579.0799-.0361.1671-.0589.2608-.0589.3523 0 .6376.2859.6376.6376 0 .1301-.0484.2445-.1152.3454.0499-.0146.0994-.0315.1543-.0315.3127 0 .5661.2537.5661.5664 0 .0904-.0259.1733-.0636.2491.0762-.0461.1605-.0799.2558-.0799.2786 0 .5046.2258.5046.5046 0 .2783-.226.504-.5046.504-.2785 0-.5046-.2257-.5046-.504 0-.0735.0172-.1423.0455-.2053-.0881.0571-.1867.098-.2992.098-.313 0-.5665-.2538-.5665-.5665 0-.105.0362-.1977.0864-.2823-.063.0204-.1269.0396-.1966.0396-.2544 0-.4702-.1516-.5726-.3669-.103.0584-.2158.1015-.343.1015-.2057 0-.3865-.0916-.5154-.2322-.1348.1161-.3051.1931-.497.1931-.1984 0-.3754-.0805-.5122-.2036-.1429.112-.3147.1896-.5102.1896-.1134 0-.2208-.0239-.3197-.0647.0937.0408.1771.0991.25.1686.1319-.1015.2894-.1721.4687-.1721.234 0 .4379.1079.5808.2707.1254-.1103.2858-.1832.4661-.1832.2835 0 .5239.1686.6382.4089.0927-.0519.1943-.0898.3083-.0898.355 0 .6429.2876.6429.6423 0 .0816-.0187.1586-.0464.2304.0391-.0088.0758-.0239.1178-.0239.3171 0 .5743.2572.5743.5746 0 .0548-.0169.105-.0312.1551.0738-.042.1546-.0723.2456-.0723.2803 0 .5076.2275.5076.5081 0 .28-.2273.5075-.5076.5075-.2806 0-.5078-.2275-.5078-.5075 0-.0414.0143-.0782.0236-.1167-.0898.0578-.1901.0998-.3045.0998-.317 0-.5743-.2573-.5743-.574 0-.0613.0172-.1179.035-.1733-.0569.0163-.1129.035-.175.035-.2351 0-.432-.133-.544-.3214-.1161.0822-.2497.1406-.4025.1406-.1873 0-.355-.0759-.4822-.1943-.0685.0729-.1502.1313-.2423.1733.0452-.0094.0872-.0275.1353-.0275.2654 0 .4883.1511.6125.3652.1056-.0741.227-.1271.3655-.1271.3579 0 .6478.2905.6478.6481 0 .0461-.0169.0869-.0262.1301.0431-.01.084-.0263.1304-.0263.3188 0 .5775.259.5775.5781 0 .0286-.0123.0531-.0161.0799.0765-.046.1611-.0799.257-.0799.2803 0 .5075.2275.5075.5075 0 .2806-.2272.5076-.5075.5076-.2803 0-.5075-.227-.5075-.5076 0-.014.0067-.025.0079-.039-.0928.0635-.1984.109-.3188.109-.3191 0-.5779-.259-.5779-.5775 0-.0257.0114-.0472.0146-.0717-.0606.0186-.1219.0379-.1887.0379-.2164 0-.3984-.1126-.516-.2754-.126.1074-.2838.1791-.462.1791-.1776 0-.3348-.0711-.4603-.1779-.0309.0408-.0595.0811-.098.1155.234.0099.4306.133.5571.3127.1153-.0974.2588-.1628.4212-.1628.3646 0 .6601.2958.6601.6604 0 .0105-.0055.0192-.0061.0297.0449-.011.0878-.0274.1359-.0274.3203 0 .5801.2602.5801.5805 0 .3202-.2598.5798-.5801.5798-.3083 0-.5548-.2426-.5729-.546-.0688.0239-.14.0438-.217.0438-.1977 0-.3695-.091-.4906-.2287-.1324.133-.3159.2158-.5186.2158-.1686 0-.3165-.0665-.4401-.1622-.0175.0286-.035.056-.0558.0823.1958.0257.3629.1208.481.2672.1219-.1243.2908-.2025.479-.2025.3713 0 .6723.3011.6723.6721 0 .3716-.301.6726-.6723.6726-.1911 0-.3614-.0811-.4839-.2094-.1371.1662-.3366.2788-.5691.2788m.1033 4.5152c.1557.1062.2858.2439.357.4206.023-.0379.0458-.0752.0738-.1091-.1138-.14-.1887-.3103-.196-.5028-.066.0787-.145.1406-.2348.1913Zm1.8031.2153c.0907.0852.1645.1855.2165.3004.021-.0449.0539-.0811.0816-.1213-.1012-.0963-.1694-.2194-.2132-.3553-.021.0636-.0505.1202-.0849.1762Zm1.7084-.3436c-.0125.1155-.0461.2217-.1003.3185.1604.126.2701.2993.3191.504.0253-.0986.0653-.1866.1216-.2677-.1867-.1254-.313-.3209-.3404-.5548Zm-1.8843-.7409c.1231.1033.2121.2363.262.3926.0487-.1481.1333-.2747.2494-.3739-.1082-.1284-.1791-.2876-.1832-.4673-.0499.1908-.1657.3465-.3282.4486Zm-1.5739-.777c-.2826 0-.5192-.1599-.6522-.3874.0035.0321.0187.0595.0187.0928 0 .147-.0461.2782-.1108.3996.0881-.0303.1791-.056.2776-.056.4641 0 .8369.3693.8532.8295.0694-.0822.152-.1481.2471-.1989-.1374-.1383-.2226-.3284-.2226-.539 0-.1214.0341-.2316.0846-.3337-.1345.1161-.3042.1931-.4956.1931Zm-.4932-1.4024c-.1925 0-.3631-.0776-.4979-.1949-.0636.2007-.1975.3617-.3763.4667.2649.0409.4842.1949.6114.4195-.0015-.0199-.0114-.0368-.0114-.0566 0-.2876.1651-.5285.3993-.6598-.0423.007-.0808.0251-.1251.0251Zm1.0571-5.598c-.1765 0-.3311-.0688-.4618-.1674-.0326.0315-.0755.0496-.1129.0759.1978.0128.3784.0898.5102.2216.0636-.0682.1388-.123.2243-.1621-.0534.0111-.103.032-.1598.032Zm-.7325-1.5651c-.067-.0292-.1225-.0759-.179-.1208-.0321.0222-.0622.0467-.0969.0654.0966.0052.1908.0204.2759.0554Zm.6887-3.2569c.1298 0 .2511-.0315.362-.0823.1496.1622.3593.2672.5973.2672.1368 0 .2599-.042.3731-.1009.138.1744.3421.2934.5819.2934.1365 0 .2576-.0461.3678-.1097.1216.1955.3284.3326.5755.3326.0901 0 .1753-.0199.2541-.0514.0653.2771.3027.4871.5994.4871.3246 0 .5827-.2496.6154-.5658.0758.2082.2713.3587.5058.3587.2998 0 .5431-.2426.5431-.5431 0-.2998-.2433-.5425-.5431-.5425-.278 0-.4988.2118-.5309.4813-.0796-.255-.3092-.4434-.5903-.4434-.0648 0-.1237.0187-.1823.0368-.0473-.3349-.3232-.5968-.6712-.5968-.1006 0-.1948.0239-.2812.063-.1251-.2421-.3707-.413-.6621-.413-.1001 0-.1946.0215-.2818.0571-.1461-.2234-.3864-.3797-.6732-.3797-.0945 0-.1814.0245-.266.0536-.1604-.2146-.4045-.3628-.6933-.3628-.4862 0-.8806.3938-.8806.8803 0 .4859.3944.8803.8806.8803Zm.6895-1.6574c.1042 0 .201-.0256.2935-.0589.1473.1949.3701.3296.6335.3296.1097 0 .2141-.0227.3095-.0624.1327.203.3509.3454.6116.3454.1088 0 .2106-.0263.3037-.0683.1117.2246.3377.3827.6055.3827.075 0 .1441-.0204.2115-.0426.0312.315.2879.5635.6107.5635.2754 0 .5012-.1814.5834-.4293.084.1931.2759.329.5002.329.3013 0 .5458-.2444.5458-.546 0-.3016-.2445-.5461-.5458-.5461-.231 0-.4264.1447-.506.3477-.0896-.2333-.3124-.4007-.5776-.4007-.0504 0-.0956.0175-.1426.0285-.0076-.3698-.3074-.6685-.6796-.6685-.0776 0-.1491.0204-.2185.0443-.1064-.2806-.373-.4818-.6907-.4818-.0732 0-.1397.0222-.2068.042-.1324-.2643-.3987-.4504-.7143-.4504-.0691 0-.131.0228-.1951.0397-.1514-.2532-.416-.4305-.7319-.4305-.4783 0-.8666.3879-.8666.8669 0 .4783.3883.8662.8666.8662Zm.6899-1.6567c.0778 0 .1476-.0251.2193-.0443.138.235.3827.4007.6752.4007.082 0 .1564-.0233.2308-.0466.1184.2461.3651.4188.6565.4188.0867 0 .1669-.0216.2442-.049.0916.2637.3354.4556.6306.4556.0633 0 .1202-.0198.1785-.0362-.0006.0088-.005.0158-.005.024 0 .3412.2763.6177.6175.6177.2366 0 .4355-.1376.5391-.3331.0822.1996.2776.3401.5066.3401.3031 0 .5489-.2456.5489-.5489 0-.3028-.2458-.5489-.5489-.5489-.2027 0-.3725.1155-.4676.2788-.0822-.2444-.3059-.4229-.5781-.4229-.0463 0-.0872.0163-.1306.0262.0029-.0245.0145-.0461.0145-.0717 0-.3728-.3021-.675-.6749-.675-.0624 0-.1184.0199-.1756.0356-.0799-.3191-.3553-.5606-.6992-.5606-.0522 0-.0983.0193-.1475.0298-.1118-.304-.3973-.5233-.7397-.5233-.0441 0-.0823.0181-.1243.0251-.1353-.2923-.427-.4977-.7703-.4977-.4708 0-.8526.3816-.8526.8529 0 .4708.3818.8529.8526.8529Zm.6898-1.6573c.0513 0 .096-.0205.145-.0292.1201.2771.3952.4719.7169.4719.0621 0 .1173-.0215.175-.0356.0966.2871.3594.4971.6788.4971.0703 0 .1341-.0216.1986-.0403.0618.3051.3185.539.6414.539.0604 0 .1146-.0192.1703-.0344-.0072.0379-.0227.0729-.0227.1126 0 .3378.2742.6125.6125.6125.2065 0 .3804-.109.4912-.266.0732.2194.2733.3798.5169.3798.3045 0 .5515-.2473.5515-.5519 0-.3045-.247-.5518-.5515-.5518-.1768 0-.327.0887-.4279.2176-.0715-.259-.2984-.4533-.5802-.4533-.044 0-.0828.0163-.1245.0251.0131-.0519.0321-.1021.0321-.1581 0-.3687-.2987-.6674-.6677-.6674-.047 0-.0884.0175-.1327.0269-.0444-.3582-.3375-.6388-.7073-.6388-.0383 0-.0709.0157-.1077.0216-.0837-.3419-.378-.6009-.7461-.6009-.0274 0-.0505.0128-.077.0157-.1132-.3296-.4168-.5699-.7849-.5699-.4632 0-.8389.3751-.8389.8389 0 .4632.3757.8389.8389.8389Zm.6898-1.6574c.0365 0 .0677-.0163.1027-.021.0968.3156.3795.5496.7269.5496.0469 0 .0875-.0187.1324-.0269.0656.3273.341.5787.6872.5787.0545 0 .1027-.0192.1534-.0309.0216.3454.3019.6207.6525.6207.0575 0 .1088-.0187.1619-.0327-.0222.063-.0403.129-.0403.1996 0 .3354.2722.6078.6076.6078.2383 0 .4398-.1406.5393-.3407-.0032.0234-.014.0444-.014.0689 0 .3062.2482.5542.5545.5542s.5545-.248.5545-.5542c0-.3063-.2482-.5548-.5545-.5548-.2164 0-.399.1278-.4903.3086.0047-.0309.0181-.0583.0181-.0898 0-.3355-.2719-.6073-.6076-.6073-.0417 0-.0785.0157-.1181.0239.0303-.0758.0493-.1575.0493-.2439 0-.3646-.2958-.6603-.6604-.6603-.0324 0-.0604.014-.0916.0186 0-.0011.0006-.0017.0006-.0029 0-.3949-.32-.7146-.7149-.7146-.024 0-.0441.0111-.0671.0134-.0482-.3797-.3597-.6778-.7526-.6778-.0145 0-.0265.0075-.0408.0081-.0846-.3657-.3973-.6446-.7887-.6446-.4559 0-.8252.3699-.8252.8255s.3693.8248.8252.8248Zm.7021-1.6515c.0324 0 .0601-.0145.0913-.0186.0557.3669.3582.6527.7406.6527.0487 0 .0913-.0192.1377-.028.0046.3891.3196.7036.7096.7036.0791 0 .1517-.021.2229-.0449-.0082.0414-.0251.0799-.0251.1242 0 .3658.2969.6627.6627.6627.1094 0 .2082-.0332.2992-.0799-.0851.1056-.1435.2345-.1435.3803 0 .3401.2754.6155.6149.6155.3398 0 .6151-.2754.6151-.6155 0-.3395-.2753-.6148-.6151-.6148-.0963 0-.1844.0262-.2654.0659.0939-.1143.1575-.2549.1575-.4142 0-.3658-.2967-.6627-.6627-.6627-.0648 0-.1231.0193-.182.0368.0134-.0543.0332-.1068.0332-.1651 0-.3932-.3188-.7117-.7117-.7117-.0324 0-.0601.014-.0913.0186.0003-.0122.0067-.0215.0067-.0338 0-.4212-.3415-.7624-.7627-.7624-.0126 0-.0228.0064-.0353.007-.0385-.4119-.3745-.7386-.7966-.7386-.448 0-.8115.3635-.8115.8115s.3635.8114.8115.8114Zm1.013-1.4735c.0543 0 .1021-.0205.1534-.031-.0029.0263-.0154.049-.0154.0759 0 .4183.3392.7578.7581.7578.0825 0 .158-.0228.2327-.0467-.0201.0659-.0414.1318-.0414.2042 0 .3961.3208.7169.7167.7169.1607 0 .3018-.063.4214-.1522-.1067.1196-.1764.2736-.1764.4468 0 .3751.3039.6791.679.6791.3751 0 .679-.304.679-.6791 0-.3751-.3039-.679-.679-.679-.1505 0-.2824.0583-.3949.1412.1134-.1266.1875-.29.1875-.4737 0-.3955-.3208-.7164-.7167-.7164-.0703 0-.1338.021-.198.0397.0257-.0759.0481-.154.0481-.2386 0-.4189-.3395-.7584-.7581-.7584-.0425 0-.0796.0175-.1204.0245.0052-.0373.0219-.07.0219-.1085 0-.4404-.3571-.7975-.7975-.7975s-.7977.3571-.7977.7975.3573.7975.7977.7975Zm1.3826-1.1288c.0895 0 .1724-.0234.2526-.0508-.0444.0957-.0729.2007-.0729.3133 0 .4165.3374.7537.7537.7537.4162 0 .7534-.3372.7534-.7537 0-.416-.3372-.7537-.7534-.7537-.0835 0-.1602.0227-.2351.0472.051-.1038.0854-.2164.0854-.3401 0-.4328-.3509-.7834-.7837-.7834-.4329 0-.7838.3506-.7838.7834 0 .4329.3509.7841.7838.7841Zm1.6384-.6977c.4252 0 .77-.3448.77-.7701s-.3448-.77-.77-.77c-.4253 0-.7701.3447-.7701.77s.3448.7701.7701.7701Zm1.7658-.2106c.4177 0 .7563-.3384.7563-.7561s-.3386-.756-.7563-.756c-.4177 0-.756.3383-.756.756s.3383.7561.756.7561Zm1.7495.2946c.4098 0 .7423-.3326.7423-.7427s-.3325-.7426-.7423-.7426c-.4101 0-.7426.3325-.7426.7426s.3325.7427.7426.7427Zm2.2214 1.4525c-.0697-.0215-.1403-.0437-.2176-.0437-.406 0-.7353.3296-.7353.7356 0 .1015.0207.1983.0581.2864-.0523-.0116-.1013-.0315-.157-.0315-.4069 0-.7368.3296-.7368.7368 0 .154.0581.2888.1389.4066-.0473-.0093-.0913-.0286-.1415-.0286-.4019 0-.7277.3261-.7277.7281 0 .182.0735.3436.184.4713-.0624-.0186-.1248-.039-.1934-.039-.385 0-.6971.3121-.6971.6971 0 .385.3121.6971.6971.6971.3851 0 .6969-.3121.6969-.6971 0-.1715-.0689-.3232-.1715-.4445.0682.021.1365.0425.2117.0425.4017 0 .7275-.3261.7275-.7274 0-.1511-.0569-.2835-.1354-.3996.049.0105.0951.0297.1473.0297.4066 0 .7365-.3296.7365-.7362 0-.102-.021-.1995-.0589-.2881.0522.0116.1012.0315.1566.0315.4061 0 .7354-.3291.7354-.7351 0-.0781-.0219-.1493-.0444-.2199.0648.0192.1292.0402.2004.0402.3949 0 .7149-.3196.7149-.7146 0-.3949-.32-.7146-.7149-.7146-.3946 0-.7146.3197-.7146.7146 0 .0718.0213.1371.0408.2024Zm7.2579 16.0886c0 .3138.2544.5682.5679.5682.3136 0 .5679-.2544.5679-.5682 0-.3133-.2543-.5676-.5679-.5676-.3135 0-.5679.2543-.5679.5676Zm.7147 1.6416c0 .3016.2447.5466.5466.5466.3019 0 .5466-.245.5466-.5466 0-.3022-.2447-.5467-.5466-.5467-.3019 0-.5466.2445-.5466.5467Zm.7146 1.641c0 .2905.2351.5256.5253.5256.2899 0 .525-.2351.525-.5256 0-.29-.2351-.5251-.525-.5251-.2902 0-.5253.2351-.5253.5251Zm.6799 1.6555c0 .2783.2257.5041.5037.5041.2783 0 .504-.2258.504-.5041 0-.2782-.2257-.5034-.504-.5034-.278 0-.5037.2252-.5037.5034Zm.5591 1.284c-.2663 0-.4824.2159-.4824.4825 0 .2666.2161.4824.4824.4824s.4825-.2158.4825-.4824-.2162-.4825-.4825-.4825Zm-.7347 1.6288c-.2546 0-.4612.2065-.4612.4608 0 .255.2066.4615.4612.4615s.4609-.2065.4609-.4615c0-.2543-.2063-.4608-.4609-.4608Zm-1.2446 1.2559c-.2427 0-.4396.1972-.4396.4399 0 .2427.1969.4393.4396.4393.243 0 .4396-.1966.4396-.4393 0-.2427-.1966-.4399-.4396-.4399Zm-1.4039.3664c-.2834 0-.5127.23-.5127.5134 0 .2821.2293.5121.5127.5121.2835 0 .5128-.23.5128-.5121 0-.2834-.2293-.5134-.5128-.5134ZM26.8486 13.4245c0 .4136.3354.7484.7491.7484.4136 0 .749-.3348.749-.7484 0-.4142-.3354-.7491-.749-.7491-.4137 0-.7491.3349-.7491.7491Zm1.6903.0776c0 .4112.3334.7443.7444.7443.4112 0 .7443-.3331.7443-.7443 0-.4113-.3331-.7444-.7443-.7444-.411 0-.7444.3331-.7444.7444Zm2.3253-.1523c-.4087 0-.74.3314-.74.7397 0 .1873.0755.3541.1905.4842-.0884-.0373-.1853-.0589-.2873-.0589-.404 0-.7316.3272-.7316.7315 0 .4037.3276.7316.7316.7316.4039 0 .7315-.3279.7315-.7316 0-.1849-.0747-.3494-.1878-.4778.0901.0385.1887.0613.2931.0613.4086 0 .74-.3314.74-.7403 0-.1523-.0572-.2858-.1359-.4031.0945.0449.1977.0747.3094.0747.4026 0 .7287-.3267.7287-.7286 0-.4026-.3261-.7287-.7287-.7287-.4025 0-.7286.3261-.7286.7287 0 .1493.0557.28.1327.3955-.0971-.0467-.2024-.0782-.3176-.0782Zm8.835 18.1974c-.3121 0-.5653.2532-.5653.5653 0 .3121.2532.5653.5653.5653.3124 0 .5656-.2532.5656-.5653 0-.3121-.2532-.5653-.5656-.5653Zm1.1971 2.1246c0-.2987-.2421-.5408-.5411-.5408-.299 0-.5411.2421-.5411.5408 0 .2993.2421.5414.5411.5414.299 0 .5411-.2421.5411-.5414Zm.6317 1.5599c0-.2858-.2315-.5174-.5171-.5174-.2853 0-.5169.2316-.5169.5174 0 .2853.2316.5169.5169.5169.2856 0 .5171-.2316.5171-.5169Zm-.1076 2.1264c.2722 0 .4927-.2205.4927-.4924 0-.2724-.2205-.4929-.4927-.4929-.2721 0-.4926.2205-.4926.4929 0 .2719.2205.4924.4926.4924ZM27.6201 15.0176c0-.3984-.3232-.7216-.7216-.7216-.3987 0-.7216.3232-.7216.7216 0 .3985.3229.7217.7216.7217.3984 0 .7216-.3232.7216-.7217Zm.8625-.8803c-.4013 0-.7266.3256-.7266.7269 0 .4008.3253.7263.7266.7263.4014 0 .7266-.3255.7266-.7263 0-.4013-.3252-.7269-.7266-.7269Zm10.0823 19.4628c0 .3068.2485.5553.555.5553.3066 0 .5551-.2485.5551-.5553 0-.3063-.2485-.5548-.5551-.5548-.3065 0-.555.2485-.555.5548Zm.6437 1.4747c0 .2917.2366.5279.5285.5279.2917 0 .5283-.2362.5283-.5279 0-.2923-.2366-.5285-.5283-.5285-.2919 0-.5285.2362-.5285.5285Zm1.5987 1.4928c0-.2771-.2246-.5017-.5017-.5017s-.5017.2246-.5017.5017.2246.5017.5017.5017.5017-.2246.5017-.5017Zm-.0268 1.1492c-.2622 0-.4749.2124-.4749.4749 0 .2619.2127.4749.4749.4749.2625 0 .4751-.213.4751-.4749 0-.2625-.2126-.4749-.4751-.4749ZM28.6687 36.682c.2818 0 .511-.2287.511-.5111 0-.2823-.2292-.511-.511-.511-.2823 0-.511.2287-.511.511 0 .2824.2287.5111.511.5111Zm-1.2869.1382c.3197 0 .5787-.259.5787-.5787s-.259-.5787-.5787-.5787c-.3194 0-.5787.259-.5787.5787s.2593.5787.5787.5787Zm.4402-19.8045c.3841 0 .6953-.3116.6953-.696 0-.3838-.3112-.6954-.6953-.6954-.3842 0-.6957.3116-.6957.6954 0 .3844.3115.696.6957.696Zm2.1992-.5117c0-.3931-.3188-.7122-.712-.7122-.3931 0-.7119.3191-.7119.7122 0 .3932.3188.7117.7119.7117.3932 0 .712-.3185.712-.7117Zm7.9104 16.5629c-.3141 0-.569.2543-.569.5687 0 .3145.2549.5688.569.5688.3142 0 .5691-.2543.5691-.5688 0-.3144-.2549-.5687-.5691-.5687Zm.0379 1.9554c0 .2981.2416.5396.5397.5396.2981 0 .5396-.2415.5396-.5396s-.2415-.5396-.5396-.5396-.5397.2415-.5397.5396Zm1.6276 1.3878c0-.2818-.2284-.5104-.5101-.5104-.2818 0-.5102.2286-.5102.5104 0 .2818.2284.5104.5102.5104.2817 0 .5101-.2286.5101-.5104Zm.2068 1.8936c.2658 0 .481-.2153.481-.4807 0-.266-.2152-.4813-.481-.4813-.2654 0-.4809.2153-.4809.4813 0 .2654.2155.4807.4809.4807Zm.5633.8788c0-.2497-.2022-.4521-.4516-.4521-.2493 0-.4515.2024-.4515.4521 0 .2491.2022.4515.4515.4515.2494 0 .4516-.2024.4516-.4515Zm-11.9724-4.1048c0-.2987-.2424-.5408-.541-.5408-.2987 0-.5411.2421-.5411.5408 0 .2987.2424.5408.5411.5408.2986 0 .541-.2421.541-.5408Zm-7.9162.7642c.3736 0 .6767-.3028.6767-.6767 0-.3734-.3031-.6767-.6767-.6767s-.6767.3033-.6767.6767c0 .3739.3031.6767.6767.6767Zm-.2001-1.7577c0-.3751-.3042-.6796-.6796-.6796-.3754 0-.6799.3045-.6799.6796 0 .3757.3045.6796.6799.6796.3754 0 .6796-.3039.6796-.6796Zm6.2557-16.1953c0 .3547.2876.6429.6426.6429.3546 0 .6422-.2882.6422-.6429s-.2876-.6423-.6422-.6423c-.355 0-.6426.2876-.6426.6423Zm1.3796-.0723c0 .3698.2999.6697.6697.6697.3699 0 .6697-.2999.6697-.6697 0-.3699-.2998-.6697-.6697-.6697-.3698 0-.6697.2998-.6697.6697Zm8.8636 17.2611c0 .3039.2465.5507.5507.5507.304 0 .5507-.2468.5507-.5507 0-.3045-.2467-.5507-.5507-.5507-.3042 0-.5507.2462-.5507.5507Zm1.6104 1.3061c0-.2864-.2322-.5186-.5186-.5186s-.5186.2322-.5186.5186c0 .2865.2322.5186.5186.5186s.5186-.2321.5186-.5186Zm.3422.7712c-.2684 0-.4866.2176-.4866.4866 0 .2683.2182.4865.4866.4865.2689 0 .4865-.2182.4865-.4865 0-.269-.2176-.4866-.4865-.4866Zm.1509 1.2303c-.2509 0-.4544.2031-.4544.4539 0 .2509.2035.455.4544.455.2508 0 .4542-.2042.4542-.455s-.2034-.4539-.4542-.4539Zm-9.1808-3.0288c0-.2497-.2024-.4521-.4521-.4521-.2503 0-.4527.2024-.4527.4521s.2024.4521.4527.4521c.2497 0 .4521-.2024.4521-.4521Zm-1.5144-1.0699c0 .2672.2164.4831.483.4831.2666 0 .483-.2159.483-.4831 0-.2671-.2164-.483-.483-.483-.2666 0-.483.2159-.483.483Zm-1.2411.6178c.2835 0 .5133-.2304.5133-.5139 0-.2835-.2298-.5134-.5133-.5134-.2838 0-.5137.2299-.5137.5134s.2299.5139.5137.5139Zm-1.3091.0099c.3007 0 .5443-.2438.5443-.5442 0-.3005-.2436-.5443-.5443-.5443-.3004 0-.5443.2438-.5443.5443 0 .3004.2439.5442.5443.5442Zm-3.9041-.1318c.3226 0 .5842-.2619.5842-.5845s-.2616-.5846-.5842-.5846c-.3229 0-.5846.262-.5846.5846s.2617.5845.5846.5845Zm-.2765-1.5325c0-.3214-.2608-.5822-.5822-.5822-.3215 0-.5822.2608-.5822.5822 0 .3214.2607.5822.5822.5822.3214 0 .5822-.2608.5822-.5822Zm2.5842-7.2804c0-.3045-.2464-.5506-.5504-.5506-.3042 0-.5506.2461-.5506.5506 0 .304.2464.5502.5506.5502.304 0 .5504-.2462.5504-.5502Zm3.2502-6.0488c.3247 0 .5881-.2631.5881-.5881 0-.3243-.2634-.588-.5881-.588-.3246 0-.588.2637-.588.588 0 .325.2634.5881.588.5881Zm1.2937-1.2432c-.3457 0-.6257.28-.6257.6254 0 .3459.28.6259.6257.6259.3456 0 .6256-.28.6256-.6259 0-.3454-.28-.6254-.6256-.6254Zm7.7534 16.3522c-.3083 0-.5583.2497-.5583.5583 0 .308.25.5583.5583.5583s.5583-.2503.5583-.5583c0-.3086-.25-.5583-.5583-.5583Zm.4982 2.2921c.2896 0 .5242-.2345.5242-.5239 0-.2899-.2346-.5244-.5242-.5244-.2893 0-.5239.2345-.5239.5244 0 .2894.2346.5239.5239.5239Zm1.293.5985c0-.2707-.2193-.49-.49-.49-.2704 0-.4897.2193-.4897.49s.2193.49.4897.49c.2707 0 .49-.2193.49-.49Zm-.2587.9188c-.2514 0-.4556.2042-.4556.4562s.2042.4562.4556.4562c.252 0 .4562-.2042.4562-.4562s-.2042-.4562-.4562-.4562Zm-9.9437-5.8091c-.2593 0-.4696.2106-.4696.4696 0 .2596.2103.4696.4696.4696.2593 0 .4696-.21.4696-.4696 0-.259-.2103-.4696-.4696-.4696Zm-1.1959.721c.2684 0 .486-.2176.486-.4859 0-.2689-.2176-.4865-.486-.4865-.2686 0-.4862.2176-.4862.4865 0 .2683.2176.4859.4862.4859Zm-1.2248.0024c.2774 0 .5026-.2246.5026-.5023 0-.2777-.2252-.5029-.5026-.5029-.2776 0-.5025.2252-.5025.5029s.2249.5023.5025.5023Zm-1.2215.0087c.28 0 .5072-.2269.5072-.5069s-.2272-.5076-.5072-.5076c-.2803 0-.5075.2276-.5075.5076s.2272.5069.5075.5069Zm-1.2189-.0332c.2803 0 .5075-.227.5075-.5076 0-.28-.2272-.5069-.5075-.5069-.2803 0-.5073.2269-.5073.5069 0 .2806.227.5076.5073.5076Zm-.3921-1.2694c0-.2806-.2272-.5076-.5075-.5076-.2803 0-.5075.227-.5075.5076 0 .28.2272.5075.5075.5075.2803 0 .5075-.2275.5075-.5075Zm1.515-5.1593c.2713 0 .4915-.2199.4915-.4912 0-.2718-.2202-.4918-.4915-.4918-.2715 0-.4915.22-.4915.4918 0 .2713.22.4912.4915.4912Zm.0053-1.6089c0 .2678.217.4848.4847.4848.2678 0 .4851-.217.4851-.4848 0-.2678-.2173-.4848-.4851-.4848-.2677 0-.4847.217-.4847.4848Zm.4912-1.1177c0 .2672.2164.4836.4839.4836.2671 0 .4839-.2164.4839-.4836s-.2168-.4842-.4839-.4842c-.2675 0-.4839.217-.4839.4842Zm.4836-1.1177c0 .2706.2196.49.4903.49.2707 0 .4903-.2194.4903-.49 0-.2713-.2196-.4907-.4903-.4907-.2707 0-.4903.2194-.4903.4907Zm.4839-1.1178c0 .2742.2222.4965.4967.4965.2742 0 .4964-.2223.4964-.4965 0-.2747-.2222-.497-.4964-.497-.2745 0-.4967.2223-.4967.497Zm.5492-1.0844c0 .2776.2252.5028.5032.5028.2776 0 .5028-.2252.5028-.5028 0-.2777-.2252-.5029-.5028-.5029-.278 0-.5032.2252-.5032.5029Zm2.0844-.556c0-.2899-.2348-.5244-.5248-.5244-.2899 0-.5247.2345-.5247.5244 0 .29.2348.5251.5247.5251.29 0 .5248-.2351.5248-.5251Zm1.2026.3115c0-.3161-.2564-.5728-.5729-.5728-.3165 0-.5729.2567-.5729.5728 0 .3168.2564.5729.5729.5729.3165 0 .5729-.2561.5729-.5729Zm6.8679 17.6806c0 .2718.2205.4923.4923.4923.2719 0 .4924-.2205.4924-.4923 0-.2719-.2205-.4924-.4924-.4924-.2718 0-.4923.2205-.4923.4924Zm-6.3038-3.3625c.2237 0 .4051-.1814.4051-.4055 0-.2234-.1814-.4048-.4051-.4048s-.4052.1814-.4052.4048c0 .2241.1815.4055.4052.4055Zm-.4801-1.8254c-.2165 0-.3923.1756-.3923.3921 0 .217.1758.3926.3923.3926.2167 0 .3923-.1756.3923-.3926 0-.2165-.1756-.3921-.3923-.3921Zm-.7537-.8342c-.2095 0-.3792.1698-.3792.3792 0 .2095.1697.3792.3792.3792.2094 0 .3794-.1697.3794-.3792 0-.2094-.17-.3792-.3794-.3792Zm-.9637.1482c.2021 0 .3663-.1639.3663-.3663 0-.2025-.1642-.3664-.3663-.3664-.2025 0-.3664.1639-.3664.3664 0 .2024.1639.3663.3664.3663Zm-1.095-.2975c.201 0 .3637-.1628.3637-.364 0-.2007-.1627-.3635-.3637-.3635-.2007 0-.3634.1628-.3634.3635 0 .2012.1627.364.3634.364Zm-1.5022-.3874c0 .2013.1634.3646.3646.3646.2013 0 .3646-.1633.3646-.3646 0-.2012-.1633-.3646-.3646-.3646-.2012 0-.3646.1634-.3646.3646Zm-.7735-.3593c-.2019 0-.3655.1639-.3655.3658 0 .2018.1636.3657.3655.3657.2018 0 .3655-.1639.3655-.3657 0-.2019-.1637-.3658-.3655-.3658Zm-.6251-.0508c0-.2024-.1639-.3669-.3663-.3669-.2025 0-.3667.1645-.3667.3669 0 .2025.1642.3664.3667.3664.2024 0 .3663-.1639.3663-.3664Zm-.6819-1.0798c0 .2031.1645.3676.3675.3676.203 0 .3675-.1645.3675-.3676 0-.203-.1645-.3675-.3675-.3675-.203 0-.3675.1645-.3675.3675Zm1.2023-1.0389c0-.2054-.1666-.3716-.3716-.3716-.2054 0-.3719.1662-.3719.3716 0 .2053.1665.3716.3719.3716.205 0 .3716-.1663.3716-.3716Zm.0913-1.4228c-.2118 0-.3836.1715-.3836.3838 0 .2118.1718.3833.3836.3833.2117 0 .3835-.1715.3835-.3833 0-.2123-.1718-.3838-.3835-.3838Zm.8584-.6557c0-.2182-.1771-.395-.3952-.395-.2185 0-.3953.1768-.3953.395 0 .2187.1768.3955.3953.3955.2181 0 .3952-.1768.3952-.3955Zm.068-1.4462c-.2249 0-.4072.1826-.4072.4072 0 .2252.1823.4072.4072.4072.2245 0 .4069-.182.4069-.4072 0-.2246-.1823-.4072-.4069-.4072Zm.4629-1.0506c-.2313 0-.4189.1872-.4189.4188s.1876.4189.4189.4189.4188-.1873.4188-.4189-.1875-.4188-.4188-.4188Zm.894-.6201c0-.2381-.1931-.4306-.4309-.4306-.238 0-.4308.1925-.4308.4306 0 .238.1928.4305.4308.4305.2378 0 .4309-.1925.4309-.4305Zm.0323-1.4818c-.2444 0-.4424.1984-.4424.4428 0 .2444.198.4422.4424.4422.2442 0 .4425-.1978.4425-.4422 0-.2444-.1983-.4428-.4425-.4428Zm.9821-.5571c0-.2508-.2033-.4544-.4541-.4544-.2509 0-.4545.2036-.4545.4544 0 .2509.2036.4544.4545.4544.2508 0 .4541-.2035.4541-.4544Zm1.0746-.0787c0-.2614-.2121-.4732-.4734-.4732-.2617 0-.4737.2118-.4737.4732 0 .2619.212.4736.4737.4736.2613 0 .4734-.2117.4734-.4736Zm8.0825 17.4547c0 .3145-.255.5694-.5694.5694-.3147 0-.5697-.2549-.5697-.5694a.5669.5669 0 0 1 .0447-.2211c-.0945.0555-.1984.0963-.3162.0963-.3509 0-.6353-.2847-.6353-.6359 0-.1114.0365-.2106.0867-.3016-.0143.0006-.0263.0082-.0409.0082-.3742 0-.6773-.3033-.6773-.6773 0-.1365.0502-.2561.1193-.3622-.3322-.0625-.5886-.3407-.5886-.6913 0-.1237.0394-.234.0942-.3355-.3217-.0875-.5629-.3692-.5629-.7187 0-.1137.0292-.2193.0741-.3161-.3089-.1074-.5338-.3921-.5338-.7374 0-.1103.023-.2147.0639-.3104-.2964-.1178-.5073-.4048-.5073-.7437 0-.1062.0231-.206.0604-.2987-.2954-.1237-.5034-.4148-.5034-.7549 0-.1033.0239-.2001.0586-.2905-.2949-.1289-.5017-.4212-.5017-.7636 0-.1009.0245-.1949.0575-.2841-.294-.133-.5008-.4259-.5008-.7695 0-.1003.025-.1931.0568-.2817-.2911-.1377-.4958-.4288-.4958-.7724 0-.1073.0251-.2083.0612-.3028-.2788-.1376-.4751-.4188-.4751-.7508 0-.1207.0271-.2345.0729-.3383-.2683-.1289-.4571-.3979-.4571-.7152 0-.14.0455-.2649.1086-.3792-.2713-.1056-.4653-.3663-.4653-.6749 0-.164.0642-.3075.1555-.4294-.2894-.0665-.5099-.3138-.5099-.6242 0-.1913.0855-.3599.2168-.4795-.3139-.0047-.5674-.2596-.5674-.5746 0-.318.2579-.5758.5761-.5758.21 0 .3859.1184.4865.2864.0315-.0846.0785-.1592.1377-.2252-.2622-.0256-.4766-.196-.5615-.4357-.049.2316-.245.4089-.4912.4089-.2832 0-.5125-.2292-.5125-.5122 0-.2829.2293-.5128.5125-.5128.208 0 .3853.1255.4655.3034.0251-.1756.1138-.3249.2483-.4288-.0208.0024-.0388.0123-.0601.0123-.3431 0-.621-.2777-.621-.6207s.2779-.6213.621-.6213c.0673 0 .1289.0187.1896.0385-.0648-.1062-.1121-.224-.1121-.3576 0-.1913.0776-.364.2022-.4906-.0508.0122-.0992.0309-.1537.0309-.3664 0-.6633-.2969-.6633-.6633 0-.3663.2969-.6633.6633-.6633.1493 0 .2803.0584.3911.1418 0-.0064-.0035-.0117-.0035-.0181 0-.399.3238-.7228.7228-.7228.028 0 .0519.0129.079.0158-.0452-.0957-.0746-.1995-.0746-.3127 0-.4089.3319-.7409.7411-.7409.0248 0 .0455.0117.0697.014-.0329-.084-.0545-.1744-.0545-.2701 0-.4095.3322-.7414.7417-.7414.0417 0 .0779.0169.1182.0239-.0111-.0507-.031-.0986-.031-.1528 0-.4037.3273-.731.7307-.731.0607 0 .1149.0204.1712.0344-.0023-.0227-.0134-.0426-.0134-.0665 0-.3873.3142-.7012.7012-.7012.3871 0 .7009.3139.7009.7012 0 .3874-.3138.7012-.7009.7012-.0519 0-.098-.0186-.1467-.0297.0041.0315.0184.0589.0184.0916 0 .4037-.327.7303-.7307.7303-.0388 0-.072-.0163-.1091-.0221.0123.0536.0327.1044.0327.1621 0 .4096-.3319.7421-.7415.7421-.0248 0-.0457-.0117-.0703-.014.033.0834.0546.1732.0546.2689 0 .0607-.0207.1144-.0344.1709.1158-.2625.3765-.4468.6816-.4468.0473 0 .0887.0187.1336.0268-.002-.021-.0125-.0397-.0125-.0612 0-.4014.3252-.7263.7263-.7263.0726 0 .1388.0216.205.0414.0035-.3769.3086-.682.6863-.682.3795 0 .6872.3081.6872.6878 0 .3798-.3077.6872-.6872.6872-.0603 0-.1146-.0198-.1706-.0344.0003.0093.0053.0169.0053.0263 0 .4007-.325.7257-.726.7257-.0414 0-.0773-.017-.117-.0234.0029.0269.016.0508.016.0788 0 .4124-.3342.7467-.7464.7467-.0265 0-.049-.0123-.0746-.0152.0143.0583.0356.1143.0356.1768 0 .2951-.1736.5437-.4201.6679.0773-.0262.157-.049.243-.049.0341 0 .0633.0152.096.0193-.0024-.0251-.0146-.0473-.0146-.073 0-.4147.3366-.7513.7516-.7513.0616 0 .1164.021.1739.035.0114-.3856.324-.696.7123-.696.0951 0 .1849.0204.268.0543.0342-.3401.3118-.6091.6607-.6091.3722 0 .6741.3016.6741.6738s-.3019.6744-.6741.6744c-.0776 0-.1494-.0198-.2188-.0443-.0181.3803-.3258.6842-.7099.6842-.0482 0-.0901-.018-.1356-.0274 0 .0023.0011.0041.0011.0064 0 .4154-.3366.752-.7516.752-.0292 0-.054-.0134-.0826-.0163.0035.0291.0175.0554.0175.0857 0 .2806-.1581.5157-.3827.6493.063-.0163.124-.0385.1922-.0385.0493 0 .0922.0192.1389.028.0079-.4002.3319-.7228.7338-.7228.0855 0 .1648.0216.2413.0484.0399-.3477.3249-.6218.6837-.6218.1196 0 .2263.0379.3249.0904.047-.3185.3098-.5671.6411-.5671.3646 0 .6604.2958.6604.6604s-.2958.6604-.6604.6604c-.1021 0-.196-.0274-.2823-.0689-.0394.3489-.3244.6237-.6837.6237-.0703 0-.1342-.021-.1981-.0397-.0262.3821-.3372.6878-.7269.6878-.0356 0-.0659-.0152-.1-.0205 0 .0065.0035.0117.0035.0175 0 .2993-.175.5513-.4232.6808.072-.0233.1449-.0455.2245-.0455.0741 0 .1415.0222.2089.042.0332-.364.3302-.6533.7032-.6533.1103 0 .2118.0297.3054.074.0569-.3191.3232-.5658.6583-.5658.1441 0 .2707.0548.3807.1312.0569-.2992.3077-.5296.623-.5296.357 0 .6467.2899.6467.6469 0 .357-.2897.6464-.6467.6464-.1283 0-.2412-.0473-.3418-.1114-.0505.3261-.3209.581-.6619.581-.0953 0-.1858-.0204-.268-.0554-.0514.3453-.3363.6142-.6957.6142-.0595 0-.1123-.0204-.1674-.0338-.0192.3979-.3418.7164-.7447.7164-.0364 0-.0676-.0158-.1026-.0204-.0085.1948-.0852.3704-.2097.5046.0653.0029.126.0192.186.0373.0566-.3453.3428-.6131.7042-.6131.0988 0 .1928.0204.2788.056.0551-.3284.3282-.5839.6726-.5839.1371 0 .2576.0501.3652.1184.0648-.2993.3185-.528.6373-.528.1689 0 .3188.0683.4361.1715.0656-.2794.3051-.4923.6049-.4923.3498 0 .633.2835.633.6329 0 .3501-.2832.6336-.633.6336-.1548 0-.2916-.0619-.4019-.1546-.0607.3039-.3168.5384-.6391.5384-.1236 0-.233-.0432-.3322-.1021-.0598.3232-.3299.5723-.6703.5723-.0857 0-.1662-.0204-.2421-.049-.0443.3588-.3386.6405-.7093.6405-.059 0-.1115-.0204-.1666-.0338-.0187.1832-.0901.3512-.2141.4743.1021.0006.1998.0204.2885.0577.0744-.3074.3389-.5408.6697-.5408.1272 0 .2398.0426.3427.1021.0616-.3091.3215-.546.6481-.546.164 0 .3086.0653.4256.1628.0712-.28.3136-.4912.6157-.4912.1981 0 .369.0939.488.2345.0659-.2713.2993-.4772.5907-.4772.3421 0 .6192.2777.6192.6195 0 .3425-.2771.6196-.6192.6196-.1844 0-.3454-.084-.4588-.2118-.0645.2893-.311.5104-.6199.5104-.1519 0-.2858-.0601-.396-.1481-.068.301-.3241.5297-.6453.5297-.1146 0-.2173-.0356-.3118-.0864-.0571.3302-.3322.5863-.679.5863-.0814 0-.1569-.021-.2295-.0467-.033.2007-.1392.3693-.297.4836.0356-.0052.0677-.021.1047-.021.1313 0 .248.0444.3544.1056.0744-.2934.3285-.5151.6449-.5151.1555 0 .292.0613.4063.1494.0674-.2894.3145-.5093.6243-.5093.1936 0 .3628.0881.4824.2217.0729-.2672.3071-.4685.5976-.4685.2316 0 .4253.1313.535.3174.0589-.273.2902-.4819.5807-.4819.3349 0 .6061.2713.6061.6061 0 .3343-.2712.6055-.6061.6055-.2196 0-.4034-.123-.5096-.2981-.0574.2894-.3004.5117-.6061.5117-.1823 0-.3433-.08-.4585-.2036-.0717.2829-.3164.4964-.6215.4964-.1447 0-.2713-.056-.3795-.1359-.0636.3086-.3241.5448-.6511.5448-.1105 0-.2106-.0326-.3027-.0793-.0677.3302-.3462.5834-.6965.5834-.0295 0-.0546-.0135-.0832-.017.0312.0759.0446.1599.0496.2456.1208-.196.3276-.3336.5749-.3336.1587 0 .2978.0624.4142.1528.0717-.2829.3162-.4964.6213-.4964.1846 0 .35.0781.4687.2012.0703-.2724.3069-.4777.6015-.4777.2301 0 .4223.1289.5331.3126.0633-.2712.2949-.4777.5854-.4777.2766 0 .5014.1866.5779.4387.0353-.2923.2739-.5222.5755-.5222.3255 0 .5895.2643.5895.5898s-.264.5892-.5895.5892c-.2637 0-.4784-.1756-.5539-.4147-.0353.3051-.285.5454-.5994.5454-.2206 0-.4049-.1231-.5128-.2975-.0619.2841-.3034.5017-.6058.5017-.1748 0-.3329-.0706-.4472-.1855-.0694.2864-.3156.5034-.623.5034-.1438 0-.2698-.056-.3777-.1348-.0674.3086-.3291.5443-.6578.5443-.0572 0-.1082-.0192-.1616-.0326.0286.0764.0493.1575.0493.2438 0 .2368-.1243.4364-.3031.5647.0321-.0047.0607-.0187.094-.0187.0895 0 .1744.0187.2523.0508-.0187-.0601-.038-.1214-.038-.1879 0-.3581.2903-.6481.6482-.6481.1884 0 .3544.0829.4728.2112.0653-.2765.3024-.4871.5994-.4871.2249 0 .4133.1248.5238.3027.0555-.2788.29-.4935.5854-.4935.283 0 .5105.1972.5784.4591.0266-.3004.2716-.539.5793-.539.3255 0 .5895.2637.5895.5892 0 .3255-.264.5898-.5895.5898-.2727 0-.4921-.189-.5594-.4405-.0266.3116-.28.5583-.5983.5583-.2155 0-.3961-.119-.504-.2882-.0542.2923-.2981.5175-.6052.5175-.1782 0-.3375-.0759-.4515-.1954-.0645.2905-.3113.5121-.6207.5121-.0849 0-.1651-.0186-.2395-.0484.0207.0648.0405.1301.0405.2013 0 .3663-.2972.6633-.6635.6633-.166 0-.3133-.0671-.4294-.1675-.0295.0712-.0755.1313-.1248.1891.1998.0262.366.1353.4719.2957.0916-.2322.3153-.3978.5805-.3978.1228 0 .2307.0443.3275.1056-.0187-.059-.037-.1179-.037-.1832 0-.3395.2753-.6149.6151-.6149.229 0 .4206.1307.5265.3162.042-.2894.2809-.5151.5819-.5151.2815 0 .5064.1977.5703.4597.009-.3139.2631-.5659.5787-.5659.3211 0 .5816.2602.5816.5816 0 .3215-.2605.5822-.5816.5822-.2725 0-.4904-.1913-.5539-.4433-.0091.3226-.2704.5822-.5951.5822-.2208 0-.4057-.1255-.5095-.3034-.0406.301-.2876.5361-.5989.5361-.1187 0-.2234-.0426-.3173-.1009.0195.0607.0382.1225.0382.1896 0 .3459-.2806.6265-.6265.6265-.2112 0-.3886-.1114-.5023-.2712-.0362.1061-.0925.2001-.1721.2753.2923 0 .5277.2013.602.4702.0531-.273.2821-.483.5706-.483.156 0 .2957.063.4013.1616-.0181-.0566-.0356-.1138-.0356-.1768 0-.322.2611-.5828.5828-.5828.322 0 .5828.2608.5828.5828s-.2608.5828-.5828.5828c-.1525 0-.2891-.0618-.3929-.1581.0193.0583.0368.1178.0368.1826 0 .3273-.2652.5921-.5924.5921-.2681 0-.4857-.1808-.5589-.4253-.0359.2001-.1575.367-.334.4556.0581-.0186.117-.0367.1812-.0367.3319 0 .6011.2695.6011.6014 0 .332-.2692.6009-.6011.6009-.1255 0-.2357-.0472-.332-.1132-.0172.0835-.0443.1599-.0866.231.1426.0455.2602.1313.3489.248.0708-.231.2776-.4025.532-.4025.3121 0 .565.2531.565.5652 0 .3121-.2529.5647-.565.5647-.1581 0-.3002-.0653-.4025-.1697-.0196.1015-.0575.1931-.1152.2747.2138.0484.3934.1861.4774.3839.0377-.2555.2483-.4545.5137-.4545.292 0 .5288.2369.5288.5291 0 .2917-.2368.5286-.5288.5286-.2071 0-.3821-.1225-.469-.2958-.007.1091-.0423.2065-.0951.2958.0055-.0006.0102-.0035.0157-.0035.3509 0 .6353.2847.6353.6353 0 .0968-.0254.1866-.0642.2689.0814-.0449.1704-.0776.2701-.0776.3145 0 .5694.2549.5694.5693Zm-5.7062-19.7503c.0519-.0111.1009-.0315.1563-.0315.0242 0 .0447.0117.0683.014-.0166-.0571-.0327-.1143-.0353-.1756-.051.077-.1135.1406-.1893.1931Zm2.7319 8.8146c.0003 0-.0003 0 0 0Zm.9092 6.2251c-.0625.0204-.1261.0397-.1952.0397-.0971 0-.1864-.0251-.2686-.0642-.0143.0677-.0292.133-.0595.1931.0875.0338.1648.0834.2333.1452.0543-.1382.1587-.2473.29-.3138Zm-.6432-1.0501c-.005 0-.0093.003-.0143.003-.0773 0-.1485-.0205-.2176-.0438-.0117.0618-.0178.1248-.0429.1808.0493.0205.0875.0572.131.0864.0327-.0852.0799-.1634.1438-.2264Zm.238-2.5487c-.0376.0059-.0715.0222-.1108.0222-.1298 0-.2448-.0443-.3495-.1056-.0207.049-.058.0869-.0878.1307.1327.0315.2561.0869.3495.1808.0472-.0927.1161-.1668.1986-.2281Zm-1.1434-8.1163c-.0227 0-.042-.0111-.0645-.0128.0003.0052.0033.0099.0033.0151 0 .2019-.0814.381-.2057.521.0374.0023.0709.014.1065.0216.0236-.2602.1747-.4766.3946-.5921-.0752.0239-.1511.0472-.2342.0472Zm-.5775-1.3942c-.0245 0-.0452-.0117-.0692-.014.0053.0356.021.0671.021.1038 0 .0478-.0186.0893-.0271.1342.0662-.1085.1549-.1972.2643-.262-.0622.0158-.1219.038-.189.038Zm-.3398-1.4479c-.0759.0256-.1535.0478-.2378.0478-.0268 0-.0492-.0128-.0755-.0152.0184.0648.0402.1284.0402.199 0 .004-.0023.0081-.0023.0122.0724-.1021.1625-.1872.2754-.2438Zm-.8325-1.3447c-.0321 0-.0592-.0146-.0901-.0181.0361.0794.0545.1669.0595.2585.1339-.21.3579-.3571.6253-.3571.0289 0 .0534.0135.0814.0164-.0134-.056-.0344-.1097-.0344-.1704 0-.0612.021-.1161.035-.1726-.1149.2601-.3739.4433-.6767.4433Zm5.9063 20.6796c-.2771 0-.502.2252-.502.5023 0 .2777.2249.5023.502.5023.2774 0 .5022-.2246.5022-.5023 0-.2771-.2249-.5023-.5022-.5023Z"/>
</svg>
