<svg xmlns="http://www.w3.org/2000/svg" width="56" height="55" fill="none" viewBox="0 0 56 55">
  <path fill="#fff" d="M46.0862.5H9.91383C4.43857.5 0 4.93857 0 10.4138v34.1724C0 50.0614 4.43857 54.5 9.91383 54.5H46.0862C51.5614 54.5 56 50.0614 56 44.5862V10.4138C56 4.93857 51.5614.5 46.0862.5Z"/>
  <path fill="#EB1000" d="M43.2578 41.4167h-6.5456c-.6074 0-1.1261-.3468-1.3425-.8655l-7.067-16.5485c-.1278-.2998-.4693-.3024-.5996-.0078l-4.4285 11.0673c-.1042.2475.0775.5211.346.5211h4.8677c.3015 0 .5737.1803.6913.4579l2.0922 4.1581c.245.5787-.1799 1.2174-.8055 1.2174h-17.721c-.5657 0-.9541-.5631-.7377-1.1262l11.3109-26.839c.2189-.5631.782-.9515 1.4311-.9515h6.5013c.6491 0 1.2148.3884 1.4312.9515l11.3109 26.839c.2163.5631-.1721 1.1262-.7352 1.1262Z"/>
</svg>
