<svg xmlns="http://www.w3.org/2000/svg" width="56" height="55" fill="none" viewBox="0 0 56 55">
  <defs>
    <clipPath id="a">
      <path fill="#fff" d="M-.00024.5h56v54h-56z"/>
    </clipPath>
  </defs>
  <g clip-path="url(#a)">
    <path fill="#1E3101" d="M46.0859.5H9.91359C4.43833.5-.00024 4.93857-.00024 10.4138v34.1724c0 5.4752 4.43857 9.9138 9.91383 9.9138H46.0859c5.4753 0 9.9139-4.4386 9.9139-9.9138V10.4138C55.9998 4.93857 51.5612.5 46.0859.5Z"/>
    <path fill="#99E83F" d="M25.2431 32.4691h-8.5469l-1.7069 5.668a.43504.43504 0 0 1-.1619.2465.43547.43547 0 0 1-.2819.0865h-4.3291c-.2466 0-.33303-.1356-.2593-.407l7.368-21.2796c.1839-.6517.3078-1.3187.3701-1.9929a.22814.22814 0 0 1 .0095-.1047.22927.22927 0 0 1 .0552-.0895.22958.22958 0 0 1 .0894-.0553.2295.2295 0 0 1 .1047-.0095h5.8828c.1724 0 .2715.062.2959.185L32.5645 38.1c.0737.2471-.0004.3705-.2222.3702h-4.81a.34255.34255 0 0 1-.2339-.0598.34233.34233 0 0 1-.1362-.1992l-1.9191-5.7421Zm-7.2148-3.9063h5.8457c-.148-.4932-.9255-3.3984-1.147-4.1018-.2222-.7029-.4442-1.4058-.666-2.1089-.2222-.7031-.4257-1.3815-.6104-2.0351-.185-.6534-.3515-1.2515-.4995-1.7945h-.0371a29.7043 29.7043 0 0 1-.7774 2.96c-.3457 1.1101-.6971 2.2448-1.0542 3.404-.3578 1.1597-.7094 2.69-1.0541 3.6763Zm17.04-8.8744h3.9384a.50406.50406 0 0 1 .3027.1042.5036.5036 0 0 1 .1787.2657c.0877.1622.1499.3369.1846.518.0493.222.0864.8882.1113 1.1473.0244.259.0368.5365.0371.8325a8.94862 8.94862 0 0 1 2.46-2.0938 6.67728 6.67728 0 0 1 3.3643-.7739.29598.29598 0 0 1 .1347.0122.29513.29513 0 0 1 .115.0711.29513.29513 0 0 1 .0711.115.29598.29598 0 0 1 .0122.1347v4.5913c0 .1729-.124.259-.3701.259a8.74372 8.74372 0 0 0-2.3648.1079 9.11706 9.11706 0 0 0-1.9243.6104 4.74198 4.74198 0 0 0-1.3818.851v11.6643c0 .222-.0987.333-.2959.333h-4.2402a.32804.32804 0 0 1-.1498-.0134.32733.32733 0 0 1-.2069-.2069.32808.32808 0 0 1-.0135-.1498v-12.663c0-.5425-.0061-1.1161-.0185-1.7207a91.37261 91.37261 0 0 0-.0552-1.7944c-.0254-.592-.0742-1.523-.1484-1.9427a.21132.21132 0 0 1 .0008-.1091.21162.21162 0 0 1 .0548-.0944.2125.2125 0 0 1 .0945-.0548.21385.21385 0 0 1 .1092-.0007Z"/>
  </g>
</svg>
