<svg xmlns="http://www.w3.org/2000/svg" width="56" height="55" fill="none" viewBox="0 0 56 55">
  <defs>
    <clipPath id="a">
      <path fill="#fff" d="M0 .5h56v54H0z"/>
    </clipPath>
    <clipPath id="b">
      <path fill="#fff" d="M0 .5h56v54H0z"/>
    </clipPath>
  </defs>
  <g clip-path="url(#a)">
    <g clip-path="url(#b)">
      <path fill="#00005B" d="M0 10.5C0 4.97715 4.47715.5 10 .5h36c5.5228 0 10 4.47715 10 10v34c0 5.5228-4.4772 10-10 10H10c-5.52285 0-10-4.4772-10-10v-34Z"/>
      <path fill="#99F" d="M22.4235 32.8026h-8.4366l-1.753 5.4053c-.0731.2191-.2191.2921-.4383.2921H7.55911c-.25565 0-.3287-.1095-.25565-.3652l7.30434-21.073c.1461-.3653.2922-.8035.3287-2.1913 0-.1826.1096-.2557.2557-.2557h5.8069c.1826 0 .2557.0365.2922.1826l8.3269 23.3739c.0731.2192.0366.3287-.2191.3287h-4.7478c-.1826 0-.2922-.073-.4018-.2191l-1.826-5.4783Zm-7.1218-4.5287h5.7339c-.6939-2.4104-2.1548-6.8295-2.8852-9.4591h-.0365c-.5844 2.4835-1.8626 6.5009-2.8122 9.4591Zm28.0955 2.52h-7.1583c.1827 2.0818 1.68 3.7983 5.2227 3.7983 1.68 0 3.1043-.2922 4.4921-.84.1461-.073.2557-.0365.2557.1461v3.4696c0 .2921-.0731.3652-.2557.4747-1.4608.6574-3.0678 1.0226-5.6243 1.0226-6.8296 0-9.24-4.7113-9.24-9.2034 0-5.0766 3.0678-9.6418 8.8017-9.6418 5.5513 0 7.7426 4.2365 7.7426 7.8887 0 1.0957-.073 2.0452-.1826 2.4105-.0365.1826-.1095.2556-.2922.2921-.5113.1096-1.8991.1826-3.7617.1826Zm-7.1583-3.5791h4.7479c1.1687 0 1.7165-.0365 1.8261-.073.0365-.0366.0365-.1826.0365-.2192 0-.913-.7305-2.9217-3.1409-2.9217-2.3009 0-3.2504 1.7165-3.4696 3.2139Z"/>
    </g>
  </g>
</svg>
