<svg xmlns="http://www.w3.org/2000/svg" width="56" height="55" fill="none" viewBox="0 0 56 55">
  <defs>
    <clipPath id="a">
      <path fill="#fff" d="M0 .5h56.0002v54H0z"/>
    </clipPath>
    <clipPath id="b">
      <path fill="#fff" d="M0 .5h56v54H0z"/>
    </clipPath>
  </defs>
  <g clip-path="url(#a)">
    <g clip-path="url(#b)">
      <path fill="#00005B" d="M0 10.5C0 4.97715 4.47715.5 10 .5h36c5.5228 0 10 4.47715 10 10v34c0 5.5228-4.4772 10-10 10H10c-5.52285 0-10-4.4772-10-10v-34Z"/>
      <path fill="#99F" d="M21.4784 32.8026h-8.4365l-1.7531 5.4053c-.073.2191-.2191.2921-.4382.2921H6.61404c-.25565 0-.32869-.1095-.25565-.3652l7.30431-21.073c.1461-.3653.2922-.8035.3287-2.1913 0-.1826.1096-.2557.2557-.2557h5.8069c.1827 0 .2557.0365.2922.1826l8.327 23.3739c.073.2192.0365.3287-.2192.3287h-4.7478c-.1826 0-.2922-.073-.4017-.2191l-1.8261-5.4783Zm-7.1217-4.5287h5.7339c-.6939-2.4104-2.1548-6.8295-2.8853-9.4591h-.0365c-.5843 2.4835-1.8626 6.5009-2.8121 9.4591Zm17.0251 9.8974V24.6218c0-1.2418-.0731-3.1409-.1461-3.9444 0-.2191.0365-.2922.2556-.2922h3.8348c.2922 0 .4383.0731.5113.2922.1461.2922.2192.6939.2922 1.1687 1.5339-1.2052 3.2504-1.8261 5.1496-1.8261 2.8121 0 6.1721 1.4609 6.1721 7.3044v10.8469c0 .2557-.1095.3287-.3287.3287h-4.4191c-.2191 0-.3652-.073-.3652-.3287V27.7992c0-2.2279-.913-3.3966-2.8122-3.3966-1.2417 0-2.3008.4383-3.0678 1.1687v12.6366c0 .2191-.1096.2921-.2922.2921h-4.4556c-.2192 0-.3287-.073-.3287-.3287Z"/>
    </g>
  </g>
</svg>
