<svg xmlns="http://www.w3.org/2000/svg" width="56" height="55" fill="none" viewBox="0 0 56 55">
  <defs>
    <clipPath id="a">
      <path fill="#fff" d="M0 .5h56v54H0z"/>
    </clipPath>
  </defs>
  <g clip-path="url(#a)">
    <path fill="#00005B" d="M46.0862.5H9.91383C4.43857.5 0 4.93857 0 10.4138v34.1724C0 50.0614 4.43857 54.5 9.91383 54.5H46.0862C51.5614 54.5 56 50.0614 56 44.5862V10.4138C56 4.93857 51.5614.5 46.0862.5Z"/>
    <path fill="#99F" d="M22.2583 32.7509h-8.637l-1.7604 5.4512c-.0748.2243-.2243.3365-.4487.3365H7.03763c-.24945 0-.3365-.1367-.26172-.4113l7.48099-21.5287c.0748-.2244.1496-.4797.2244-.7665.0748-.2863.1244-.777.1495-1.5002 0-.1741.0871-.2618.2618-.2618h5.9449c.1741 0 .274.0625.2991.187l8.4797 23.9075c.0747.2494 0 .3739-.2244.3739h-4.8606c-.1998 0-.3243-.0871-.3739-.2618l-1.8991-5.5258Zm-7.291-4.688h5.9076c-.1496-.4983-.3242-1.0823-.5235-1.7056-.1998-.6228-.4112-1.29-.6356-2.0004l-.673-2.1312c-.2243-.7104-.43-1.3957-.6169-2.0564-.187-.6602-.3552-1.2648-.5048-1.8134h-.0374c-.1747.8728-.4364 1.8695-.7852 2.9911-.3493 1.1217-.7045 2.2685-1.0656 3.4399-.3616 1.1719-.7168 2.2793-1.0656 3.276Zm31.9673-7.8385v14.1707c0 .6234.0109 1.1778.0238 1.6638.0123.4861.0374.9102.0748 1.2713.0374.3616.0683.6595.0934.9084.0246.1998-.0625.2991-.2617.2991h-4.0007c-.2243 0-.3739-.0871-.4486-.2618-.0503-.174-.0935-.3597-.1309-.5718-.0374-.2115-.0561-.4049-.0561-.5796-.8477.7233-1.7199 1.2029-2.6173 1.4395-.8973.2366-1.7573.3552-2.5799.3552-.9224 0-1.7637-.1308-2.5238-.3926-.7606-.2617-1.4207-.6852-1.9816-1.2712-.5608-.5854-.9972-1.3332-1.3086-2.2434-.312-.9096-.4674-2.0126-.4674-3.309V20.2618c0-.1992.0993-.2991.2991-.2991h4.5989c.1993 0 .2992.0999.2992.2991v10.843c0 1.0224.2243 1.8263.673 2.4116.4486.586 1.1964.8787 2.2433.8787.5731 0 1.0966-.0935 1.5704-.2804.4732-.187.8968-.4423 1.2959-.7665V20.2244c0-.1741.1121-.2617.3365-.2617h4.6065c.1741 0 .2618.0876.2618.2617Z"/>
  </g>
</svg>
