<svg xmlns="http://www.w3.org/2000/svg" width="56" height="55" fill="none" viewBox="0 0 56 55">
  <defs>
    <clipPath id="a">
      <path fill="#fff" d="M0 .5h56v54H0z"/>
    </clipPath>
  </defs>
  <g clip-path="url(#a)">
    <path fill="#000B1D" d="M46.0862.5H9.91383C4.43857.5 0 4.93857 0 10.4138v34.1724C0 50.0614 4.43857 54.5 9.91383 54.5H46.0862C51.5614 54.5 56 50.0614 56 44.5862V10.4138C56 4.93857 51.5614.5 46.0862.5Z"/>
    <path fill="#fff" d="M10.0501 14.7974c0-.2229.0371-.3345.2231-.3719 1.3008-.0371 4.9434-.1113 7.5825-.1113 7.9175 0 9.2183 4.0515 9.2183 6.5049 0 2.5273-1.3379 4.0515-2.2671 4.7204 1.375.7063 3.4565 2.3047 3.4565 5.7244 0 4.5347-3.9399 7.5454-10.333 7.5454-3.6059 0-6.2451-.0371-7.6201-.0742-.186-.0371-.2603-.1487-.2603-.3345l.0001-23.6032Zm5.0551 9.1067h2.5274c1.2641 0 2.751.1115 3.3086.186.6689-.5947 1.1147-1.301 1.1147-2.5278 0-1.8955-1.4121-2.8992-4.2373-2.8992-1.1523 0-1.8955.0371-2.7134.0745v5.1665Zm0 10.5192c.7808.0372 1.5982.0745 2.7134.0745 3.1968.0371 5.0923-1.0037 5.0923-3.1597 0-1.2636-.5205-2.3418-2.2671-2.7876-.5947-.1489-1.4126-.2231-2.3418-.2231h-3.1968v6.0959Zm20.8017-3.5683c.1861 2.1186 1.6729 3.8657 5.3154 3.8657 1.6729 0 3.1597-.2602 4.5723-.855.1113-.0742.2227-.0371.2227.1858v3.5313c0 .2602-.0742.3718-.2598.446-1.4868.7063-3.1226 1.0779-5.6875 1.0779-6.9878 0-9.4409-4.7949-9.4409-9.4041 0-5.1294 3.1592-9.813 8.9951-9.813 5.6128 0 7.8428 4.3489 7.8428 8.0289 0 1.1523-.0742 2.0815-.1856 2.4904-.0371.1858-.1118.2603-.2973.2974-.4834.0742-1.896.1487-3.8286.1487h-7.2486Zm4.9166-3.6055c1.1894 0 1.7095-.0373 1.8584-.0744v-.2603c0-.8921-.706-2.9363-3.1597-2.9363-2.3418 0-3.3452 1.7469-3.5683 3.271h4.8696Zm-7.3206-13.5776h11.1275c.1736 0 .2609.0996.2609.2982v3.0191c0 .1992-.0995.2981-.2982.2981H33.4657c-.1742 0-.261-.0989-.261-.2981v-3.0564c0-.1735.0991-.2609.2982-.2609Z"/>
  </g>
</svg>
