<svg xmlns="http://www.w3.org/2000/svg" width="56" height="55" fill="none" viewBox="0 0 56 55">
  <defs>
    <clipPath id="a">
      <path fill="#fff" d="M.00037.5h56v54h-56z"/>
    </clipPath>
  </defs>
  <g clip-path="url(#a)">
    <path fill="#EAEAEA" d="M51.8475 52.375h-8.9097v2.0624h-.8125V52.375H28.8754v2.0624h-.8437V52.375H13.938v2.0624h-.8126V52.375H3.95054c-.38937-.3018-.75945-.4971-1.10169-.8394 1.79842 1.8283 4.29806 2.9645 7.06524 2.9645H46.0864c2.766 0 5.265-1.1352 7.0633-2.9622-.3416.3408-.7109.5361-1.0993.8372l-.2029-.0001Zm3.784-39.925H42.9378v7.179l4.9582 4.9583h8.1041V12.45h-.3686Zm-13.5062 0h-6.3665l6.3665 6.3665V12.45ZM20.057 27.3114c.2269.0176.4368.0264.6293.0263h.8655a6.1503 6.1503 0 0 0 1.875-.2994 2.82729 2.82729 0 0 0 1.3375-.8654c.1732-.2042.3014-.4499.3866-.7354h-5.094l.0001 1.8739Zm5.2187-2.8169a2.65168 2.65168 0 0 0-.3803-1.4423 2.44608 2.44608 0 0 0-1.1408-.931 4.86225 4.86225 0 0 0-1.9144-.3278c-.4196 0-.7911.0044-1.1145.0132-.3238.0089-.5467.0221-.6688.0392v2.7417h5.2129c.0008-.0322.0059-.0603.0059-.093Zm3.5997 23.8237c.0357-.0317.076-.0564.11-.0903l8.8528-8.8529h-8.9628v8.9432Zm14.0624-36.6933h13.0624v-1.2112C56.0002 4.93858 51.5617.5 46.0864.5h-3.1485v.11752l-.0001 11.00738ZM16.7008 39.375l8.853 8.8529c.4583.4583 1.0676.7107 1.7158.7107.2642 0 .5184-.0522.7621-.133V39.375H16.7008Zm12.1746-14.7877h2.3087c.4064-.5886.9573-1.0637 1.6086-1.3644.769-.3844 1.7306-.5768 2.8847-.577.6758-.0053 1.351.0429 2.0192.1443.4839.0614.9571.1893 1.4058.3803.0723.0207.1304.074.1574.1442a.71734.71734 0 0 1 .0261.1967v1.0759h2.8395v-4.4697L34.4578 12.45h-5.5824v12.1373Z"/>
    <path fill="#EAEAEA" d="M16.5151 24.5873v-5.705c0-.1221.0525-.1836.1573-.1836.2795 0 .5346-.0041.9194-.0131.3843-.0086.7996-.0173 1.2457-.0261.4459-.0087.9178-.0175 1.4162-.0263.4982-.0086.9921-.0129 1.4816-.013 1.3285 0 2.4474.166 3.3568.4982a5.82394 5.82394 0 0 1 2.1898 1.3376c.2888.2864.5376.6077.7498.952V12.45h-7.9504l-6.1433 6.1432v5.9941h2.5771ZM28.0317 6.39978c-.2437-.08078-.4979-.13293-.7621-.13293-.6481 0-1.2575.25238-1.7158.71073L20.9063 11.625h7.1254V6.39978ZM46.595 24.5874l-3.6572-3.6572v3.6572h3.6572ZM13.938 38.5749h.6618l-.6618-.6618v.6618Zm14.0937-10.9708c-.0551.0897-.0988.1881-.1596.2735a5.48306 5.48306 0 0 1-2.6224 1.98c-1.1015.411-2.3254.5504-3.6715.5504-.3848 0-.6557-.0044-.813-.0131-.1572-.0086-.3933-.013-.708-.0131v5.2322c.0164.1141-.063.2197-.1771.236a.20825.20825 0 0 1-.059 0h-3.1223c-.1224-.0003-.1836-.07-.1836-.2101V25.4375h-2.577V36.612l1.9629 1.9629h12.1307l-.0001-10.9708Zm-14.9063-8.1983-5.18155 5.1815h5.18155v-5.1815Zm-6.03162 6.0317-.44954.4495c-.45817.4582-.71074 1.0676-.71074 1.7157 0 .6481.25248 1.2574.71074 1.7157l6.48116 6.4812V25.4375H7.09378Zm17.80942 23.441-9.5035-9.5035h-1.4618v12.1349h14.0937v-1.7471c-.2479.0577-.5014.0958-.7621.0958-.8938 0-1.7342-.3481-2.3663-.9801Zm8.7296-37.2535-4.6476-4.6475c-.034-.034-.0742-.05858-.1099-.09029V11.625h4.7575Zm9.305 22.6503 4.9568-4.9569c.4582-.4582.7108-1.0676.7108-1.7157 0-.6481-.2525-1.2574-.7108-1.7157l-.4495-.4495h-4.5073v8.8378Zm-.8125 4.2996v-2.1862l-2.1862 2.1862h2.1862Zm-2.8394-13.1374v.7226a.17615.17615 0 0 1-.0788.1574c-.0707.0354-.1543.0354-.2252.0001a6.13433 6.13433 0 0 0-1.5604-.5507 8.27636 8.27636 0 0 0-1.8227-.2099 3.39615 3.39615 0 0 0-.9833.1181.88363.88363 0 0 0-.5115.3278.8252.8252 0 0 0-.1311.4457.6962.6962 0 0 0 .1573.4196c.1532.1792.3404.3263.5507.4327.3739.2014.7592.381 1.1539.5376.8802.2947 1.7212.6953 2.5045 1.1932.5337.3368.9753.8009 1.285 1.3506a3.6022 3.6022 0 0 1 .3803 1.6784 3.76893 3.76893 0 0 1-.6293 2.1635 4.1399 4.1399 0 0 1-1.8227 1.4555c-.7958.3496-1.7792.5244-2.9504.5245a10.66371 10.66371 0 0 1-2.2159-.2099 7.0718 7.0718 0 0 1-1.6654-.5245c-.1169-.0604-.1886-.1831-.1835-.3146v-2.8323a.1536.1536 0 0 1 .0656-.1442.12713.12713 0 0 1 .1441.0131c.6274.37 1.3087.6398 2.0193.7998.6262.157 1.2688.2406 1.9144.2491.6118 0 1.0621-.0787 1.3506-.236.2663-.1219.4358-.389.4327-.6818 0-.227-.1312-.4455-.3934-.6556-.2622-.2099-.7955-.4633-1.5998-.7605a9.64114 9.64114 0 0 1-2.3209-1.1801 4.00433 4.00433 0 0 1-1.2326-1.3768 3.61793 3.61793 0 0 1-.3803-1.6654c-.0009-.4275.0794-.8471.2193-1.247h-1.8811v13.1374h9.7627l3.4872-3.4872v-9.6502h-2.8393ZM28.8754 49.4318v2.0781h13.2499V39.375h-2.9861l-9.5035 9.5035c-.2267.2267-.4872.4027-.7603.5533ZM13.938 12.45v4.8423l4.8422-4.8423H13.938Zm14.9374-6.67639c.2732.15064.5337.32665.7604.5534l5.298 5.29799h7.1915V.5H28.8754v5.27361Z"/>
    <path fill="#EAEAEA" d="M13.1254 51.5099v-12.135H.00054v-.8H13.1254v-1.4743l-7.13153-7.1317c-.63207-.6321-.98021-1.4723-.98021-2.3661 0-.806.29608-1.5597.81495-2.1653H.00054v-.8501h6.64249l6.48237-6.4825v-5.6548H.00054v-.825H13.1254V.5H9.9141C4.43894.5.00037 4.93858.00037 10.4137v34.1724c0 2.6955 1.0794 5.1366 2.82514 6.9238H13.1254Zm35.585-26.0724c.5189.6056.8149 1.3594.8149 2.1652 0 .8938-.3481 1.7342-.9802 2.3662l-5.6073 5.6073v2.9987h13.0624V25.4375h-7.2898ZM42.9378 39.375v12.1349h10.237c1.7459-1.7871 2.8253-4.2281 2.8253-6.9238V39.375H42.9378ZM13.938 11.625h5.6673l5.2979-5.29799c.6321-.63206 1.4724-.98003 2.3664-.98003.2607 0 .5142.03814.7621.09584V.5H13.938v11.125Z"/>
    <path fill="#ACC6E6" d="M42.9378 38.5749v-2.9987l-.8125.8125v2.1862h-2.1862l-.8.7999h2.9862v12.135H28.8754v-2.0782c-.2662.1469-.5469.2619-.8438.331v1.7472H13.938v-12.135h1.4618l-.8-.7999h-.6618v-.6619l-.8126-.8126v1.4744H.00049v.8H13.1254v12.135H2.82053c.00916.0094.01894.0164.02818.0256.34225.3422.71233.5375 1.1017.8394h9.17499v2.0624h.8126v-2.0624h14.0936v2.0624h.8438v-2.0624h13.2499v2.0624h.8125v-2.0624h9.1125c.3884-.3011.7577-.4964 1.0992-.8372.0101-.01.0206-.0176.0307-.0278H42.9378v-12.135h13.0623l.0002-.7999H42.9378Zm4.9583-13.9875.6491.6491c.0622.0622.1087.1349.1653.201h7.2897l.0002-.8501h-8.1043Zm-31.381.8501v-.8502h-2.577v-5.994l-.8126.8124v5.1816H7.94394l-.8501.8502h6.03166v10.362l.8126.8125V25.4375h2.577Zm3.5418-.8501v.8501h5.094c.0749-.2508.112-.5365.1189-.8501h-5.2129Zm-13.41393 0H.00049v.8501h5.82815c.05664-.0661.10298-.1388.16526-.201l.64907-.6491ZM13.1255 11.625H.00058v.825H13.1255v5.6548l.8126-.8125V12.45h4.8422l.8251-.825h-5.6673V.5h-.8126v11.125Zm14.9062-6.18226c.2969.06906.5776.18402.8437.33087V.5h-.8437v4.94274Z"/>
    <path fill="#ACC6E6" d="M28.8754 25.4375h1.8811c.0872-.2492.1925-.4924.3313-.7198.029-.0459.0654-.0858.0961-.1303h-2.3086V12.45h5.5824l-.825-.825h-4.7574V6.8872c-.2488-.22155-.534-.38479-.8438-.48742V11.625h-7.1253l-.825.825h7.9504v8.958c.175.2839.3263.5826.4435.8968.2452.6768.3697 1.3913.3672 2.1111 0 .0597-.0092.1125-.0104.1714-.0059.2926-.019.5797-.054.8501-.1073.8294-.3648 1.545-.7463 2.1667v10.9708H15.9008l.7999.8h11.3309v9.4307c.3098-.1027.595-.266.8438-.4875v-8.9432h8.9627l.7999-.8h-9.7626V25.4375ZM42.1253 11.625h-7.1915l.825.825h6.3665v6.3666l.8125.8125V12.45h13.0625v-.825H42.9378V.5h-.8125v11.125Zm0 12.9624h-2.8394v.8501h2.8394v9.6502l.8125-.8125v-8.8377h4.5073l-.8501-.8501h-3.6572v-3.6572l-.8125-.8125v4.4697Z"/>
    <path fill="#1473E6" d="M25.0921 19.1185c-.9094-.3322-2.0283-.4983-3.3568-.4983-.4896.0001-.9835.0045-1.4816.0131-.4984.0088-.9703.0176-1.4162.0262-.4461.0089-.8613.0176-1.2457.0262-.3848.009-.64.013-.9194.013-.1049 0-.1573.0615-.1573.1836v16.7576c0 .1401.061.2098.1836.2101h3.1222a.20896.20896 0 0 0 .0591 0c.114-.0163.1933-.122.177-.236v-5.2323c.3147.0001.5508.0045.708.0132.1573.0086.4283.013.8131.013 1.346 0 2.57-.1394 3.6714-.5504a5.48332 5.48332 0 0 0 2.6225-1.98c.0607-.0854.1045-.1837.1596-.2735.3814-.6217.6389-1.3373.7463-2.1667.035-.2704.0481-.5575.0539-.8501.0012-.0588.0104-.1117.0104-.1714.0026-.7198-.1219-1.4343-.3672-2.1111-.1172-.3143-.2685-.6129-.4434-.8967-.2122-.3443-.461-.6657-.7498-.9521a5.82231 5.82231 0 0 0-2.1897-1.3374Zm-.3278 7.0543a2.8287 2.8287 0 0 1-1.3375.8655 6.15438 6.15438 0 0 1-1.8751.2993h-.8654c-.1926.0002-.4024-.0086-.6294-.0263v-5.4655c.1221-.0172.345-.0303.6689-.0393.3233-.0087.6948-.0131 1.1144-.0131a4.86094 4.86094 0 0 1 1.9145.3278c.4669.1857.8651.5109 1.1408.9309.262.4345.3941.9351.3803 1.4424 0 .0327-.0052.0608-.0059.0929-.007.3136-.0441.5993-.119.8501-.0852.2854-.2134.5311-.3866.7353Zm14.4954-2.8582a.23903.23903 0 0 0-.1573-.1442 5.2915 5.2915 0 0 0-1.4058-.3803 12.77837 12.77837 0 0 0-2.0193-.1442c-1.154.0002-2.1156.1926-2.8847.5769-.6513.3008-1.2021.7759-1.6086 1.3645-.0307.0445-.0671.0844-.0961.1303-.1388.2274-.2441.4706-.3313.7198-.14.4-.2203.8196-.2193 1.2471a3.6153 3.6153 0 0 0 .3803 1.6653 4.00131 4.00131 0 0 0 1.2326 1.3768 9.6393 9.6393 0 0 0 2.3209 1.1801c.8042.2972 1.3376.5506 1.5997.7605.2623.2101.3934.4286.3934.6556.0031.2928-.1664.5599-.4327.6818-.2886.1573-.7387.236-1.3505.236a8.32023 8.32023 0 0 1-1.9145-.2491 7.00415 7.00415 0 0 1-2.0192-.7998.12728.12728 0 0 0-.1442-.0131.154.154 0 0 0-.0656.1442v2.8323a.33959.33959 0 0 0 .1836.3146c.5313.243 1.0907.4191 1.6653.5245.7293.1471 1.4721.2173 2.216.2099 1.1711-.0001 2.1546-.1749 2.9503-.5245a4.14004 4.14004 0 0 0 1.8228-1.4555c.4255-.6401.645-1.395.6293-2.1635a3.6022 3.6022 0 0 0-.3803-1.6784 3.80655 3.80655 0 0 0-1.285-1.3506 11.43789 11.43789 0 0 0-2.5045-1.1932c-.3947-.1567-.78-.3362-1.1539-.5376a1.7845 1.7845 0 0 1-.5507-.4327.69496.69496 0 0 1-.1573-.4196.82596.82596 0 0 1 .131-.4457.88425.88425 0 0 1 .5115-.3278c.3202-.0872.6516-.127.9834-.118a8.27467 8.27467 0 0 1 1.8226.2098 6.13162 6.13162 0 0 1 1.5604.5507c.071.0353.1546.0353.2253-.0001a.1764.1764 0 0 0 .0787-.1574v-2.6487a.72631.72631 0 0 0-.0263-.1967Z"/>
    <path fill="#1473E6" d="m35.7588 12.4501-.825-.825-5.2979-5.29805c-.2267-.22666-.4871-.40276-.7604-.5534-.2661-.14685-.5469-.26182-.8438-.33088-.2479-.0577-.5013-.09585-.7621-.09585-.8939 0-1.7342.34797-2.3663.98004L19.6054 11.625l-.825.825-4.8423 4.8423-.8126.8125-6.48243 6.4826-.64916.649c-.06219.0622-.10861.135-.16526.2011-.51895.6055-.81495 1.3593-.81495 2.1652 0 .8938.34806 1.734.98021 2.3662l7.13159 7.1316.8126.8126.6618.6618.8.8 9.5035 9.5035c.632.6319 1.4724.98 2.3663.98.2608 0 .5142-.0381.7621-.0958.2969-.0691.5776-.1842.8438-.331.2731-.1506.5336-.3267.7602-.5533l9.5035-9.5035.8-.8 2.1862-2.1862.8125-.8125 5.6073-5.6073c.632-.6321.9802-1.4724.9802-2.3662 0-.8059-.2961-1.5598-.815-2.1652-.0566-.0661-.103-.1389-.1652-.2011l-.6491-.649-4.9582-4.9583-.8125-.8124-6.3667-6.3665Zm7.1791 8.4801 3.6572 3.6573.8501.8501.4495.4495c.4582.4583.7107 1.0676.7107 1.7157 0 .6481-.2524 1.2574-.7107 1.7157l-4.9568 4.9568-.8125.8125-3.4873 3.4873-.7998.7999-8.853 8.8529c-.034.034-.0742.0586-.1099.0903-.2488.2215-.534.3848-.8438.4874-.2437.0808-.4979.1329-.7621.1329-.6481 0-1.2575-.2524-1.7158-.7106l-8.8529-8.8529-.7998-.8-1.9629-1.9629-.8126-.8126-6.48119-6.4812c-.45818-.4582-.71074-1.0676-.71074-1.7157 0-.6481.25248-1.2574.71074-1.7157l.44954-.4495.85009-.8501 5.18156-5.1816.8126-.8126 6.1432-6.1432.825-.825 4.6475-4.64746c.4583-.45835 1.0676-.71073 1.7158-.71073.2642 0 .5184.05215.7621.13293.3098.10263.595.26595.8438.48742.0357.03171.0759.05638.1099.09029l4.6475 4.64745.825.825 7.6676 7.6676.8124.8128Z"/>
  </g>
</svg>
