<svg xmlns="http://www.w3.org/2000/svg" width="56" height="55" fill="none" viewBox="0 0 56 55">
  <defs>
    <clipPath id="a">
      <path fill="#fff" d="M0 .5h56v54H0z"/>
    </clipPath>
  </defs>
  <g clip-path="url(#a)">
    <path fill="#EAEAEA" d="M0 44.586V10.414a9.91 9.91 0 0 1 .75354-3.79431 9.91006 9.91006 0 0 1 2.14868-3.21677 9.90989 9.90989 0 0 1 3.21656-2.14904A9.90966 9.90966 0 0 1 9.91296.5H46.0861c2.6291.0008 5.1502 1.04557 7.0092 2.90463C54.9544 5.2637 55.9992 7.78489 56 10.414v34.172a9.91166 9.91166 0 0 1-.7528 3.7935A9.91241 9.91241 0 0 1 53.1 51.596a9.93027 9.93027 0 0 1-3.216 2.149c-.6.2484-1.223.4373-1.86.564a9.81157 9.81157 0 0 1-1.934.191H9.91699a9.8117 9.8117 0 0 1-1.93396-.191 9.91096 9.91096 0 0 1-3.57397-1.48 9.8111 9.8111 0 0 1-1.5-1.233 9.90663 9.90663 0 0 1-2.90003-7.01H0Z"/>
    <path fill="#ACC6E6" d="M42 54.5v-3H29v3h-1v-3H15v3h-1v-3H2.80591a9.99658 9.99658 0 0 1-.85083-1H14v-11H0v-1h14v-12H0v-1h14v-12H0v-1h14V.5h1v12h13V.5h1v12h13V.5h1v12h13v1H43v12h13v1H43v12h13v1H43v11h11.043a9.93885 9.93885 0 0 1-.8521 1H43v3h-1Zm-13-4h13v-11H29v11Zm-14 0h13v-11H15v11Zm14-12h13v-12H29v12Zm-14 0h13v-12H15v12Zm14-13h13v-12H29v12Zm-14 0h13v-12H15v12Z"/>
    <path fill="#1473E6" fill-rule="evenodd" d="M17.8185 38.872a18.3678 18.3678 0 0 1-3.7515-.352 10.74009 10.74009 0 0 1-2.659-.906.63124.63124 0 0 1-.2447-.2693.63068.63068 0 0 1-.0553-.3597v-4.4a.21838.21838 0 0 1 .0195-.1126.21867.21867 0 0 1 .0735-.0874.24397.24397 0 0 1 .1225-.022c.042.0033.0825.0174.1175.041.9622.6345 2.0143 1.121 3.121 1.443a12.7182 12.7182 0 0 0 3.4.481 5.3401 5.3401 0 0 0 3.017-.648c.274-.1705.5007-.4073.659-.6885.1584-.2812.2433-.5978.247-.9205a2.16798 2.16798 0 0 0-.3-1.129 3.2081 3.2081 0 0 0-1.036-.98 12.0806 12.0806 0 0 0-2.035-1l-1.849-.777a13.75257 13.75257 0 0 1-3.533-2.054 5.38884 5.38884 0 0 1-1.58-2.349 7.46734 7.46734 0 0 1-.482-2.7 6.80043 6.80043 0 0 1 1-3.626 6.35035 6.35035 0 0 1 2.783-2.572 11.23559 11.23559 0 0 1 4.884-.943c1.1079-.0052 2.2147.069 3.312.222a7.85148 7.85148 0 0 1 2.459.7.51124.51124 0 0 1 .1996.2029c.046.0851.067.1815.0604.2781v4.181a.253.253 0 0 1-.093.166c-.062.062-.142.056-.24-.018a10.32067 10.32067 0 0 0-2.59-.925 13.95103 13.95103 0 0 0-3.072-.333 7.61763 7.61763 0 0 0-1.813.185 4.48062 4.48062 0 0 0-1.2.462 1.7704 1.7704 0 0 0-.684.7c-.1438.2675-.22.5662-.222.87-.0054.378.1114.7477.333 1.054.3041.3793.6812.6939 1.109.925.6986.3995 1.4172.7629 2.153 1.089l1.37.518c1.368.5184 2.6524 1.235 3.812 2.127a6.50632 6.50632 0 0 1 1.923 2.442c.3738.8966.5622 1.8596.554 2.831a6.46717 6.46717 0 0 1-1.164 3.829 7.44858 7.44858 0 0 1-3.244 2.537c-1.5502.6237-3.211.9259-4.8815.888ZM42.448 20.743a8.59968 8.59968 0 0 0-4.421-1c-1.0116.0019-2.02.0949-3.015.278-.9181.1344-1.8154.3854-2.67.747a.39984.39984 0 0 0-.1984.1598.4006.4006 0 0 0-.0616.2472v3.736a.16884.16884 0 0 0 .0229.1121.1689.1689 0 0 0 .0891.0719c.0715.025.1495.025.221 0 .7014-.2783 1.4291-.485 2.172-.617a12.88225 12.88225 0 0 1 2.664-.259 5.69313 5.69313 0 0 1 1.832.24c.3921.1234.752.3321 1.054.611.2308.2207.4027.4958.5.8.0722.2092.1159.4271.13.648v.222a6.1644 6.1644 0 0 0-.833-.037h-1.35a12.97565 12.97565 0 0 0-4.329.666 6.5642 6.5642 0 0 0-2.978 2 5.07929 5.07929 0 0 0-1.092 3.33 5.60012 5.60012 0 0 0 1.036 3.478 6.17955 6.17955 0 0 0 2.719 2.035c1.1985.4578 2.4731.6838 3.756.666.8655.0023 1.7304-.0471 2.59-.148.851-.1063 1.6922-.2795 2.516-.518.8633-.2467 1.85-.58 2.96-1 .049-.024.074-.085.074-.185-.024-.442-.0423-.8737-.055-1.295-.0127-.4214-.019-.8654-.019-1.332v-7.146a8.73138 8.73138 0 0 0-.814-3.811 6.20693 6.20693 0 0 0-2.5-2.7Zm-1.363 9.878v3.922l-.001.004c-.4594.1046-.9241.1847-1.392.24a8.113 8.113 0 0 1-1.258.093 4.62758 4.62758 0 0 1-1.832-.314 2.27626 2.27626 0 0 1-1.035-.8 1.91373 1.91373 0 0 1-.315-1.073 1.89246 1.89246 0 0 1 .2067-.9214c.1457-.2847.3612-.5278.6263-.7066a5.06168 5.06168 0 0 1 2.83-.592c.395 0 .73.012 1 .037.0757.007.1773.0149.291.0238.2918.0229.6631.0519.879.0872Z" clip-rule="evenodd"/>
  </g>
</svg>
