<svg xmlns="http://www.w3.org/2000/svg" width="56" height="55" fill="none" viewBox="0 0 56 55">
  <defs>
    <clipPath id="a">
      <path fill="#fff" d="M0 .5h56.0002v54H0z"/>
    </clipPath>
  </defs>
  <g clip-path="url(#a)">
    <path fill="#EAEAEA" d="M46.0862.5H9.91383C4.43857.5 0 4.93857 0 10.4138v34.1724C0 50.0614 4.43857 54.5 9.91383 54.5H46.0862C51.5614 54.5 56 50.0614 56 44.5862V10.4138C56 4.93857 51.5614.5 46.0862.5Z"/>
    <path fill="#ACC6E6" d="M56.0002 38.575H.00024v.8H56.0002v-.8Zm0-26.95H.00024v.825H56.0002v-.825Zm0 12.9624H.00024v.8501H56.0002v-.8501Zm-2.82 26.9226c-.3499.36-.73.555-1.1299.865H3.95019c-.3999-.31-.78003-.505-1.12988-.865H53.1802Z"/>
    <path fill="#ACC6E6" d="M13.9377.69995h-.8125V54.4375h.8125V.69995Zm14.9375 0h-.8437V54.4375h.8437V.69995Zm14.0625 0h-.8125V54.4375h.8125V.69995Z"/>
    <path fill="#1473E6" d="M26.7737 31.5837c0 4.4934-3.6294 7.2781-9.3076 7.2781-2.7359 0-5.0274-.4883-6.5557-1.2912-.209-.1087-.2749-.2776-.2749-.5865v-4.4192c0-.174.1401-.2749.314-.1716 2.0283 1.2805 4.4716 1.9321 6.7021 1.9321 2.7876 0 3.9116-.9719 3.9116-2.2663 0-1.1714-.8447-2.043-3.3715-3.1194l-1.8389-.751c-4.5674-1.9197-5.8023-4.2165-5.8023-7.1152 0-4.0117 2.9986-7.1712 8.8931-7.1712 2.3291 0 4.4629.2837 5.7666.9598.1792.0981.2412.238.2412.4858V19.5c0 .1277-.1157.3076-.3442.1746-1.4683-.846-3.5088-1.2383-5.6768-1.2383-2.854 0-3.8618.9902-3.8618 2.2016 0 1.1399.7905 1.9082 3.5381 3.0381l1.3701.5555c4.9287 2.0061 6.2969 4.363 6.2969 7.3522Zm19.8384 7.9598c0 3.841-3.7593 6.9348-9.7119 6.9348-6.19 0-8.9146-3.042-8.9146-5.7202 0-1.175.9583-2.6517 3.4072-4.7081-.5393-.824-.7861-1.7913-.7714-2.7653.02-.8623.2641-1.7008.7009-2.4183-1.5156-.9624-2.5652-2.4994-2.5652-4.7792 0-3.5533 2.7769-6.3311 7.5688-6.3311 1.3594 0 2.6812.1306 3.5035.2737.3452.0693.6435.0813.8896.0813h5.0816c.1816 0 .2475.0688.2475.248v3.4617c0 .1792-.0659.2529-.248.2529-.5459 0-1.7798-.0981-2.5694-.196.3125.5256.5615 1.2866.5615 2.4009 0 3.9446-3.2016 5.9079-7.3134 5.9079-.4124 0-.8286-.0236-1.2434-.0659-.1026.2963-.1453.6421-.0921.9837.0474.3336.1829.6491.4165.9409l3.7901.174c5.3037.2515 7.2622 2.4131 7.2622 5.3243ZM33.7537 25.9993c0 1.4279.894 2.5156 2.5952 2.5156 1.6552 0 2.5766-.9092 2.5766-2.4168 0-1.5439-.7641-2.6704-2.5805-2.6704-1.5987 0-2.5913.9402-2.5913 2.5716Zm8.1655 14.3357c0-1.3389-1.6138-1.7293-3.709-1.8165l-4.0869-.1774c-.833.5898-1.4072 1.5944-1.4072 1.9912 0 1.1379 1.6103 2.3916 4.5141 2.3916 3.2945 0 4.689-1.1656 4.689-2.3889Z"/>
  </g>
</svg>
