<svg xmlns="http://www.w3.org/2000/svg" width="56" height="55" fill="none" viewBox="0 0 56 55">
  <defs>
    <clipPath id="a">
      <path fill="#fff" d="M0 .5h56.0002v54H0z"/>
    </clipPath>
  </defs>
  <g clip-path="url(#a)">
    <path fill="#EAEAEA" d="M46.0862.5H9.91383C4.43857.5 0 4.93857 0 10.4138v34.1724C0 50.0614 4.43857 54.5 9.91383 54.5H46.0862C51.5614 54.5 56 50.0614 56 44.5862V10.4138C56 4.93857 51.5614.5 46.0862.5Z"/>
    <path fill="#ACC6E6" d="M56.0002 38.575H.00018v.8H56.0002v-.8Zm0-26.95H.00018v.825H56.0002v-.825Zm0 12.9624H.00018v.8501H56.0002v-.8501ZM53.1801 51.51c-.3498.36-.73.555-1.1299.865H3.95013c-.3999-.31-.78003-.505-1.12988-.865H53.1801Z"/>
    <path fill="#ACC6E6" d="M13.9377.69995h-.8125V54.4375h.8125V.69995Zm14.9375 0h-.8438V54.4375h.8438V.69995Zm14.0625 0h-.8125V54.4375h.8125V.69995Z"/>
    <path fill="#1473E6" d="M34.0184 15.9915c-1.013-2.3953-3.3576-3.953-5.9607-3.953s-4.9708 1.5623-5.9816 3.9646l-8.1853 19.4931c-1.1216 2.663.8307 5.6076 3.72 5.6076h9.1153c2.2385-.0046 4.05-1.8207 4.05-4.0615 0-2.2408-1.8184-4.0615-4.0615-4.0615-.0923 0-1.5577.0115-1.5577.0115-.66 0-1.1054-.6715-.8492-1.2808l2.9054-6.923c.3161-.7524 1.3476-.757 1.6661-.0047l5.9285 13.86c.8138 1.8505 2.3637 2.454 3.7292 2.4577 2.8962 0 4.8485-2.9492 3.72-5.6146l-8.2385-19.4954Z"/>
  </g>
</svg>
