<svg xmlns="http://www.w3.org/2000/svg" width="56" height="55" fill="none" viewBox="0 0 56 55">
  <defs>
    <clipPath id="a">
      <path fill="#fff" d="M0 .5h56.0002v54H0z"/>
    </clipPath>
  </defs>
  <g clip-path="url(#a)">
    <path fill="#EAEAEA" d="M46.0862.5H9.91383C4.43857.5 0 4.93857 0 10.4138v34.1724C0 50.0614 4.43857 54.5 9.91383 54.5H46.0862C51.5614 54.5 56 50.0614 56 44.5862V10.4138C56 4.93857 51.5614.5 46.0862.5Z"/>
    <path fill="#ACC6E6" d="M56.0002 38.575H.00024v.8H56.0002v-.8Zm0-26.95H.00024v.825H56.0002v-.825Zm0 12.9624H.00024v.8501H56.0002v-.8501Zm-2.82 26.9226a9.6386 9.6386 0 0 1-1.1299.865H3.95019a9.63672 9.63672 0 0 1-1.12988-.865H53.1802Z"/>
    <path fill="#ACC6E6" d="M13.9377.69995h-.8125V54.4375h.8125V.69995Zm14.9375 0h-.8437V54.4375h.8437V.69995Zm14.0625 0h-.8125V54.4375h.8125V.69995Z"/>
    <path fill="#1473E6" d="m14.5703 38.5114-4.1474.011c-.1899 0-.2849-.1085-.285-.3254l.0552-22.9798c0-.2169.0717-.3254.2132-.3254.8273-.0239 1.683.012 2.275 0l1.7051-.0377c.5454-.0122 1.1083-.018 1.6886-.0174h1.9367c1.7103-.0493 3.4134.24 5.0114.8512a6.47415 6.47415 0 0 1 3.1523 2.5245 6.4748 6.4748 0 0 1 1.043 3.9015 6.395 6.395 0 0 1-.569 2.7116 6.81131 6.81131 0 0 1-1.5627 2.15 7.65314 7.65314 0 0 1-2.3099 1.4661c.2372.3114.569.7878.9955 1.4294.4265.6415.8944 1.3533 1.4036 2.1352.5098.7844 1.0194 1.5746 1.5286 2.3706.5092.7961.9713 1.5314 1.3862 2.2061.4136.6756.7289 1.1104.9421 1.4955a.39489.39489 0 0 1 .0749.1356c.0158.0497.0216.102.017.154a.14681.14681 0 0 1-.0434.1034.14677.14677 0 0 1-.1036.0427h-5.1732a.72098.72098 0 0 1-.3199-.0542.45939.45939 0 0 1-.1783-.1627c-.262-.3851-.5856-.7969-.9771-1.4238-.3916-.6269-.8062-1.3273-1.2446-2.0995-.4385-.7722-.8779-1.5213-1.3163-2.2695-.4385-.7482-.8273-1.4238-1.1545-2.0268a2.4065 2.4065 0 0 0-.4081-.489.69838.69838 0 0 0-.444-.1268h-2.9175l.0091 8.3296c-.0005.2133-.0949.32-.283.32Zm.2758-12.9275h3.0627a7.03167 7.03167 0 0 0 2.3283-.3438 3.07997 3.07997 0 0 0 1.5112-1.0681 2.96665 2.96665 0 0 0 .5331-1.8099 2.60985 2.60985 0 0 0-.2693-1.3715 2.6092 2.6092 0 0 0-.9385-1.0358 6.06055 6.06055 0 0 0-3.1997-.7427c-.5681 0-1.0954.0058-1.5819.0174-.4854.012-1.1591.0304-1.444.0543l-.0019 6.3001Zm31.9366-4.7279v13.4725c0 .592.0058 1.1193.0175 1.5819.0116.4627.0352 1.0903.0708 1.4329.0355.3432.0661.6336.0919.8714.0239.1899-.0591.2849-.2491.2849h-3.5747a.4177.4177 0 0 1-.254-.0548.41888.41888 0 0 1-.1726-.1943c-.0513-.1815-.093-.5906-.125-.7765a3.27066 3.27066 0 0 1-.0533-.5515 6.34141 6.34141 0 0 1-2.4882 1.3686 9.62475 9.62475 0 0 1-2.4533.3383 7.35287 7.35287 0 0 1-2.4-.3741 4.68894 4.68894 0 0 1-1.8835-1.2078 4.45406 4.45406 0 0 1-.9688-1.9211 11.99244 11.99244 0 0 1-.2472-3.401V20.8541a.25185.25185 0 0 1 .0478-.1867.25238.25238 0 0 1 .1659-.0982.22974.22974 0 0 1 .0712 0h3.9341a.25192.25192 0 0 1 .1866.0476c.0535.04.0888.0996.0984.1656a.23296.23296 0 0 1 0 .0717v10.3087a3.80222 3.80222 0 0 0 .6021 2.3311c.2643.2977.5953.5286.9659.6738.3707.1452.7704.2006 1.1666.1618a4.04477 4.04477 0 0 0 1.4927-.2666 4.70241 4.70241 0 0 0 1.2437-.7289V20.856c0-.1661.1066-.2492.3199-.2492H46.53a.22172.22172 0 0 1 .1649.0394.22144.22144 0 0 1 .0887.1445.20442.20442 0 0 1-.0009.0653Z"/>
  </g>
</svg>
