<svg xmlns="http://www.w3.org/2000/svg" width="56" height="55" fill="none" viewBox="0 0 56 55">
  <defs>
    <clipPath id="a">
      <path fill="#fff" d="M.00018.5h56.0002v54H.00018z"/>
    </clipPath>
  </defs>
  <g clip-path="url(#a)">
    <path fill="#EAEAEA" d="M46.0864.5H9.91401C4.43876.5.00018 4.93857.00018 10.4138v34.1724c0 5.4752 4.43858 9.9138 9.91383 9.9138H46.0864c5.4752 0 9.9138-4.4386 9.9138-9.9138V10.4138C56.0002 4.93857 51.5616.5 46.0864.5Z"/>
    <path fill="#ACC6E6" d="M56.0004 38.575H.00037v.8H56.0004v-.8Zm0-26.95H.00037v.825H56.0004v-.825Zm0 12.9624H.00037v.8501H56.0004v-.8501ZM53.1803 51.51a9.6386 9.6386 0 0 1-1.1299.865H3.95031a9.63672 9.63672 0 0 1-1.12988-.865H53.1803Z"/>
    <path fill="#ACC6E6" d="M13.9379.69995h-.8125V54.4375h.8125V.69995Zm14.9375 0h-.8438V54.4375h.8438V.69995Zm14.0625 0h-.8125V54.4375h.8125V.69995Z"/>
    <path fill="#1473E6" d="M11.6359 38.0397V14.3966c0-.1723.0742-.259.2221-.259.3941 0 .8627-.0062 1.4058-.0185.5425-.0122 1.1284-.0245 1.7578-.0369.6289-.0122 1.2949-.0246 1.9981-.0371a122.539 122.539 0 0 1 2.0903-.0186 13.90326 13.90326 0 0 1 4.7358.7032 8.22058 8.22058 0 0 1 3.0899 1.887 7.24005 7.24005 0 0 1 1.6836 2.6084c.3457.9548.5209 1.963.5175 2.9785a8.22008 8.22008 0 0 1-1.3691 4.884 7.72992 7.72992 0 0 1-3.6997 2.7934 14.72114 14.72114 0 0 1-5.1802.8697c-.543 0-.9251-.0062-1.1465-.0186-.2221-.0122-.5551-.0184-.999-.0185v7.289a.29326.29326 0 0 1-.0122.1347.29397.29397 0 0 1-.0711.115.29437.29437 0 0 1-.2497.0833h-4.5141c-.1729 0-.2593-.0986-.2593-.2959Zm5.1064-19.4622v7.659c.3203.0249.6162.0372.8877.0371h1.2207a8.72742 8.72742 0 0 0 2.6455-.3699 3.98999 3.98999 0 0 0 1.8877-1.2212 3.5528 3.5528 0 0 0 .7212-2.3679 3.74017 3.74017 0 0 0-.5366-2.0349 3.4514 3.4514 0 0 0-1.6093-1.3135 6.85587 6.85587 0 0 0-2.7012-.4626c-.5918 0-1.1159.0061-1.5723.0185-.457.0127-.7715.0312-.9434.0554ZM43.54 24.9232a13.0489 13.0489 0 0 0-2.6657-.7769 11.68592 11.68592 0 0 0-2.5712-.2961 4.79282 4.79282 0 0 0-1.3877.1665c-.2877.064-.5434.2279-.7217.4626-.1204.1877-.1845.406-.1846.6289a.98287.98287 0 0 0 .2217.5921c.2163.2528.4805.4603.7773.6106.5275.284 1.0711.5372 1.628.7583 1.2416.4158 2.4281.9811 3.5332 1.6836a5.37495 5.37495 0 0 1 1.813 1.9055c.3677.7343.5518 1.5468.5366 2.3679a5.31476 5.31476 0 0 1-.8882 3.0525 5.83686 5.83686 0 0 1-2.5713 2.0535 10.35049 10.35049 0 0 1-4.1626.7402 15.05313 15.05313 0 0 1-3.1264-.2961 11.46252 11.46252 0 0 1-2.4981-.74.4791.4791 0 0 1-.2588-.4441v-3.9959a.21804.21804 0 0 1 .0182-.1146.2179.2179 0 0 1 .0746-.089.17958.17958 0 0 1 .1045-.0224.17887.17887 0 0 1 .0986.041 10.8096 10.8096 0 0 0 2.9976 1.1284 11.7411 11.7411 0 0 0 2.7012.3515 4.1475 4.1475 0 0 0 1.9052-.333c.1839-.0841.3395-.2197.4478-.3904a1.046 1.046 0 0 0 .1626-.5715 1.2241 1.2241 0 0 0-.5547-.925 9.1973 9.1973 0 0 0-2.2573-1.073 13.60232 13.60232 0 0 1-3.2744-1.665 5.6384 5.6384 0 0 1-1.7388-1.9423 5.09703 5.09703 0 0 1-.5371-2.3497 5.30393 5.30393 0 0 1 .7773-2.7749 5.66317 5.66317 0 0 1 2.368-2.1752 8.7469 8.7469 0 0 1 4.0122-.9916c.966-.0179 1.932.0384 2.8894.1686a10.6482 10.6482 0 0 1 2.443.8151.33527.33527 0 0 1 .1348.0757.3353.3353 0 0 1 .0868.128c.0251.0903.0376.1836.0371.2773v3.7371a.2476.2476 0 0 1-.0258.1257.24803.24803 0 0 1-.085.0962.24299.24299 0 0 1-.1297.0375.24275.24275 0 0 1-.1296-.0376Z"/>
  </g>
</svg>
