<svg xmlns="http://www.w3.org/2000/svg" width="56" height="55" fill="none" viewBox="0 0 56 55">
  <defs>
    <clipPath id="a">
      <path fill="#fff" d="M-.00024.5h56.0002v54H-.00024z"/>
    </clipPath>
  </defs>
  <g clip-path="url(#a)">
    <path fill="#EAEAEA" d="M46.0859.5H9.91359C4.43833.5-.00024 4.93857-.00024 10.4138v34.1724c0 5.4752 4.43857 9.9138 9.91383 9.9138H46.0859c5.4753 0 9.9139-4.4386 9.9139-9.9138V10.4138C55.9998 4.93857 51.5612.5 46.0859.5Z"/>
    <path fill="#ACC6E6" d="M56 38.575H0v.8h56v-.8Zm0-26.95H0v.825h56v-.825Zm0 12.9624H0v.8501h56v-.8501ZM53.1799 51.51a9.63027 9.63027 0 0 1-1.1299.865H3.94995a9.63588 9.63588 0 0 1-1.12988-.865H53.1799Z"/>
    <path fill="#ACC6E6" d="M13.9375.69995h-.8125V54.4375h.8125V.69995Zm14.9375 0h-.8438V54.4375h.8438V.69995Zm14.0625 0h-.8125V54.4375h.8125V.69995Z"/>
    <path fill="#1473E6" d="M13.0695 38.1647V14.5216c0-.1723.0742-.259.2221-.259.394 0 .6788-.0058 1.2218-.0185.5425-.0122 1.1284-.0245 1.7578-.0369.6289-.0122 1.2949-.0246 1.998-.0371a122.539 122.539 0 0 1 2.0903-.0186 13.90383 13.90383 0 0 1 4.7359.7032 8.21942 8.21942 0 0 1 3.0898 1.887 7.24005 7.24005 0 0 1 1.6836 2.6084c.3458.9548.521 1.963.5176 2.9785a8.21946 8.21946 0 0 1-1.3692 4.884 7.72992 7.72992 0 0 1-3.6997 2.7934 14.72059 14.72059 0 0 1-5.1801.8697c-.543 0-.9252-.0062-1.1465-.0186-.2222-.0122-.5552-.0184-.999-.0185v7.289a.29598.29598 0 0 1-.0122.1347.29513.29513 0 0 1-.0711.115.29513.29513 0 0 1-.115.0711.29461.29461 0 0 1-.1347.0122h-4.3301c-.1729 0-.2593-.0986-.2593-.2959Zm4.9224-19.4622v7.659c.3203.0249.6162.0372.8877.0371h1.2207a8.72742 8.72742 0 0 0 2.6455-.3699 3.98999 3.98999 0 0 0 1.8877-1.2212 3.5528 3.5528 0 0 0 .7212-2.3679 3.74017 3.74017 0 0 0-.5366-2.0349 3.4514 3.4514 0 0 0-1.6093-1.3135 6.85587 6.85587 0 0 0-2.7012-.4626c-.5918 0-1.1159.0061-1.5723.0185-.457.0127-.7715.0312-.9434.0554Zm16.0755 1.5358h4.0332c.1094.001.2155.0376.3023.1043.0867.0668.1492.16.1781.2656.0883.1621.1508.3368.1856.5181.0514.238.0883.4789.1103.7214.0244.259.0368.5365.0371.8325a8.65497 8.65497 0 0 1 2.461-1.9795 6.27297 6.27297 0 0 1 3.2483-.8325.29445.29445 0 0 1 .1347.0121.2955.2955 0 0 1 .1151.0711.29478.29478 0 0 1 .0711.1151.29445.29445 0 0 1 .0121.1347v4.477c0 .1728-.1234.2592-.3701.259a7.84074 7.84074 0 0 0-2.2493.1665 9.10306 9.10306 0 0 0-1.9238.6103 5.62946 5.62946 0 0 0-1.5166.8511v11.6833c0 .2219-.0988.3329-.2964.333h-4.1997a.32804.32804 0 0 1-.1498-.0134.32755.32755 0 0 1-.1279-.079.3277.3277 0 0 1-.0791-.128.32804.32804 0 0 1-.0134-.1498V25.5293c0-.5424-.0061-1.116-.0185-1.7207a89.10132 89.10132 0 0 0-.0557-1.7944 11.70607 11.70607 0 0 0-.1474-1.5169.28974.28974 0 0 1 .0551-.2036.28772.28772 0 0 1 .2037-.0554Z"/>
  </g>
</svg>
