<svg xmlns="http://www.w3.org/2000/svg" width="56" height="55" fill="none" viewBox="0 0 56 55">
  <defs>
    <clipPath id="a">
      <path fill="#fff" d="M0 .5h56v54H0z"/>
    </clipPath>
  </defs>
  <g clip-path="url(#a)">
    <path fill="#000B1D" d="M46.0862.5H9.91383C4.43857.5 0 4.93857 0 10.4138v34.1724C0 50.0614 4.43857 54.5 9.91383 54.5H46.0862C51.5614 54.5 56 50.0614 56 44.5862V10.4138C56 4.93857 51.5614.5 46.0862.5Z"/>
    <path fill="#fff" d="M13.0317 15.0162c0-.2261.034-.3243.2289-.3606 1.2483-.0385 4.8013-.1087 7.3948-.1087 7.6958 0 8.965 3.9583 8.965 6.351 0 2.4628-1.296 3.9244-2.1992 4.5886 1.3209.6705 3.3677 2.2571 3.3677 5.5583 0 4.4199-3.8455 7.378-10.0895 7.3639-3.4938.0024-6.0672-.0361-7.4244-.0724-.1783-.0363-.2433-.1422-.2433-.318V15.0162Zm4.9236 8.8713h2.4669c1.2367 0 2.6943.1016 3.2304.1836.6418-.5685 1.0676-1.2566 1.0676-2.4726 0-1.8422-1.3519-2.8033-4.1069-2.8033-1.1397 0-1.8675.0361-2.658.0438v5.0486-.0001Zm0 10.2647c.7819.0315 1.5723.0724 2.6666.0676 3.091.012 4.9566-1.0057 4.9566-3.0814 0-1.2465-.5218-2.2883-2.2097-2.7189-.5964-.1531-1.3763-.2282-2.2905-.2282h-3.123v5.9609Zm20.4985-13.8105c.2356 0 .3459.0979.4396.3216.1749.4779.3431 1.2355.3833 2.0279 1.1956-1.4246 3.2051-2.7017 5.7603-2.7017.2285 0 .2963.0626.2963.2934v4.4206c0 .1995-.0697.2645-.3292.2645-2.6183-.0975-4.6971.6753-5.4866 1.5641l-.0019 11.5043c0 .2304-.0984.2999-.3264.2999H34.818c-.2638 0-.3593-.0965-.3593-.3333V25.526c0-1.5677-.0459-3.6592-.1874-4.9368-.0028-.1828.0574-.2475.2428-.2475h3.9397Z"/>
  </g>
</svg>
