<svg xmlns="http://www.w3.org/2000/svg" width="57" height="55" fill="none" viewBox="0 0 57 55">
  <defs>
    <clipPath id="a">
      <path fill="#fff" d="M.3844.5h56v54h-56z"/>
    </clipPath>
  </defs>
  <g clip-path="url(#a)">
    <path fill="#DBDCDD" d="M10.2844.5h36.2c5.5 0 9.9 4.4 9.9 9.9v34.2c0 5.5-4.4 9.9-9.9 9.9h-36.2c-5.5 0-9.9-4.4-9.9-9.9V10.4c0-5.5 4.4-9.9 9.9-9.9Z"/>
    <path fill="#510F17" d="m27.3808 33.426 6.4345 11.1619a17.92423 17.92423 0 0 0 7.0614-4.226 17.9241 17.9241 0 0 0 4.4288-6.9359H27.3808Zm1.0085-23.85103a17.6235 17.6235 0 0 0-3.2829.30334l8.9991 15.59389L40.54 14.3247c-3.3063-3.0589-7.6464-4.75543-12.1507-4.74973Zm13.611 6.28483L33.0379 31.388h12.8388a17.884 17.884 0 0 0-.1042-8.222 17.88466 17.88466 0 0 0-3.7722-7.3062ZM22.7887 29.5495l-6.4753 11.2026a17.91296 17.91296 0 0 0 7.216 4.0039c2.6842.7549 5.5075.8726 8.2452.344l-8.9859-15.5505Zm-11.9-5.9263c-.6057 2.727-.5632 5.558.1239 8.2656a17.85934 17.85934 0 0 0 3.8327 7.3243l8.9965-15.5938-12.9531.0039Zm12.1468-13.2301a17.94669 17.94669 0 0 0-7.1019 4.2281 17.94775 17.94775 0 0 0-4.4539 6.9627h18.0297l-6.4739-11.1908Z"/>
  </g>
</svg>
