<svg xmlns="http://www.w3.org/2000/svg" width="56" height="55" fill="none" viewBox="0 0 56 55">
  <defs>
    <clipPath id="a">
      <path fill="#fff" d="M-.00024.5h56v54h-56z"/>
    </clipPath>
  </defs>
  <g clip-path="url(#a)">
    <path fill="#000B1D" d="M46.0859.5H9.91359C4.43833.5-.00024 4.93857-.00024 10.4138v34.1724c0 5.4752 4.43857 9.9138 9.91383 9.9138H46.0859c5.4753 0 9.9139-4.4386 9.9139-9.9138V10.4138C55.9998 4.93857 51.5612.5 46.0859.5Z"/>
    <path fill="#fff" d="M26.9457 37.4829c0 .2451-.0708.4368-.2793.5078-1.2133.461-3.0849.6641-5.1567.6641-7.1826 0-12.77832-4.2271-12.77832-12.3574 0-7.4925 5.18262-12.6021 13.37352-12.6021 2.3472 0 3.8472.1873 4.8169.6294.1817.0713.2481.2068.2481.4448v4.0259c0 .3145-.1719.3191-.3145.2476-1.2305-.5747-2.9736-.804-4.8423-.804-4.9448 0-7.9682 3.0725-7.9682 7.8987 0 5.749 4.2187 7.9368 8.0918 7.9368 1.8183 0 3.1762-.1375 4.5219-.5914.1787-.0708.2871-.0419.2871.1839v3.8159Zm18.8296-10.4353v7.1555c0 .937.0049 1.7242.0811 2.6101 0 .0711 0 .1375-.0742.1744-3.2393 1.2754-5.3921 1.6672-8.0752 1.6672-4.1143 0-7.4766-1.8882-7.4766-6.1792 0-3.9253 3.4731-6.0002 8.3936-6.0002.9726 0 1.8212.0341 2.1748.0717v-.2326c0-.7097-.461-2.3242-3.5538-2.3242-1.8701 0-3.5029.3662-4.9091.998-.1426.071-.3116.0002-.3116-.2131v-3.7256c0-.179.0415-.2852.2427-.3809 1.6494-.7639 3.7661-1.1196 5.8086-1.1196 5.3296 0 7.6997 3.2847 7.6997 7.4985Zm-4.9765 3.3367c-.6074-.074-1.1255-.1111-1.8692-.1111-2.6132 0-3.6933.8555-3.6933 2.1929 0 1.2185.9179 2.1926 3.251 2.1926.8569 0 1.6064-.0898 2.3115-.3318v-3.9426Z"/>
  </g>
</svg>
