<svg xmlns="http://www.w3.org/2000/svg" width="56" height="55" fill="none" viewBox="0 0 56 55">
  <defs>
    <clipPath id="a">
      <path fill="#fff" d="M0 .5h56v54H0z"/>
    </clipPath>
  </defs>
  <g clip-path="url(#a)">
    <path fill="#00005B" d="M46.0862.5H9.91383C4.43857.5 0 4.93857 0 10.4138v34.1724C0 50.0614 4.43857 54.5 9.91383 54.5H46.0862C51.5614 54.5 56 50.0614 56 44.5862V10.4138C56 4.93857 51.5614.5 46.0862.5Z"/>
    <path fill="#99F" d="M26.5733 33.9574v3.8436c0 .2742-.0998.4479-.2985.5225-.5974.2239-1.3496.3918-2.2576.5037-.9085.1119-1.8846.1679-2.9297.1679-1.4429 0-3.0104-.1679-4.3162-.5037-1.3059-.3358-2.4946-.8455-3.5636-1.5299-1.0702-.6839-1.9908-1.5236-2.7617-2.5191-.7714-.9945-1.36835-2.1514-1.79091-3.4704-.42342-1.3182-.6347-2.8108-.6347-4.4778 0-2.5126.54707-4.7206 1.64206-6.6238 1.09415-1.9033 2.64945-3.3831 4.66455-4.4408 2.0148-1.057 4.4156-1.5858 7.2021-1.5858 1.144 0 2.1085.0501 2.892.1492.7839.0998 1.4364.249 1.9592.4477.124.0746.1865.2239.1865.4479v4.1048c0 .2238-.0872.2985-.2612.2238-.6221-.2984-1.3561-.516-2.2017-.6529-.8459-.1364-1.754-.2052-2.724-.2052-1.6672 0-3.0972.3358-4.2915 1.0074-1.1944.6718-2.1149 1.5989-2.7614 2.7802-.6472 1.1818-1.0573 2.494-1.0573 4.1107 0 1.1698.2422 2.2769.5532 3.1473.3111.8712.7401 1.6297 1.2876 2.2764.5471.6473 1.1692 1.1568 1.866 1.5299.6963.3733 1.4364.6531 2.2203.8397.7835.1865 1.7414.2798 2.4881.2798.9453 0 1.7848-.0373 2.5188-.1119.7336-.0746 1.4239-.2239 2.0711-.4477.0994-.0747.174-.0933.2239-.056.0495.0373.0746.1182.0746.2425Zm7.9964-8.8071v13.0488c0 .1994-.0876.2985-.2611.2985h-4.59c-.2239 0-.3358-.1119-.3358-.3358V12.4255c0-.1738.0989-.2614.2985-.2614h4.6273c.1735 0 .2611.0876.2611.2614l-.0373 8.8066c.6963-.4477 1.4369-.8145 2.2204-1.1009.7835-.2857 2.0165-.429 3.0611-.429.7215 0 1.4491.1119 2.1831.3357.7336.2239 1.4117.6159 2.0338 1.1755.6217.5599 1.1193 1.3189 1.4924 2.2763.3735.958.5601 2.1959.5601 3.713v10.9591c0 .2239-.0998.3358-.2985.3358h-4.5153c-.2491 0-.3731-.1243-.3731-.3731V27.7253c0-.7959-.1185-1.449-.3545-1.9592-.2368-.5096-.5596-.9015-.9705-1.1755-.4104-.2735-.9514-.4104-1.6229-.4104-.5727 0-1.4382.0809-1.9605.2425-.5228.162-.9957.4046-1.4183.7276Z"/>
  </g>
</svg>
