<svg xmlns="http://www.w3.org/2000/svg" width="56" height="55" fill="none" viewBox="0 0 56 55">
  <defs>
    <clipPath id="a">
      <path fill="#fff" d="M-.00024.5h56v54h-56z"/>
    </clipPath>
  </defs>
  <g clip-path="url(#a)">
    <path fill="#1E3101" d="M9.89976.5H46.0998c5.5 0 9.9 4.4 9.9 9.9v34.2c0 5.5-4.4 9.9-9.9 9.9H9.89976c-5.5 0-9.9-4.4-9.9-9.9V10.4c0-5.5 4.4-9.9 9.9-9.9Z"/>
    <path fill="#99E83F" fill-rule="evenodd" d="M32.9998 29.8008v.3c0 .6212.0787 1.1637.1663 1.7672.0112.0765.0224.154.0337.2328l-6.8 3.4c-.5.3-1.2.3-1.8 0l-13.5-6.8c-.7-.3-1.10004-1-1.10004-1.8v-9.2c0-.4.30004-.7.60004-.9l7.7-3.9c.6-.3 1.3-.3 1.9 0l5.3 2.7 5.3-2.7c.6-.3 1.3-.3 1.9 0l7.7 3.9c.4.2.6.5.6.9v6.2c-.7-.3-1.4-.4-2.1-.4v-4.2l-12.4 6.2v7.5l6.5-3.2Zm-20.9-2.9 12.4 6.2v-7.5l-12.4-6.2v7.5Zm28.9999 7.4988v1.2c0 .4.3.7.7.7 4.5.5 5.3 3.6 5.3 4.8v.8h-16.5v-.8c0-1.2.7-4.4 5.3-4.8.4-.1.7-.4.7-.8v-1.1c0-.2-.1-.4-.2-.5-.9-1.1-1.4-2.4-1.4-3.8 0-2.8 1.6-4.5 3.9-4.5s3.8 1.6 3.8 4.5c0 1.4-.5 2.7-1.4 3.8-.1.1-.2.3-.2.5Z" clip-rule="evenodd"/>
  </g>
</svg>
