<svg xmlns="http://www.w3.org/2000/svg" width="56" height="55" fill="none" viewBox="0 0 56 55">
  <defs>
    <clipPath id="a">
      <path fill="#fff" d="M-.00024.5h56v54h-56z"/>
    </clipPath>
  </defs>
  <g clip-path="url(#a)">
    <path fill="#1E3101" d="M46.0859.5H9.91359C4.43833.5-.00024 4.93857-.00024 10.4138v34.1724c0 5.4752 4.43857 9.9138 9.91383 9.9138H46.0859c5.4753 0 9.9139-4.4386 9.9139-9.9138V10.4138C55.9998 4.93857 51.5612.5 46.0859.5Z"/>
    <path fill="#99E83F" d="M8.01904 38.055V14.5068c0-.1723.08626-.2713.25923-.2961.37016-.0244.91282-.0428 1.62908-.0556.71565-.0121 1.55505-.0243 2.51775-.037.9626-.0121 1.9866-.0185 3.073-.0185 2.9621 0 5.4179.5062 7.3681 1.518 1.9496 1.0124 3.4121 2.4009 4.3874 4.1653.9749 1.7652 1.4626 3.7951 1.4626 6.0907 0 1.7773-.2534 3.3508-.759 4.7207-.5062 1.37-1.1975 2.549-2.0734 3.536-.8765.9875-1.8698 1.8085-2.9806 2.4621-1.1107.6544-2.2955 1.1357-3.5544 1.444-1.2588.309-2.5056.4629-3.7396.4629h-2.7584c-.9753 0-1.8825-.0064-2.7213-.0186-.83944-.0127-1.46882-.0312-1.88831-.0555-.14815 0-.22215-.1233-.22215-.3702Zm5.10956-19.4013v15.3285c.2713 0 .5183.0064.7405.0185.2221.0127.4501.0249.685.037.2342.0128.4997.0185.796.0185 1.209 0 2.3077-.1724 3.2953-.5183.9868-.3454 1.8327-.8637 2.5362-1.5551.7034-.6907 1.2461-1.5423 1.6291-2.5548.3824-1.0118.5739-2.1595.5739-3.4433 0-1.234-.1852-2.3141-.5554-3.2397-.3703-.9257-.9071-1.7032-1.6107-2.3326-.7034-.6295-1.5428-1.0922-2.5177-1.3885-.9753-.2961-2.0427-.4443-3.2027-.4443-.4941 0-.9071.0064-1.2404.0185-.3332.0128-.7098.0313-1.1291.0556Zm17.8199 19.4392V24.3195c0-.4194-.0064-.8887-.0186-1.407-.0127-.5184-.0312-1.0118-.0556-1.481-.0248-.4686-.0496-.8389-.074-1.1107-.0248-.0984-.0127-.1725.0371-.2222.0492-.0492.1232-.0741.2222-.0741h3.8506c.148 0 .2713.0249.3701.0741.0984.0497.1603.1359.1853.2592.0492.148.1046.3146.1665.4998.0613.1852.1048.4137.1296.6849.7405-.6415 1.5551-1.1165 2.4437-1.4254.8887-.3084 1.8142-.4628 2.777-.4628.7155 0 1.4375.1174 2.1659.3517.7277.2349 1.4006.6236 2.0179 1.1663.6167.5432 1.1106 1.2901 1.481 2.24.3703.9505.5553 2.1787.5553 3.6841v10.9965c0 .2221-.0989.3332-.2961.3332h-4.4802c-.2469 0-.3701-.1232-.3701-.3702V27.5407c0-.7648-.1111-1.3943-.3333-1.8883-.2221-.4935-.5368-.8759-.9442-1.1478-.4072-.2713-.932-.4073-1.5735-.4073-.6422 0-1.2218.1053-1.7403.3147-.5183.2101-.9753.4999-1.3698.8702v12.8107c0 .2221-.099.3332-.2962.3332h-4.5171c-.2221 0-.3332-.1111-.3332-.3332Z"/>
  </g>
</svg>
