<svg xmlns="http://www.w3.org/2000/svg" width="56" height="55" fill="none" viewBox="0 0 56 55">
  <defs>
    <clipPath id="a">
      <path fill="#fff" d="M0 .5h56v54H0z"/>
    </clipPath>
    <clipPath id="b">
      <path fill="#fff" d="M0 .5h56v54H0z"/>
    </clipPath>
  </defs>
  <g clip-path="url(#a)">
    <g clip-path="url(#b)">
      <path fill="#470137" d="M0 10.5C0 4.97715 4.47715.5 10 .5h36c5.5228 0 10 4.47715 10 10v34c0 5.5228-4.4772 10-10 10H10c-5.52285 0-10-4.4772-10-10v-34Z"/>
      <path fill="#FF61F6" d="M6.66724 38.1713V15.1261c0-.1826.03652-.2556.25565-.2922.98609-.0365 3.72521-.1095 6.53741-.1095 8.1078 0 12.0887 4.7843 12.0887 11.5043 0 9.0209-6.5739 12.3444-12.1252 12.3444-2.1913 0-5.4783 0-6.53743-.0731-.14609 0-.21913-.1095-.21913-.3287Zm4.82086-19.2104v15.3756c.6574.0366 1.1322.0731 1.8626.0731 4.2365 0 7.2313-2.8487 7.2313-8.0713 0-5.1496-2.9948-7.4139-7.1217-7.4139-.767 0-1.2783 0-1.9722.0365ZM46.1395 38.5H41.83c-.2922 0-.3652-.073-.4383-.2922-1.68-7.56-2.2643-10.8834-2.593-12.673h-.0366c-.7304 3.4696-1.4243 6.5009-3.0313 12.673-.073.2557-.1826.2922-.3652.2922h-4.273c-.3287 0-.4383-.0365-.4748-.2922l-4.4922-17.4939c-.073-.1826.0365-.3287.2557-.3287h4.4191c.1826 0 .2922.0731.3287.2557 1.7165 7.5965 2.2643 11.3948 2.4835 12.9287h.073c.2922-1.4609.9131-4.967 2.8122-12.8922.0365-.2191.073-.2922.3287-.2922h4.5287c.2191 0 .2556.0731.2922.2557 1.7895 7.9252 2.3374 11.6139 2.5565 13.0382h.073c.4018-2.1182.9131-5.953 2.5931-13.0382.0365-.1826.1095-.2557.2921-.2557h4.0905c.1461 0 .2922.0731.2191.2557l-4.9304 17.5669c-.1096.2192-.1461.2922-.4018.2922Z"/>
    </g>
  </g>
</svg>
