<svg xmlns="http://www.w3.org/2000/svg" width="56" height="55" fill="none" viewBox="0 0 56 55">
  <path fill="#EB1000" d="M46.0859.5H9.91359C4.43833.5-.00024 4.93857-.00024 10.4138v34.1724c0 5.4752 4.43857 9.9138 9.91383 9.9138H46.0859c5.4753 0 9.9139-4.4386 9.9139-9.9138V10.4138C55.9998 4.93857 51.5612.5 46.0859.5Z"/>
  <path fill="#fff" d="M43.2573 41.4167h-6.5456c-.6074 0-1.1261-.3468-1.3425-.8655l-7.067-16.5485c-.1278-.2998-.4693-.3024-.5996-.0078l-4.4285 11.0673c-.1042.2475.0775.5211.346.5211h4.8677c.3015 0 .5737.1803.6913.4579l2.0922 4.1581c.245.5787-.1799 1.2174-.8055 1.2174h-17.721c-.5656 0-.9541-.5631-.7377-1.1262l11.3109-26.839c.2189-.5631.782-.9515 1.4311-.9515h6.5013c.6492 0 1.2148.3884 1.4312.9515l11.3109 26.839c.2163.5631-.1721 1.1262-.7352 1.1262Z"/>
</svg>
