<svg xmlns="http://www.w3.org/2000/svg" width="56" height="55" fill="none" viewBox="0 0 56 55">
  <defs>
    <radialGradient id="b" cx="0" cy="0" r="1" gradientTransform="rotate(42.79 -15.38366 41.6014) scale(31.3802 30.6494)" gradientUnits="userSpaceOnUse">
      <stop stop-color="#28254A"/>
      <stop offset=".9833" stop-color="#03042B"/>
      <stop offset="1" stop-color="#03042B"/>
    </radialGradient>
    <clipPath id="a">
      <path fill="#fff" d="M-.00024.5h56v54h-56z"/>
    </clipPath>
  </defs>
  <g clip-path="url(#a)">
    <path fill="url(#b)" stroke="#AAA0FF" stroke-width="2" d="M9.89976 1.5H46.0998c4.9477 0 8.9 3.95228 8.9 8.9v34.2c0 4.9477-3.9523 8.9-8.9 8.9H9.89976c-4.94772 0-8.9-3.9523-8.9-8.9V10.4c0-4.94772 3.95228-8.9 8.9-8.9Z"/>
    <path fill="#DDD8FF" fill-rule="evenodd" d="M32.629 32.6061c.4999-.1282 1.0289-.0743 1.5606.1814.4641.2233.7706.586.8731 1.0559.0973.4459-.0026.9262-.2051 1.3882-.4046.9234-1.2975 1.9548-2.4892 2.9103-.5182.4154-1.1007.8228-1.7367 1.206.0177.103.0385.2029.0626.2993.2103.8415.6223 1.291 1.1924 1.3623 1.406.1759 2.7119-.6634 3.8032-1.6606.4413-.4032.8254-.8111 1.1555-1.1616.072-.0764.1414-.1501.2083-.2204.1811-.1905.3537-.3669.5036-.4937.0746-.0631.1596-.1279.2499-.1766.0792-.0426.2307-.1111.4139-.0835.1833.0279.354.1409.4364.334.0642.1506.0517.2982.0389.3824-.0267.1767-.1069.3792-.1836.5564-.066.1526-.1374.3055-.2103.4614-.1214.26-.2468.5284-.3576.8179-.0842.2202-.1477.4241-.1806.6038-.0337.1832-.03.3115-.0079.395.0181.0684.0479.1099.1065.1453.0726.0439.2206.0951.502.0966.0988.0004.3039-.0535.6059-.2014.2854-.1398.6052-.3376.9119-.5601.3067-.2225.5894-.4618.8035-.6798.2317-.236.3279-.3921.3453-.4486.0754-.2435.3338-.3798.5773-.3044.2435.0753.3798.3337.3045.5772-.0885.2861-.3288.5784-.5685.8225-.2573.262-.581.5342-.9201.7802-.339.2459-.7044.4737-1.0479.6419-.3269.1601-.6938.2967-1.016.2955-.3768-.002-.7096-.069-.9754-.2297-.2799-.1691-.4471-.4186-.5213-.6992-.0702-.2655-.0542-.5441-.0077-.7976.0472-.257.1317-.5195.2264-.767.0343-.0896.0717-.1814.1107-.2733-.2611.2726-.5575.5725-.881.8682-1.1206 1.024-2.7003 2.1252-4.5403 1.8951-1.1169-.1397-1.7201-1.0412-1.9733-2.0544a3.42947 3.42947 0 0 1-.0113-.046c-2.1697 1.1483-4.8377 1.9819-7.6532 1.9819h-8.3769c-.2549 0-.4615-.2066-.4615-.4615 0-.2548.2066-.4615.4615-.4615h8.3769c2.7729 0 5.4101-.8656 7.5131-2.0326-.0478-.7785.0359-1.6198.2221-2.4166.2706-1.1585.7741-2.2921 1.4831-3.0351.3578-.3751.7846-.6674 1.2763-.7935Zm-2.0709 5.7005c.4439-.2858.8565-.583 1.2329-.8849 1.1361-.9109 1.9013-1.8304 2.2213-2.5605.1598-.3647.1888-.6367.1486-.8211-.035-.1603-.1324-.3058-.3714-.4208-.3519-.1692-.6585-.1891-.9312-.1191-.2809.072-.5639.2495-.8378.5365-.5546.5812-1.0028 1.5407-1.2521 2.608-.1304.5581-.202 1.1267-.2103 1.6619Z" clip-rule="evenodd"/>
    <path fill="#AAA0FF" d="m31.13 13.2734-16.221 16.228-2.074 8.282 8.2771-2.0769 16.219-16.2281-6.2011-6.205Z"/>
  </g>
</svg>
