<svg xmlns="http://www.w3.org/2000/svg" width="56" height="55" fill="none" viewBox="0 0 56 55">
  <defs>
    <clipPath id="a">
      <path fill="#fff" d="M0 .5h56v54H0z"/>
    </clipPath>
    <clipPath id="b">
      <path fill="#fff" d="M0 .5h56v54H0z"/>
    </clipPath>
  </defs>
  <g clip-path="url(#a)">
    <g clip-path="url(#b)">
      <path fill="#001E36" d="M0 10.5C0 4.97715 4.47715.5 10 .5h36c5.5228 0 10 4.47715 10 10v34c0 5.5228-4.4772 10-10 10H10c-5.52285 0-10-4.4772-10-10v-34Z"/>
      <path fill="#31A8FF" d="M19.7684 29.26v8.9479c0 .2191-.1095.2921-.2922.2921h-4.5287c-.1826 0-.2556-.1095-.2556-.2921V14.8705c0-.1826.073-.2557.2922-.2557h14.4626c.2191 0 .2922.0731.3287.2922l.4017 3.9443c.0365.2192-.073.2922-.2922.2922H19.7684v5.5513h9.0939c.2192 0 .3287.0731.3287.2922v3.9809c0 .2191-.1095.2921-.2921.2921h-9.1305Zm13.006-8.8748h3.9809c.2191 0 .3287.0731.4383.2922.1826.5113.3287 1.2783.3652 2.0452 1.2052-1.4243 3.2504-2.7026 5.8069-2.7026.2557 0 .3287.0731.3287.2922v4.4557c0 .2191-.073.2556-.3652.2556-2.6295-.073-4.7113.6939-5.5148 1.607v11.5774c0 .2556-.1095.2921-.3287.2921h-4.4191c-.2556 0-.3652-.073-.3652-.3287V25.6079c0-1.607-.0365-3.6887-.1826-5.0035 0-.1826.073-.2192.2556-.2192Z"/>
    </g>
  </g>
</svg>
