<svg xmlns="http://www.w3.org/2000/svg" width="56" height="54" fill="none" viewBox="0 0 56 54">
  <path fill="#fff" d="M46.0862 0H9.91383C4.43857 0 0 4.43857 0 9.91383V44.0862C0 49.5614 4.43857 54 9.91383 54H46.0862C51.5614 54 56 49.5614 56 44.0862V9.91383C56 4.43857 51.5614 0 46.0862 0Z"/>
  <path fill="#464646" fill-rule="evenodd" d="M15.5766 37.4482c-1.0513 0-1.5766-.8522-1.5766-1.9035v-17.132c0-1.0513.5253-1.9035 1.5766-1.9035v20.939Zm-3.8071-2.8553c-1.0513 0-1.7695-.8523-1.7695-1.9035V21.268c0-1.0513.7182-1.9035 1.7695-1.9035v15.2284Zm27.6291-20.8937h-17.132c-2.6283 0-4.2666 2.0852-4.2666 4.7135v17.132c0 2.6282 1.6107 4.7589 4.239 4.7589h17.132c2.6283 0 4.629-2.108 4.629-4.7362v-17.132c0-2.6283-1.9731-4.7362-4.6014-4.7362ZM29.055 34.1239l-2.4709-.3145a1.04558 1.04558 0 0 0-.8996.3275l-1.6908 1.8292c-.1477.1599-.4134.0359-.386-.1799l.3148-2.4708a1.04557 1.04557 0 0 0-.3276-.8997l-1.829-1.6905c-.1599-.1478-.036-.4135.1798-.3859l2.4709.3145a1.0458 1.0458 0 0 0 .8996-.3274l1.6908-1.8294c.1477-.1597.4134-.0359.386.18l-.3148 2.4708c-.0426.3352.0794.6703.3276.8997l1.8292 1.6906c.1597.1476.0358.4133-.18.3858Zm10.2104-7.6418-3.8551-.4907c-.5228-.0665-1.0456.1237-1.4034.5109l-2.6381 2.854c-.2304.2494-.6451.0559-.6021-.2809l.4909-3.8547a1.63024 1.63024 0 0 0-.5109-1.4038l-2.8539-2.6377c-.2493-.2304-.0559-.6449.2808-.6022l3.855.4908a1.631 1.631 0 0 0 1.4037-.5109l2.638-2.854c.2304-.2493.6449-.0559.602.2808l-.4908 3.8549c-.0666.5229.1237 1.0459.5108 1.4037l2.854 2.6377c.2493.2303.0559.645-.2809.6021Z" clip-rule="evenodd"/>
</svg>
