<svg xmlns="http://www.w3.org/2000/svg" width="56" height="55" fill="none" viewBox="0 0 56 55">
  <defs>
    <clipPath id="a">
      <path fill="#fff" d="M0 .5h56v54H0z"/>
    </clipPath>
    <clipPath id="b">
      <path fill="#fff" d="M0 .5h56v54H0z"/>
    </clipPath>
  </defs>
  <g clip-path="url(#a)">
    <g clip-path="url(#b)">
      <path fill="#300" d="M0 10.5C0 4.97715 4.47715.5 10 .5h36c5.5228 0 10 4.47715 10 10v34c0 5.5228-4.4772 10-10 10H10c-5.52285 0-10-4.4772-10-10v-34Z"/>
      <path fill="#FF9A00" d="M27.453 32.8026h-8.4365l-1.7531 5.4053c-.073.2191-.2191.2921-.4382.2921h-4.2365c-.2557 0-.3287-.1095-.2557-.3652l7.3043-21.073c.1461-.3653.2922-.8035.3287-2.1913 0-.1826.1096-.2557.2557-.2557h5.807c.1826 0 .2556.0365.2921.1826l8.327 23.3739c.073.2192.0365.3287-.2191.3287h-4.7479c-.1826 0-.2921-.073-.4017-.2191l-1.8261-5.4783Zm-7.1217-4.5287h5.7339c-.6939-2.4104-2.1548-6.8295-2.8852-9.4591h-.0366c-.5843 2.4835-1.8626 6.5009-2.8121 9.4591Zm17.0251 9.8974V20.6774c0-.2191.1095-.2922.3287-.2922h4.4922c.2191 0 .2921.0366.2921.2922v17.4939c0 .2557-.073.3287-.3287.3287h-4.4191c-.2191 0-.3652-.073-.3652-.3287Zm2.593-19.7217c-1.7165 0-2.8487-1.1687-2.8487-2.8487s1.2052-2.8487 2.8852-2.8487c1.7531 0 2.8122 1.2052 2.8122 2.8487 0 1.7165-1.1687 2.8487-2.8487 2.8487Z"/>
    </g>
  </g>
</svg>
