<svg xmlns="http://www.w3.org/2000/svg" width="56" height="55" fill="none" viewBox="0 0 56 55">
  <defs>
    <clipPath id="a">
      <path fill="#fff" d="M0 .5h56v54H0z"/>
    </clipPath>
    <clipPath id="b">
      <path fill="#fff" d="M0 .5h56v54H0z"/>
    </clipPath>
  </defs>
  <g clip-path="url(#a)">
    <g clip-path="url(#b)">
      <path fill="#49021F" d="M0 10.5C0 4.97715 4.47715.5 10 .5h36c5.5228 0 10 4.47715 10 10v34c0 5.5228-4.4772 10-10 10H10c-5.52285 0-10-4.4772-10-10v-34Z"/>
      <path fill="#F36" d="M22.8086 14.9069v23.2644c0 .2556-.0731.3287-.2922.3287h-4.4556c-.2557 0-.3287-.0731-.3287-.3287V14.9069c0-.2556.1095-.2922.3287-.2922h4.4556c.1826 0 .2922.0731.2922.2922Zm17.0325 19.32v3.7618c0 .1826-.0365.2556-.1826.3287-1.1687.4382-2.6296.5478-4.0904.5478-5.9165 0-9.6052-3.9444-9.6052-9.3496 0-5.4782 4.0904-9.4956 10.2991-9.4956 1.8261 0 2.7756.1826 3.3965.4017.1461.073.1826.1826.1826.4017v3.7618c0 .2556-.1826.2556-.3287.2191-.6939-.2191-1.68-.4382-3.0678-.4382-3.0678 0-5.2591 1.68-5.2591 4.9669 0 3.7983 2.8121 5.04 5.3687 5.04 1.2782 0 2.4104-.1096 3.0313-.3287.1826-.073.2556.0365.2556.1826Z"/>
    </g>
  </g>
</svg>
