<svg xmlns="http://www.w3.org/2000/svg" width="56" height="55" fill="none" viewBox="0 0 56 55">
  <defs>
    <clipPath id="a">
      <path fill="#fff" d="M-.00024.5h56v54h-56z"/>
    </clipPath>
    <clipPath id="b">
      <path fill="#fff" d="M-.00024.5h56v54h-56z"/>
    </clipPath>
  </defs>
  <g clip-path="url(#a)">
    <g clip-path="url(#b)">
      <path fill="#49021F" d="M-.00024 10.5c0-5.52285 4.47715-10 10-10H45.9998c5.5228 0 10 4.47715 10 10v34c0 5.5228-4.4772 10-10 10H9.99975c-5.52284 0-10-4.4772-10-10v-34Z"/>
      <path fill="#F36" d="M20.821 14.9069v23.2644c0 .2557-.0731.3287-.2922.3287h-4.4557c-.2556 0-.3287-.073-.3287-.3287V14.9069c0-.2556.1096-.2921.3287-.2921h4.4557c.1826 0 .2922.073.2922.2921Zm13.4169 23.9583c-5.4053 0-9.5322-3.0313-9.5322-9.24 0-5.2591 3.9078-9.6052 10.5913-9.6052.2922 0 .6209 0 1.1687.0365v-7.1948c0-.1826.1095-.2556.2556-.2556h4.6383c.1461 0 .1826.073.1826.2191v21.5844c0 .8765.073 1.9721.1461 2.666 0 .2192-.0365.2922-.2191.3653-2.52 1.0591-4.967 1.4243-7.2313 1.4243Zm2.2278-4.5287v-9.9339c-.3652-.1096-.84-.1461-1.3513-.1461-2.7757 0-5.1861 1.68-5.1861 5.1131 0 3.6156 2.0817 5.186 4.8209 5.186.6208 0 1.2052-.073 1.7165-.2191Z"/>
    </g>
  </g>
</svg>
