<svg xmlns="http://www.w3.org/2000/svg" width="56" height="55" fill="none" viewBox="0 0 56 55">
  <defs>
    <clipPath id="a">
      <path fill="#fff" d="M-.00024.5h56v54h-56z"/>
    </clipPath>
    <clipPath id="b">
      <path fill="#fff" d="M-.00024.5h56v54h-56z"/>
    </clipPath>
  </defs>
  <g clip-path="url(#a)">
    <g clip-path="url(#b)">
      <path fill="#001E36" d="M-.00024 10.5c0-5.52285 4.47715-10 10-10H45.9998c5.5228 0 10 4.47715 10 10v34c0 5.5228-4.4772 10-10 10H9.99975c-5.52284 0-10-4.4772-10-10v-34Z"/>
      <path fill="#31A8FF" d="M6.37507 38.4964H19.1151c.1847 0 .2955-.037.3324-.2955l.6278-3.6189c.0369-.1846-.037-.2954-.2585-.2954h-9.1212V14.9365c0-.1847-.0369-.2954-.2585-.2954H6.33815c-.22157 0-.29543.1477-.29543.3323V38.164c0 .2585.07386.3324.33235.3324ZM26.3937 20.1802h-3.5451c-.2216 0-.2585.0739-.2585.2585.1477 1.1817.1846 2.9912.1846 4.9852v12.777c0 .2585.1108.2955.3324.2955h4.062c.1847 0 .2955-.037.2955-.2585V26.1625c.8124-.8863 2.7326-1.5879 5.0221-1.4771.1847 0 .2585-.0739.2585-.2585v-4.3205c0-.1847-.0369-.2585-.2215-.2585-2.1788 0-4.1359 1.1078-5.3176 2.6218-.0739-.8124-.2216-1.5879-.4062-2.031-.0739-.1477-.1847-.2585-.4062-.2585Zm23.3417 17.7595v-3.7905c0-.2393-.1107-.2393-.2954-.171-1.0709.3078-2.0679.4103-3.582.4103-3.2865 0-6.3405-1.3381-6.3405-6.9454 0-4.6842 2.1308-7.0008 6.3036-7.0008 1.514 0 2.9173.2052 3.8405.6155.1477.0683.2954.0341.2954-.2394v-3.8378c0-.2051-.0369-.3077-.2216-.3761-.7754-.3419-2.1418-.4786-3.9512-.4786-7.1271 0-11.1043 4.6841-11.1043 11.4197 0 7.7272 4.4204 11.2831 10.5504 11.2831 1.6248 0 3.2496-.1368 4.2467-.4787.1846-.0684.2584-.2052.2584-.4103Z"/>
    </g>
  </g>
</svg>
