<svg xmlns="http://www.w3.org/2000/svg" width="56" height="55" fill="none" viewBox="0 0 56 55">
  <defs>
    <clipPath id="a">
      <path fill="#fff" d="M0 .5h56v54H0z"/>
    </clipPath>
    <clipPath id="b">
      <path fill="#fff" d="M0 .5h56v54H0z"/>
    </clipPath>
  </defs>
  <g clip-path="url(#a)">
    <g clip-path="url(#b)">
      <path fill="#001E36" d="M0 10.5C0 4.97715 4.47715.5 10 .5h36c5.5228 0 10 4.47715 10 10v34c0 5.5228-4.4772 10-10 10H10c-5.52285 0-10-4.4772-10-10v-34Z"/>
      <path fill="#31A8FF" d="M29.6078 38.5H15.2182c-.2921 0-.3652-.1095-.3652-.4017V14.9435c0-.2191.0731-.3287.3287-.3287h4.4922c.1826 0 .2556.0731.2556.2557v19.0643h10.4453c.2556 0 .3287.1461.2921.2922l-.6939 3.9809c-.0365.2556-.1826.2921-.3652.2921Zm4.0054-18.1148h3.9809c.2191 0 .3287.0731.4382.2922.1827.5113.3287 1.2783.3653 2.0452 1.2052-1.4243 3.2504-2.7026 5.8069-2.7026.2557 0 .3287.0731.3287.2922v4.4557c0 .2191-.073.2556-.3652.2556-2.6296-.073-4.7113.6939-5.5148 1.607v11.5774c0 .2556-.1095.2921-.3287.2921h-4.4191c-.2557 0-.3652-.073-.3652-.3287V25.6079c0-1.607-.0365-3.6887-.1826-5.0035 0-.1826.073-.2192.2556-.2192Z"/>
    </g>
  </g>
</svg>
