<svg xmlns="http://www.w3.org/2000/svg" width="56" height="55" fill="none" viewBox="0 0 56 55">
  <defs>
    <clipPath id="a">
      <path fill="#fff" d="M0 .5h56v54H0z"/>
    </clipPath>
    <clipPath id="b">
      <path fill="#fff" d="M0 .5h56v54H0z"/>
    </clipPath>
  </defs>
  <g clip-path="url(#a)">
    <g clip-path="url(#b)">
      <path fill="#00005B" d="M0 10.5C0 4.97715 4.47715.5 10 .5h36c5.5229 0 10 4.47715 10 10v34c0 5.5228-4.4772 10-10 10H10c-5.52285 0-10-4.4772-10-10v-34Z"/>
      <path fill="#99F" d="M7.77899 14.8339c.03652-.2191.10956-.2191.29217-.2191h6.72004c.2556 0 .3287.0365.4017.2557 1.0226 3.6521 3.6157 13.3669 4.3096 16.9095h.0365c.7304-3.1408 3.7982-13.1113 4.8574-16.9095.0365-.1461.1095-.2557.3287-.2557h6.5739c.1826 0 .2556.0365.2922.2191l.913 23.374c.0365.2191-.1096.2921-.2922.2921h-4.7478c-.1826 0-.2556-.0365-.2556-.2556-.1096-7.487-.0731-17.6765-.0366-20.0139h-.0365c-.7669 3.6156-4.0174 15.0104-5.4052 19.9774-.0731.2556-.2191.2921-.3652.2921h-4.2c-.2557 0-.3287-.0365-.4018-.2556-1.3513-5.3322-3.8347-15.2661-4.8939-20.0505h-.073c-.0365 3.9444-.1826 12.3809-.4748 20.0505 0 .2191-.1096.2556-.3287.2556h-4.2c-.25565 0-.3287-.0365-.3287-.2921l1.31479-23.374Zm38.53931 15.96H39.16c.1826 2.0818 1.68 3.7983 5.2226 3.7983 1.68 0 3.1044-.2922 4.4922-.84.1461-.073.2556-.0365.2556.1461v3.4696c0 .2921-.073.3652-.2556.4747-1.4609.6574-3.0678 1.0226-5.6244 1.0226-6.8295 0-9.24-4.7113-9.24-9.2034 0-5.0766 3.0679-9.6418 8.8018-9.6418 5.5513 0 7.7426 4.2365 7.7426 7.8887 0 1.0957-.0731 2.0452-.1826 2.4105-.0365.1826-.1096.2556-.2922.2921-.5113.1096-1.8991.1826-3.7617.1826ZM39.16 27.2148h4.7478c1.1687 0 1.7166-.0365 1.8261-.073.0365-.0366.0365-.1826.0365-.2192 0-.913-.7304-2.9217-3.1408-2.9217-2.3009 0-3.2505 1.7165-3.4696 3.2139Z"/>
    </g>
  </g>
</svg>
