<svg xmlns="http://www.w3.org/2000/svg" width="57" height="55" fill="none" viewBox="0 0 57 55">
  <defs>
    <clipPath id="a">
      <path fill="#fff" d="M.3844.5h56v54h-56z"/>
    </clipPath>
  </defs>
  <g clip-path="url(#a)">
    <path fill="#000" d="M28.3844.48852 5.00171 13.9886v26.9999l23.38269 13.5 23.3827-13.5V13.9886L28.3844.48852Z"/>
    <path fill="#F79136" fill-rule="evenodd" d="M5.00171 13.9886 28.3844.48852 51.7671 13.9886v26.9999l-23.3827 13.5-23.38269-13.5V13.9886ZM28.3844 52.74l21.8683-12.6258V14.8628L28.3844 2.23708 6.51595 14.8628v25.2514L28.3844 52.74Zm13.0784-10.2768c.1036.1741.3581.3723.6459.4452.0174.0044.0479.0009.089-.0089l-13.7332 7.9359L8.24104 39.1696l-.00887-23.3469L28.4468 4.1417l20.2233 11.6657.0089 23.3468-2.4135 1.3948c.1174-.2479.3963-1.0025.0428-.829-.2554.1254-1.1418.3557-2.0846.4983-.3181-.0218-.5459-.0281-.763-.034-.3352-.0091-.6446-.0176-1.2204-.0819-1.7285-3.7145-2.1973-5.4044-2.5415-6.6453-.031-.1116-.0609-.2196-.0907-.325-.0445-.0633-.0859-.1248-.1269-.186-.1702-.2533-.3358-.4999-.7025-.8321-.9561-.5902-3.8995-1.5832-5.3715-2.0798-.4529-.1528-.7665-.2586-.8401-.2912-.3131-.1387-1.0116-2.0758-.8135-3.1258.0798-.2294.1554-.455.2287-.6738.3609-1.0775.6676-1.9931 1.1628-2.412.7885.5228 4.1528 2.49 4.7749 2.5326.7465-.3569 5.475-3.884 5.5699-4.1195.0478-.1185.4343-.5157.8337-.9262.3947-.4056.802-.8242.9075-.9995.0159-.3486-.2643-1.0139-.3985-1.3156-.2125-.1167-.8099-.399-1.0736-.4274-.0875.0598-.1929.1762-.2911.2847-.1943.2147-.3604.3982-.3037.0498.0582-.3575-.5025-.4817-.3953-.3083.1071.1734-.5978 1.4423-.5978 1.4423s.3717.7944.322 1.6099c-.5011.7834-4.6355 2.2661-4.6355 2.2661l-3.6542-2.4737s-.0018.041-1.2754-1.1827c.3484-.9637 1.0703-1.0915 1.205-1.1084.1349-.0169 1.8747.7859 1.8747.7859l.8399-.2785.3148-.917.3624-.082.0396-.6566.6157.0362.2567-.2398s-.6281-.8559-.5217-1.3027c.0861-.3606.4448-.4853.6381-.5219.0301-.1779.0549-.3872.0641-.5475.0672-1.1809-.0628-1.9605-.3598-2.5068-.31-.5705-1.0704-1.4444-2.2749-1.6477-1.7153-.2897-2.6199.2039-3.5706 1.0765-.9515.8733-.7359 2.2926-.7359 2.2926s.1069.9853.0949 2.3788c-.0361.7329-.8059 1.1751-1.6309 1.6474-.7644-.039-2.9115-.5749-2.9115-.5749s-4.2708-1.5281-5.1231-1.4231c-.2745.1266-5.0529 4.7704-5.0529 4.7704l-1.2531 1.3779.4709 1.5569s.9318.4484 1.1487.3712c.2169-.0773.6025-.6845.6025-.6845s.0136.3572.252.5437c.0805-.1819.5789-1.4877.5789-1.4877l-.2867-1.6021 4.0835-2.7764 3.665 2.1999s-.6861 2.895-.7404 4.6921c.0578.2785.1322.7223.2209 1.2513.2052 1.2245.487 2.9053.8161 4.0476-.9795 1.2949-3.2646 4.5864-3.573 5.2479 0 0-.9952-1.449-1.1833-1.757-.0705-.1155-.6471-.3313-1.3595-.598-1.1884-.4447-2.7546-1.0309-2.9791-1.5285-.0418-.0928-.0823-.1849-.1219-.2751-.2997-.6829-.5487-1.2503-.9796-1.0992-.2846.0998-1.1812.5855-1.9612 1.0081-.5568.3016-1.0541.5711-1.2273.6451-.3753.4326-.8451 1.1792-.7939 1.4016.0398.1727.9176-.2461 1.4141-.4831.1433-.0683.2548-.1215.3054-.141.2258-.0872 1.8959-.1089 2.3271-.0676.4312.0412 5.493 5.0434 5.9296 5.8063.4766.1939 1.1142.2011 1.4799.1235.6296-.6249 5.5933-4.8933 6.8824-5.3902 1.2307-.4744 2.9215-.0013 4.3313.3932.7488.2095 1.4183.3969 1.8975.4083.0048.0123.0099.0256.0155.0397.138.3539.4935 1.2652.6887 2.2006 1.1295 1.2891 2.3693 2.8375 3.1668 4.0338.2342.4409.3739.8119.5924 1.8601Z" clip-rule="evenodd"/>
  </g>
</svg>
