<svg xmlns="http://www.w3.org/2000/svg" width="56" height="55" fill="none" viewBox="0 0 56 55">
  <path fill="#1E3101" d="M9.91376.5H46.0858c5.475 0 9.914 4.439 9.914 9.914v34.172c0 5.475-4.439 9.914-9.914 9.914H9.91376c-5.475 0-9.914-4.439-9.914-9.914V10.414c0-5.475 4.439-9.914 9.914-9.914Z"/>
  <path fill="#99E83F" d="M42.6968 38.872c-1.703.026-3.39-.328-4.939-1.036a7.85422 7.85422 0 0 1-3.459-3.126c-.89-1.597-1.325-3.408-1.258-5.236-.014-1.698.42-3.37 1.258-4.847.863-1.505 2.133-2.736 3.663-3.552 1.791-.933 3.79-1.391 5.809-1.332.123 0 .283.006.481.019.197.013.629.031.901.055v-7.005c0-.172.074-.259.222-.259h4.29c.107-.015.207.06.222.167.003.018.003.037 0 .055v21.583c0 .42.019.876.056 1.369.037.494.068.938.092 1.332.009.157-.079.304-.222.37-1.143.5-2.338.873-3.563 1.11-1.172.217-2.361.328-3.553.333Zm2.456-4.588V24.183c-.267-.053-.537-.09-.809-.111-.252-.025-.505-.038-.758-.037-.898-.009-1.785.194-2.59.592-1.765.841-2.836 2.675-2.701 4.625-.018.807.114 1.609.389 2.368.224.611.577 1.167 1.036 1.628.44.424.972.741 1.554.925.615.199 1.259.299 1.906.296.345 0 .666-.012.962-.037.34-.021.678-.071 1.011-.148ZM7.33879 14.796c.013-.136.134-.236.271-.223.003 0 .007.001.01.001h6.46801c.176-.024.341.088.386.259.164.642.363 1.105.597 2.005.234.901.486 1.894.756 2.979.269 1.086.544 2.196.826 3.33.282 1.135.557 2.239.826 3.312.269 1.073.498 2.06.686 2.96.187.901.339 1.647.456 2.239h.035c.094-.518.258-1.209.492-2.072.234-.863.504-1.831.809-2.905.304-1.073.615-2.177.931-3.312.316-1.134.627-2.257.931-3.367.304-1.11.591-2.14.861-3.09.27-.949.486-1.437.65-2.079.024-.154.16-.266.316-.259h6.292c.153-.021.294.086.314.239.001.007.002.013.002.02l.844 23.176c.027.084.007.175-.052.24-.06.062-.143.096-.229.093h-4.57c-.063.002-.125-.017-.176-.055-.053-.054-.079-.129-.07-.204 0-1.258-.007-2.417-.018-3.799-.012-1.381-.03-2.769-.053-4.163-.024-1.393-.024-2.731 0-4.014.023-1.282.035-2.466.035-3.552 0-1.085.006-2.029.018-2.831.011-.801.017-1.399.018-1.794h-.035c-.141.617-.328 1.425-.562 2.424-.235.999-.51 2.121-.827 3.367-.316 1.246-.656 2.535-1.019 3.866-.363 1.332-.715 2.652-1.054 3.959-.34 1.308-.668 2.529-.984 3.663-.316 1.135-.58 1.974-.791 2.837-.043.177-.204.3-.386.296h-3.972c-.196.027-.381-.102-.422-.296-.211-.863-.452-1.703-.721-2.837-.27-1.134-.545-2.318-.826-3.552-.281-1.233-.58-2.497-.897-3.792-.316-1.295-.615-2.547-.896-3.756-.282-1.208-.533-2.343-.756-3.404-.223-1.06-.428-1.997-.615-2.812h-.071v2.923c0 1.135-.018 2.387-.053 3.756-.035 1.369-.07 2.8-.105 4.292-.035 1.493-.076 3.034-.123 4.625-.047 1.591-.106 3.004-.176 4.558 0 .198-.094.296-.281.296H6.35579c-.08.004-.159-.016-.229-.055-.058-.037-.076-.13-.053-.278l1.265-23.214Z"/>
</svg>
