<svg xmlns="http://www.w3.org/2000/svg" width="56" height="55" fill="none" viewBox="0 0 56 55">
  <defs>
    <clipPath id="a">
      <path fill="#fff" d="M-.00024.5h56v54h-56z"/>
    </clipPath>
    <clipPath id="b">
      <path fill="#fff" d="M-.00024.5h56v54h-56z"/>
    </clipPath>
  </defs>
  <g clip-path="url(#a)">
    <g clip-path="url(#b)">
      <path fill="#001E36" d="M-.00024 10.5c0-5.52285 4.47715-10 10-10H45.9998c5.5228 0 10 4.47715 10 10v34c0 5.5228-4.4772 10-10 10H9.99975c-5.52284 0-10-4.4772-10-10v-34Z"/>
      <path fill="#1D71AF" d="M30.382 5.38538c-.2283-.22818-.4905-.40546-.7656-.55711-.2679-.14784-.5505-.26357-.8494-.3331-.2495-.05809-.5047-.09649-.7672-.09649-.9 0-1.7458.3503-2.3822.98662L6.58127 24.4217c-.06261.0626-.10934.1358-.16637.2023-.52244.6097-.82042 1.3685-.82042 2.1798 0 .8998.35039 1.7457.98679 2.3821L25.6176 48.2223c.6364.6362 1.4824.9866 2.3823.9866.2625 0 .5176-.0384.7672-.0965.2989-.0695.5814-.1854.8494-.3332.275-.1517.5372-.3288.7654-.557l19.0363-19.0364c.6364-.6363.9868-1.4823.9868-2.3821 0-.8113-.298-1.5702-.8204-2.1797-.057-.0666-.1037-.1398-.1664-.2024L30.382 5.38538ZM48.7633 25.0767c.4612.4613.7155 1.0748.7155 1.7272 0 .6525-.2542 1.2659-.7155 1.7272L29.727 47.5674c-.0342.0342-.0747.059-.1107.0909-.2504.223-.5376.3874-.8494.4907-.2454.0813-.5012.1338-.7672.1338-.6524 0-1.266-.2541-1.7274-.7154L7.23603 28.531c-.46125-.4614-.71551-1.0748-.71551-1.7273 0-.6524.25417-1.2658.71551-1.7272L26.2724 6.04014c.4614-.46142 1.0749-.7155 1.7274-.7155.266 0 .5218.0525.7672.13382.3118.10332.599.26774.8494.49069.0359.03193.0765.05676.1107.0909L48.7633 25.0767Z"/>
      <path fill="#31A8FF" d="M17.2157 34.9282V18.1238c0-.1314.0526-.184.1841-.184 1.0782-.0526 3.1558-.0789 5.1544-.0789 5.3122 0 7.1267 2.9453 7.1267 5.7855 0 4.2603-3.2872 6.0748-7.3108 6.0748h-1.499v5.1807c0 .1578-.0526.2104-.2366.2104h-3.2084c-.1315 0-.2104-.0526-.2104-.1841Zm3.6554-13.859v5.4437c.4471.0263.7364.0263 1.4727.0263 2.0513 0 3.7343-.6312 3.7343-2.8139 0-1.6568-1.1308-2.7087-3.445-2.7087-.8152 0-1.5253.0263-1.762.0526Zm18.9604 4.3918c-.8415-.4208-2.1827-.7627-3.3661-.7627-1.236 0-1.6568.4734-1.6568.9205 0 .447.3419.7626 1.8935 1.3674 3.182 1.1572 4.1813 2.3932 4.1813 4.2603 0 2.472-1.946 4.1288-5.4173 4.1288-1.6305 0-3.0243-.2893-3.8395-.7101-.1315-.0789-.1578-.1577-.1578-.3155v-2.8402c0-.1578.0789-.2104.1841-.1315 1.2097.7363 2.6824 1.0519 3.8658 1.0519 1.236 0 1.7882-.3419 1.7882-.9204 0-.4997-.4207-.8678-1.9723-1.4464-2.9717-1.1045-3.971-2.3405-3.971-4.234 0-2.0512 1.6568-4.0235 5.1544-4.0235 1.5516 0 2.7613.184 3.4187.5259.1578.0789.1578.1841.1578.3419v2.6298c0 .1315-.0789.2367-.263.1578Z"/>
    </g>
  </g>
</svg>
