<svg xmlns="http://www.w3.org/2000/svg" width="56" height="55" fill="none" viewBox="0 0 56 55">
  <defs>
    <clipPath id="a">
      <path fill="#fff" d="M-.00024.5h56v54h-56z"/>
    </clipPath>
    <clipPath id="b">
      <path fill="#fff" d="M-.00024.5h56v54h-56z"/>
    </clipPath>
  </defs>
  <g clip-path="url(#a)">
    <g clip-path="url(#b)">
      <path fill="#001E36" d="M-.00024 10.5c0-5.52285 4.47715-10 10-10H45.9998c5.5228 0 10 4.47715 10 10v34c0 5.5228-4.4772 10-10 10H9.99975c-5.52284 0-10-4.4772-10-10v-34Z"/>
      <path fill="#31A8FF" d="M27.9998 47.5717c-11.2193 0-20.34672-9.1275-20.34672-20.3466 0-11.2192 9.12742-20.34662 20.34672-20.34662 3.2196 0 6.3055.73549 9.172 2.18605.23.11638.3221.39714.2058.62711-.1165.23-.3972.32196-.6271.20568-2.7347-1.38385-5.6789-2.0855-8.7507-2.0855-10.7046 0-19.41338 8.70878-19.41338 19.41328S17.2952 46.6383 27.9998 46.6383s19.4133-8.7087 19.4133-19.4132c0-3.0866-.7082-6.0435-2.1052-8.7887-.1168-.2297-.0254-.5107.2043-.6275.2296-.1169.5105-.0255.6277.2042 1.4641 2.8776 2.2065 5.9769 2.2065 9.212 0 11.2191-9.1275 20.3466-20.3466 20.3466Z"/>
      <path fill="#31A8FF" d="M16.3846 34.9096V18.4234c0-.129.0516-.1806.1806-.1806 1.0578-.0516 3.096-.0774 5.0568-.0774 5.2116 0 6.9918 2.8896 6.9918 5.676 0 4.1796-3.225 5.9598-7.1724 5.9598h-1.4706v5.0826c0 .1548-.0516.2064-.2322.2064H16.591c-.129 0-.2064-.0516-.2064-.1806Zm3.5862-13.5966v5.3406c.4386.0258.7224.0258 1.4448.0258 2.0124 0 3.6636-.6192 3.6636-2.7606 0-1.6254-1.1094-2.6574-3.3798-2.6574-.7998 0-1.4964.0258-1.7286.0516Zm18.8594 4.3086c-.8256-.4128-2.1414-.7482-3.3024-.7482-1.2126 0-1.6254.4644-1.6254.903 0 .4386.3354.7482 1.8576 1.3416 3.1218 1.1352 4.1022 2.3478 4.1022 4.1796 0 2.4252-1.9092 4.0506-5.3148 4.0506-1.5996 0-2.967-.2838-3.7668-.6966-.129-.0774-.1548-.1548-.1548-.3096v-2.7864c0-.1548.0774-.2064.1806-.129 1.1868.7224 2.6316 1.032 3.7926 1.032 1.2126 0 1.7544-.3354 1.7544-.903 0-.4902-.4128-.8514-1.935-1.419-2.9154-1.0836-3.8958-2.2962-3.8958-4.1538 0-2.0124 1.6254-3.9474 5.0568-3.9474 1.5222 0 2.709.1806 3.354.516.1548.0774.1548.1806.1548.3354v2.58c0 .129-.0774.2322-.258.1548Z"/>
    </g>
  </g>
</svg>
