<svg xmlns="http://www.w3.org/2000/svg" width="56" height="55" fill="none" viewBox="0 0 56 55">
  <defs>
    <clipPath id="a">
      <path fill="#fff" d="M-.00024.5h56v54h-56z"/>
    </clipPath>
  </defs>
  <g clip-path="url(#a)">
    <path fill="#001E36" d="M-.00024 10.5c0-5.52285 4.47715-10 10-10H45.9998c5.5228 0 10 4.47715 10 10v34c0 5.5228-4.4772 10-10 10H9.99975c-5.52284 0-10-4.4772-10-10v-34Z"/>
    <path fill="#31A8FF" d="M12.5602 38.2444V14.907c0-.1826.0731-.2557.2557-.2557 1.4974-.073 4.3826-.1096 7.1583-.1096 7.3773 0 9.8973 4.0905 9.8973 8.0348 0 5.9166-4.5652 8.4366-10.153 8.4366h-2.0817v7.1947c0 .2192-.0731.2922-.3287.2922h-4.4557c-.1826 0-.2922-.073-.2922-.2556Zm5.0766-19.247v7.56c.6208.0365 1.0226.0365 2.0452.0365 2.8487 0 5.1861-.8765 5.1861-3.9078 0-2.3009-1.5705-3.7617-4.7844-3.7617-1.1322 0-2.1182.0365-2.4469.073Zm25.9663 6.0991c-1.1686-.5843-3.0313-1.0591-4.6747-1.0591-1.7166 0-2.3009.6574-2.3009 1.2783 0 .6208.4748 1.0591 2.6296 1.8991 4.4191 1.6069 5.8069 3.3235 5.8069 5.9165 0 3.4331-2.7026 5.7339-7.5235 5.7339-2.2643 0-4.2-.4017-5.3321-.9861-.1826-.1095-.2192-.2191-.2192-.4382v-3.9444c0-.2191.1096-.2921.2557-.1826 1.68 1.0226 3.7252 1.4609 5.3687 1.4609 1.7165 0 2.4835-.4748 2.4835-1.2783 0-.6939-.5844-1.2052-2.7392-2.0087-4.1269-1.5339-5.5148-3.2504-5.5148-5.88 0-2.8487 2.3009-5.5878 7.1583-5.5878 2.1548 0 3.8348.2557 4.7478.7304.2192.1096.2192.2557.2192.4748v3.6522c0 .1826-.1096.3287-.3653.2191Z"/>
  </g>
</svg>
