<svg xmlns="http://www.w3.org/2000/svg" width="56" height="55" fill="none" viewBox="0 0 56 55">
  <defs>
    <clipPath id="a">
      <path fill="#fff" d="M-.00024.5h56v54h-56z"/>
    </clipPath>
    <clipPath id="b">
      <path fill="#fff" d="M-.00024.5h56v54h-56z"/>
    </clipPath>
  </defs>
  <g clip-path="url(#a)">
    <g clip-path="url(#b)">
      <path fill="#000B1D" d="M-.00024 10.5c0-5.52285 4.47715-10 10-10H45.9998c5.5228 0 10 4.47715 10 10v34c0 5.5228-4.4772 10-10 10H9.99975c-5.52284 0-10-4.4772-10-10v-34Z"/>
      <path fill="#fff" d="M13.0674 38.2443V14.9069c0-.1826.0731-.2556.2557-.2556 1.4974-.0731 4.3826-.1096 7.1583-.1096 7.3773 0 9.8973 4.0905 9.8973 8.0348 0 5.9165-4.5652 8.4365-10.153 8.4365H18.144v7.1948c0 .2191-.0731.2922-.3287.2922h-4.4557c-.1826 0-.2922-.0731-.2922-.2557Zm5.0766-19.2469v7.56c.6208.0365 1.0226.0365 2.0452.0365 2.8487 0 5.1861-.8765 5.1861-3.9078 0-2.3009-1.5705-3.7618-4.7844-3.7618-1.1322 0-2.1182.0366-2.4469.0731Zm17.2579 5.6243h-2.1913c-.1461-.0365-.2191-.1095-.2191-.3287v-3.6887c0-.1826.073-.2191.2191-.2191h2.1913v-.5843c0-1.7166.2557-3.0314.767-4.127.9495-2.0452 2.7026-3.3965 5.6974-3.3965.7304 0 1.4243.073 1.8626.2191.2191.1096.2556.1826.2556.4017v3.6157c0 .1461-.073.2556-.2921.2191-.3287-.1095-.767-.1095-1.0592-.1095-1.3513 0-2.1548.7304-2.1548 2.7756v.9861h3.1044c.2556 0 .2922.073.2922.2557v3.6521c0 .2192-.0731.2922-.2922.3287h-3.1044v13.5496c0 .2191-.0365.3287-.3652.3287h-4.3826c-.2556 0-.3287-.0731-.3287-.3287V24.6217Z"/>
    </g>
  </g>
</svg>
