<svg xmlns="http://www.w3.org/2000/svg" width="56" height="55" fill="none" viewBox="0 0 56 55">
  <defs>
    <clipPath id="a">
      <path fill="#fff" d="M0 .5h56v54H0z"/>
    </clipPath>
    <clipPath id="b">
      <path fill="#fff" d="M0 .5h56v54H0z"/>
    </clipPath>
  </defs>
  <g clip-path="url(#a)">
    <g clip-path="url(#b)">
      <path fill="#00005B" d="M0 10.5C0 4.97715 4.47715.5 10 .5h36c5.5228 0 10 4.47715 10 10v34c0 5.5228-4.4772 10-10 10H10c-5.52285 0-10-4.4772-10-10v-34Z"/>
      <path fill="#99F" d="M15.0115 38.2437V14.9063c0-.1826.073-.2556.2556-.2556 1.4974-.0731 4.3826-.1096 7.1583-.1096 7.3774 0 9.8974 4.0905 9.8974 8.0348 0 5.9165-4.5652 8.4365-10.1531 8.4365H20.088v7.1948c0 .2191-.073.2922-.3287.2922h-4.4557c-.1826 0-.2921-.0731-.2921-.2557Zm5.0765-19.2469v7.56c.6209.0365 1.0226.0365 2.0452.0365 2.8487 0 5.1861-.8765 5.1861-3.9078 0-2.3009-1.5704-3.7618-4.7843-3.7618-1.1322 0-2.1183.0366-2.447.0731Zm14.468 14.8278V12.9342c0-.2192.1096-.3287.3652-.3287h4.3827c.2191 0 .3286.1095.3286.3287v20.4521c0 1.0226.3287 1.3879 1.2053 1.3879.2921 0 .3652 0 .6574-.0366.146 0 .1826.0366.1826.2192v3.1774c0 .2556-.0366.3287-.2192.4382-.4747.1826-1.1321.2922-2.3008.2922-2.5931 0-4.6018-.9861-4.6018-5.04Z"/>
    </g>
  </g>
</svg>
