<svg xmlns="http://www.w3.org/2000/svg" width="56" height="55" fill="none" viewBox="0 0 56 55">
  <defs>
    <clipPath id="a">
      <path fill="#fff" d="M0 .5h56v54H0z"/>
    </clipPath>
    <clipPath id="b">
      <path fill="#fff" d="M0 .5h56v54H0z"/>
    </clipPath>
  </defs>
  <g clip-path="url(#a)">
    <g clip-path="url(#b)">
      <path fill="#00005B" d="M0 10.5C0 4.97715 4.47715.5 10 .5h36c5.5228 0 10 4.47715 10 10v34c0 5.5228-4.4772 10-10 10H10c-5.52285 0-10-4.4772-10-10v-34Z"/>
      <path fill="#99F" d="M14.0976 38.4993H9.75155c-.25565 0-.3287-.0365-.3287-.2922V14.9793c0-.1826.03652-.3287.25565-.3287 3.3235-.1096 4.6748-.1096 7.633-.1096 6.0992 0 9.4592 2.5931 9.4592 7.2678 0 3.0679-1.8992 5.3687-4.5287 6.4644 1.2052 1.6069 5.3322 7.8522 6.4278 9.8243.1461.1826.1461.4018-.073.4018h-5.2957c-.3287 0-.4382-.0365-.5478-.1826-1.0226-1.607-3.36-5.5513-4.8209-7.9983-.2922-.4748-.4748-.6574-.8765-.6574h-2.6661v8.5461c0 .2191-.073.2922-.2922.2922Zm.2922-13.1478h2.8487c2.7026 0 4.4922-1.0592 4.4922-3.214 0-2.2643-1.8261-3.2139-4.5287-3.2139-1.2052 0-2.2278.0365-2.8122.0731v6.3548Zm31.9959-4.7114v13.8053c0 1.8991.1096 3.0313.1826 3.7982.0365.1826-.0365.2557-.2922.2557h-3.9078c-.2556 0-.3287-.0365-.4017-.2192-.1096-.3286-.2192-.84-.2557-1.1686-1.5704 1.4243-3.3965 1.753-5.0035 1.753-3.6156 0-6.1721-1.9722-6.1721-7.0487V20.6401c0-.2191.1095-.2556.3287-.2556h4.4556c.2557 0 .2922.073.2922.2556v10.5914c0 2.0086.8035 3.2504 2.8487 3.2504 1.1687 0 2.0452-.3652 2.8487-1.0591V20.6401c0-.1826.1095-.2556.3287-.2556h4.4556c.2192 0 .2922.073.2922.2556Z"/>
    </g>
  </g>
</svg>
