<svg xmlns="http://www.w3.org/2000/svg" width="56" height="55" fill="none" viewBox="0 0 56 55">
  <defs>
    <clipPath id="a">
      <path fill="#fff" d="M0 .5h56v54H0z"/>
    </clipPath>
    <clipPath id="b">
      <path fill="#fff" d="M0 .5h56v54H0z"/>
    </clipPath>
  </defs>
  <g clip-path="url(#a)">
    <g clip-path="url(#b)">
      <path fill="#00005B" d="M0 10.5C0 4.97715 4.47715.5 10 .5h36c5.5228 0 10 4.47715 10 10v34c0 5.5228-4.4772 10-10 10H10c-5.52285 0-10-4.4772-10-10v-34Z"/>
      <path fill="#99F" d="M13.8366 38.2444V14.907c0-.1826.073-.2557.2556-.2557 1.4974-.073 4.3826-.1096 7.1583-.1096 7.3774 0 9.8974 4.0905 9.8974 8.0348 0 5.9166-4.5653 8.4366-10.1531 8.4366h-2.0817v7.1947c0 .2192-.0731.2922-.3287.2922h-4.4557c-.1826 0-.2921-.073-.2921-.2556Zm5.0765-19.247v7.56c.6208.0365 1.0226.0365 2.0452.0365 2.8487 0 5.1861-.8765 5.1861-3.9078 0-2.3009-1.5705-3.7617-4.7844-3.7617-1.1321 0-2.1182.0365-2.4469.073Zm15.7166 1.3878h3.9809c.2191 0 .3287.0731.4382.2922.1826.5113.3287 1.2783.3652 2.0452 1.2053-1.4243 3.2505-2.7026 5.807-2.7026.2557 0 .3287.0731.3287.2922v4.4556c0 .2192-.073.2557-.3652.2557-2.6296-.0731-4.7113.6939-5.5148 1.6069v11.5774c0 .2557-.1096.2922-.3287.2922h-4.4191c-.2557 0-.3652-.073-.3652-.3287V25.6078c0-1.6069-.0366-3.6887-.1827-5.0034 0-.1827.0731-.2192.2557-.2192Z"/>
    </g>
  </g>
</svg>
