<svg xmlns="http://www.w3.org/2000/svg" width="57" height="55" fill="none" viewBox="0 0 57 55">
  <defs>
    <clipPath id="a">
      <path fill="#fff" d="M.3844.5h56v54h-56z"/>
    </clipPath>
  </defs>
  <g clip-path="url(#a)">
    <path fill="#370000" d="M46.4704.5h-36.172C4.82305.5.3844 4.93865.3844 10.414v34.172c0 5.4753 4.43865 9.914 9.914 9.914h36.172c5.4753 0 9.914-4.4387 9.914-9.914V10.414c0-5.47535-4.4387-9.914-9.914-9.914Z"/>
    <path fill="#FA0F00" fill-rule="evenodd" d="M39.5094 33.312c-.007.28.051 1.1.051 1.235 0 2.262-.878 3.515-2.955 3.827v2.694a6.68083 6.68083 0 0 0 3.668-1.037c.4159-.256.775-.5942 1.0553-.9941.2803-.3998.4759-.8527.5747-1.3309.3272-1.375.4694-2.7875.423-4.2l-.054-5.877-5.667.021v5.67l2.904-.008Zm-7-.062c.006.278-.009 1.11-.008 1.249.009 2.314-.975 3.588-3.053 3.9v2.7a6.1645 6.1645 0 0 0 3.754-1.062 4.50046 4.50046 0 0 0 1.872-2.553c.233-1.3838.3001-2.7904.2-4.19l-.021-5.642-5.836.021.005 5.585 3.087-.008Zm-15.187-11.5c-.016-.276.04-1.173.04-1.311 0-2.262 1-3.6 3.083-3.913v-2.693a5.71465 5.71465 0 0 0-3.605 1.05 4.69999 4.69999 0 0 0-1.919 2.551 16.86318 16.86318 0 0 0-.478 4.38v5.45h5.881l.012-5.52-3.014.006Zm9.935-.15v5.774h-5.719l-.009-5.462a19.02491 19.02491 0 0 1 .3-4.451c.2517-1.0419.8796-1.9541 1.763-2.561a6.299 6.299 0 0 1 3.735-1.09l.012 2.69c-2.071.31-3.082 1.688-3.082 3.951v1.115l3 .034Z" clip-rule="evenodd"/>
    <path fill="#FABFBC" d="M26.4584 33.886a6.66322 6.66322 0 0 1-2.3605-1.2914 6.66327 6.66327 0 0 1-1.6575-2.1196c-.036-.071-.07-.142-.1-.216l-.967.159c.03.071.056.145.088.216a7.60022 7.60022 0 0 0 1.9469 2.6315 7.59948 7.59948 0 0 0 2.8731 1.5685c.073.021.147.037.222.057l.176-.94c-.075-.024-.149-.042-.221-.065Zm-.574 3.093a9.87324 9.87324 0 0 1-4.0808-2.1756 9.8721 9.8721 0 0 1-2.6422-3.7954c-.026-.071-.048-.146-.072-.217l-.957.155c.025.073.044.148.069.219a10.7998 10.7998 0 0 0 2.9141 4.3097 10.7999 10.7999 0 0 0 4.5909 2.4473c.075.019.149.034.224.05l.176-.942c-.079-.018-.153-.03-.222-.051Zm-.572 3.052a13.0227 13.0227 0 0 1-5.7791-3.0384 13.02276 13.02276 0 0 1-3.5779-5.4616c-.024-.074-.042-.148-.064-.22l-.958.155.066.22a13.94924 13.94924 0 0 0 3.8445 5.9802 13.94865 13.94865 0 0 0 6.2925 3.3088l.222.052.178-.948c-.079-.018-.152-.031-.228-.048h.004ZM35.5844 24.8a7.59981 7.59981 0 0 0-1.9659-2.5979 7.59946 7.59946 0 0 0-2.8731-1.5361c-.073-.021-.147-.037-.222-.057l-.174.942c.075.019.15.037.222.058.8645.2578 1.6679.688 2.3617 1.2646a6.68086 6.68086 0 0 1 1.6753 2.0904c.036.072.069.143.1.214l.966-.162c-.026-.069-.054-.142-.09-.216Zm3.268-.547a10.79936 10.79936 0 0 0-2.9405-4.2715 10.79957 10.79957 0 0 0-4.5925-2.4085c-.073-.018-.148-.032-.222-.048l-.174.941c.073.018.147.032.222.052a9.86908 9.86908 0 0 1 4.0807 2.1404 9.8691 9.8691 0 0 1 2.6643 3.7596c.029.071.05.146.077.217l.955-.16c-.023-.075-.043-.149-.068-.22l-.002-.002Zm3.2-.538a13.962 13.962 0 0 0-3.877-5.9305 13.96094 13.96094 0 0 0-6.289-3.2635l-.222-.052-.176.949c.073.018.147.03.222.048a13.0316 13.0316 0 0 1 5.7777 2.9942 13.0311 13.0311 0 0 1 3.6093 5.4148c.025.072.043.146.066.22l.955-.161c-.019-.071-.04-.144-.063-.217l-.003-.002Z"/>
  </g>
</svg>
