<svg xmlns="http://www.w3.org/2000/svg" width="57" height="55" fill="none" viewBox="0 0 57 55">
  <defs>
    <clipPath id="a">
      <path fill="#fff" d="M.3844.5h56v54h-56z"/>
    </clipPath>
  </defs>
  <g clip-path="url(#a)">
    <path fill="#370000" d="M46.4704.5h-36.172C4.82305.5.3844 4.93865.3844 10.414v34.172c0 5.4753 4.43865 9.914 9.914 9.914h36.172c5.4753 0 9.914-4.4387 9.914-9.914V10.414c0-5.47535-4.4387-9.914-9.914-9.914Z"/>
    <path fill="#FABFBC" fill-rule="evenodd" d="M38.5904 21.3469h-16.074v.923h16.074v-.923Zm-4.125 2.909h-11.963v.923h11.963v-.923Zm-11.9789 2.908h11.9629v.923H22.4865v-.923Zm11.949 2.909h-11.965v.923h11.965v-.923Zm-15.8201 2.909h15.804v.923h-15.804v-.923Z" clip-rule="evenodd"/>
    <path fill="#FA0F00" fill-rule="evenodd" d="m27.2234 9.88501 4.761 4.77199 2.858 2.864-.693.668-3.315-3.322c-1.053-1.058-2.288-1.342-3.177-.494-.946.907-11.526 10.924-12.5 11.852-.861.822-.861 1.793.339 2.975l3.771 3.781-.654.924-8.069-8.218 16.679-15.80199ZM30.1164 44.9l-4.774-4.7-2.891-2.844.7-.679 3.348 3.3c1.057 1.044 2.292 1.309 3.178.448.947-.919 11.1-10.9 12.046-11.818.834-.81.834-1.768-.33-2.934-.708-.706-3.336-3.405-3.336-3.405l.531-.923 7.596 7.786L30.1164 44.9Z" clip-rule="evenodd"/>
  </g>
</svg>
