<svg xmlns="http://www.w3.org/2000/svg" width="56" height="55" fill="none" viewBox="0 0 56 55">
  <defs>
    <clipPath id="a">
      <path fill="#fff" d="M-.00024.5h56v54h-56z"/>
    </clipPath>
  </defs>
  <g clip-path="url(#a)">
    <path fill="#000B1D" d="M46.0859.5H9.91359C4.43833.5-.00024 4.93857-.00024 10.4138v34.1724c0 5.4752 4.43857 9.9138 9.91383 9.9138H46.0859c5.4753 0 9.9139-4.4386 9.9139-9.9138V10.4138C55.9998 4.93857 51.5612.5 46.0859.5Z"/>
    <path fill="#fff" d="M20.2319 38.8406c-1.378 0-2.6263-.1171-3.7455-.3506-1.1197-.2335-2.0607-.5351-2.823-.9041-.1972-.098-.2952-.3073-.2952-.6273v-4.3914c0-.098.0306-.166.0923-.2029.0611-.0369.1412-.0306.2398.0184 1.0333.6401 2.1276 1.1198 3.2843 1.4392 1.156.32 2.2879.4797 3.3949.4797 1.4023 0 2.4044-.215 3.0075-.6457.6026-.4302.9041-.9653.9041-1.6053 0-.418-.0986-.7934-.2952-1.1255-.1972-.3321-.5414-.6579-1.0332-.9779-.4924-.3194-1.1688-.6515-2.0296-.9963l-1.8451-.775c-1.5009-.6394-2.6754-1.3221-3.5241-2.048-.8488-.7254-1.4334-1.5066-1.7529-2.3433-.32-.836-.4797-1.7344-.4797-2.6938 0-1.3285.3321-2.5335.9963-3.6164.6643-1.0822 1.6479-1.9373 2.9522-2.5647 1.3037-.6273 2.9273-.9409 4.871-.9409 1.1809 0 2.2816.0738 3.3027.2214 1.0206.1476 1.8388.3817 2.454.7011.1718.0986.2583.2583.2583.4797v4.1699c0 .0496-.0311.105-.0922.1661-.0617.0617-.1419.0553-.2399-.0184-.738-.3933-1.5994-.7012-2.5831-.9226-.9842-.2214-2.0054-.3321-3.0628-.3321-.7139 0-1.3164.0617-1.8082.1845-.4924.1234-.892.2768-1.1993.4613-.3079.1845-.5351.4186-.6827.7011-.1476.2831-.2214.572-.2214.8672 0 .3938.1107.7444.3321 1.0517.2214.3079.5904.6152 1.107.9225.5167.3079 1.2299.6706 2.1403 1.0886l1.3654.5167c1.6237.6642 2.8905 1.3717 3.8009 2.1218.9099.7507 1.5499 1.5626 1.9189 2.4355.369.8736.5535 1.8146.5535 2.823 0 1.4519-.3874 2.725-1.1624 3.8194-.7749 1.0949-1.8514 1.9373-3.2289 2.5277-1.3781.5905-3.0017.8857-4.871.8857h-.0001Zm22.2518-4.023v3.0259c0 .271-.0986.4308-.2953.4798-.4676.1476-.9594.2704-1.476.369-.5167.098-1.1071.1476-1.7713.1476-1.5995 0-2.8542-.418-3.764-1.2547-.9104-.836-1.3654-2.1772-1.3654-4.0223v-9.1516h-2.1772c-.1972 0-.2952-.1107-.2952-.3321v-3.6533c0-.1966.1107-.2952.3321-.2952h2.1772c.0242-.4181.0554-.9041.0923-1.4577.0369-.5535.0859-1.107.1476-1.6606.0611-.5535.1165-1.0021.166-1.3469.0243-.0738.0612-.1412.1107-.2029.049-.0611.1107-.1044.1845-.1292l4.3914-.5535c.0738-.0242.1349-.0242.1845 0 .049.0248.0738.0986.0738.2214-.0496.5662-.0865 1.3348-.1107 2.3064-.0248.9721-.0496 1.9131-.0738 2.8229h3.4319c.1476 0 .2214.0986.2214.2953v3.727c0 .1477-.0617.2341-.1845.2584H38.978v7.897c0 .8366.1412 1.4334.4243 1.7897.2826.3569.8056.5351 1.5684.5351.2214 0 .4301-.0058.6273-.0185.1966-.0121.3932-.0305.5904-.0553.0738-.0243.1413-.0185.203.0184.0611.0369.0922.1171.0922.2399h.0001Z"/>
  </g>
</svg>
