<svg xmlns="http://www.w3.org/2000/svg" width="56" height="55" fill="none" viewBox="0 0 56 55">
  <defs>
    <clipPath id="a">
      <path fill="#fff" d="M-.00024.5h56v54h-56z"/>
    </clipPath>
  </defs>
  <g clip-path="url(#a)">
    <path fill="#1E3101" d="M46.0859.5H9.91359C4.43833.5-.00024 4.93857-.00024 10.4138v34.1724c0 5.4752 4.43857 9.9138 9.91383 9.9138H46.0859c5.4753 0 9.9139-4.4386 9.9139-9.9138V10.4138C55.9998 4.93857 51.5612.5 46.0859.5Z"/>
    <path fill="#fff" d="M19.2795 47.1402c0 .0747.0133.1121.0664.1436.3934.2198.9905.338 1.6232.338 1.4388 0 2.3263-.8093 2.3263-1.9925 0-.7879-.3249-1.4487-1.5625-2.1118l-.3488-.1827c-.7441-.3969-.9487-.678-.9487-1.0784 0-.3739.264-.7987 1.1005-.7987.5104 0 1.0075.1045 1.343.3149.0477.0306.0835.0028.0835-.0448v-.9776c0-.0637-.01-.1011-.058-.1206-.2808-.1497-.748-.2432-1.383-.2432-1.4677 0-2.2299.8657-2.2299 1.9496 0 .7875.3182 1.4306 1.4437 2.0423l.3942.2031c.759.4279.9593.7407.9593 1.1383 0 .4554-.3171.8297-1.111.8297-.5534 0-1.1226-.159-1.6198-.4883-.0433-.0255-.0784-.0012-.0784.0422v1.0369Z"/>
    <path fill="#fff" fill-rule="evenodd" d="m14.2246 47.4512.5192-1.8635h2.1134l.541 1.8711c.0125.042.0412.0672.0932.0672h1.089c.0583 0 .0724-.0279.0578-.087l-2.1006-6.8867c-.0109-.0469-.0288-.0624-.0767-.0624h-1.3787c-.0385 0-.058.023-.058.0653-.01.322-.03.4231-.0671.5488l-1.8704 6.3221c-.0146.0734.006.0999.0713.0999h.9683c.0569 0 .0837-.017.0983-.0748Zm2.0729-3.9956c.1108.4014.2143.7764.2848 1.0541h-1.5608l.0994-.3655c.2532-.9293.5347-1.9627.6653-2.6098h.0109c.1041.4854.3127 1.2411.5004 1.9212Z" clip-rule="evenodd"/>
    <path fill="#fff" d="M24.1633 47.2838c-.0531-.0315-.0664-.0689-.0664-.1436v-1.0369c0-.0434.035-.0677.0784-.0422.4972.3293 1.0664.4883 1.6198.4883.7938 0 1.111-.3743 1.111-.8297 0-.3976-.2003-.7104-.9593-1.1383l-.3942-.2031c-1.1255-.6117-1.4438-1.2548-1.4438-2.0423 0-1.0839.7623-1.9496 2.23-1.9496.6349 0 1.1022.0935 1.383.2432.048.0195.058.0569.058.1206v.9776c0 .0476-.0358.0754-.0835.0448-.3356-.2104-.8326-.3149-1.3431-.3149-.8364 0-1.1004.4248-1.1004.7987 0 .4004.2046.6815.9486 1.0784l.3489.1827c1.2376.6631 1.5625 1.3239 1.5625 2.1118 0 1.1832-.8875 1.9925-2.3264 1.9925-.6326 0-1.2297-.1182-1.6231-.338Zm8.8045.2422c.0681 0 .091-.0247.1019-.0839l.1402-.9166c.0108-.0591-.0046-.0761-.0699-.0761h-2.7878v-1.9803h2.3511c.0548 0 .0827-.0155.0827-.0789v-.9207c0-.0578-.023-.077-.077-.077h-2.3568v-1.8259h2.6137c.0626 0 .0818-.0317.0724-.0857l-.1036-.92c-.0109-.0569-.0301-.071-.094-.071h-3.5955c-.0641 0-.0785.0212-.0785.083v6.8676c0 .0613.0207.0855.0855.0855h3.7156Zm2.4991-5.9594h-1.8221c-.0623 0-.077-.023-.0661-.0879l.1286-.9081c.0108-.0557.0292-.0807.0919-.0807h4.5693c.0626 0 .0856.0171.0965.0845l.0814.9014c.0109.0713-.0213.0908-.075.0908h-1.8146v5.8686c0 .0621-.0267.0908-.0856.0908h-1.0149c-.0666.0038-.0894-.0244-.0894-.087v-5.8724Zm3.6266 5.5736c0 .0747.0133.1121.0664.1436.3933.2198.9904.338 1.6231.338 1.4389 0 2.3264-.8093 2.3264-1.9925 0-.7879-.325-1.4487-1.5626-2.1118l-.3488-.1827c-.7441-.3969-.9486-.678-.9486-1.0784 0-.3739.2639-.7987 1.1004-.7987.5104 0 1.0075.1045 1.3431.3149.0476.0306.0835.0028.0835-.0448v-.9776c0-.0637-.0101-.1011-.0581-.1206-.2808-.1497-.748-.2432-1.383-.2432-1.4677 0-2.2299.8657-2.2299 1.9496 0 .7875.3182 1.4306 1.4437 2.0423l.3942.2031c.759.4279.9594.7407.9594 1.1383 0 .4554-.3172.8297-1.1111.8297-.5534 0-1.1225-.159-1.6197-.4883-.0434-.0255-.0784-.0012-.0784.0422v1.0369Z"/>
    <path fill="#99E83F" d="M41.5233 18.8874v-3.1557c0-1.436-.8194-2.7461-2.1107-3.3745l-9.7704-4.75455c-1.0366-.50446-2.2476-.50446-3.2843 0l-9.7704 4.75455c-1.2732.6196-2.0871 1.9021-2.1096 3.3145-.0003.02-.0011.04-.0011.06v4.4254c0 .9752.6577 1.8278 1.601 2.0755l19.1694 5.0032c.1571.0389.1773.2539.0303.3215l-6.3452 3.0044a2.14594 2.14594 0 0 1-1.8645 0l-5.5866-2.6948c-.742-.3579-1.2136-1.1089-1.2136-1.9327v-.3443h-5.7908v3.1352c0 1.4407.8248 2.7542 2.1224 3.3802l9.7704 4.7128c1.0302.4969 2.2307.4969 3.2609 0l9.7704-4.7128c1.2414-.5988 2.0495-1.827 2.1172-3.1937.0031-.0619.0052-.124.0052-.1865v-4.2979c0-.9752-.6577-1.8278-1.6009-2.0754l-19.2779-5.0612.0595.0136a.17603.17603 0 0 1-.0524-.0233c-.1031-.0684-.1034-.2343.02-.2954l6.3895-3.1288c.5928-.2885 1.2852-.2885 1.8779 0l5.5866 2.7186c.7383.3593 1.2069 1.1084 1.2069 1.9295v.3826h5.7908Z"/>
  </g>
</svg>
