<svg xmlns="http://www.w3.org/2000/svg" width="56" height="55" fill="none" viewBox="0 0 56 55">
  <defs>
    <clipPath id="a">
      <path fill="#fff" d="M-.00024.5h56v54h-56z"/>
    </clipPath>
  </defs>
  <g clip-path="url(#a)">
    <path fill="#1E3101" d="M9.91376.5H46.0858c5.475 0 9.914 4.439 9.914 9.914v34.172c0 5.475-4.439 9.914-9.914 9.914H9.91376c-5.475 0-9.914-4.439-9.914-9.914V10.414c0-5.475 4.439-9.914 9.914-9.914Z"/>
    <path fill="#99E83F" d="M17.6107 38.8726c-1.261.012-2.519-.106-3.755-.352-.977-.187-1.927-.491-2.831-.906a.63108.63108 0 0 1-.296-.629v-4.403c-.009-.08.027-.158.093-.204.078-.036.169-.029.24.019 1.023.636 2.132 1.122 3.293 1.443 1.108.314 2.253.476 3.404.481 1.047.086 2.096-.14 3.016-.648.557-.347.899-.953.906-1.609.006-.396-.096-.786-.296-1.128-.267-.401-.622-.736-1.036-.981-.646-.396-1.327-.73-2.035-.999l-1.85-.777c-1.274-.505-2.464-1.197-3.533-2.053-.774-.623-1.379-1.431-1.758-2.35-.325-.863-.488-1.779-.481-2.701-.049-2.675 1.512-5.117 3.959-6.198 1.537-.676 3.206-.998 4.884-.944 1.108-.005 2.214.069 3.312.222.853.098 1.684.335 2.46.703.172.097.273.284.259.481v4.042c0 .113.011.243-.1.311-.079.048-.159.013-.233-.025-.818-.423-1.689-.734-2.59-.925-1.008-.224-2.038-.336-3.071-.333-.61-.011-1.218.051-1.813.185-.421.095-.826.251-1.202.462-.29.165-.527.409-.685.703-.144.267-.22.566-.222.869-.005.378.111.748.333 1.055.305.379.682.693 1.11.925.696.4 1.413.764 2.146 1.092l1.369.518c1.368.518 2.652 1.235 3.811 2.127.83.646 1.49 1.484 1.924 2.442.374.896.563 1.859.555 2.83.027 1.368-.381 2.709-1.166 3.83a7.4457 7.4457 0 0 1-3.237 2.534c-1.551.627-3.213.929-4.884.891Zm16.383-4.9215 5.254.259c1.458.009 2.902.291 4.255.833.939.38 1.74 1.039 2.294 1.887.474.8.718 1.716.703 2.646-.001 1.261-.424 2.486-1.203 3.478-.881 1.121-2.042 1.988-3.367 2.516-1.641.653-3.396.968-5.162.925-1.731.057-3.456-.239-5.069-.869-1.16-.448-2.172-1.21-2.923-2.202-.572-.759-.895-1.677-.925-2.627.013-.445.127-.882.333-1.276.285-.549.639-1.059 1.055-1.517.586-.659 1.217-1.277 1.887-1.85.916-.786 1.873-1.521 2.868-2.203Zm2.368-1.776c-.928.001-1.853-.104-2.756-.315-.88-.201-1.718-.551-2.479-1.036-.748-.476-1.365-1.131-1.794-1.906-.465-.876-.694-1.858-.666-2.849-.01-1.123.298-2.226.888-3.182.624-.991 1.516-1.786 2.571-2.294 1.277-.601 2.678-.892 4.089-.851.666 0 1.313.031 1.942.093s1.153.13 1.572.204c.172.025.333.043.481.055.148.013.284.019.407.019h5.069c.148 0 .222.087.222.259v3.441c.029.114-.039.229-.152.259a.2154.2154 0 0 1-.107 0c-.247 0-.635-.019-1.165-.056-.531-.037-.994-.08-1.388-.129.164.312.294.641.389.98.119.453.175.92.166 1.387.046 1.176-.285 2.336-.943 3.312-.657.897-1.564 1.579-2.608 1.961-1.196.447-2.463.667-3.738.648Zm-.518 2.257-3.922 2.442c-.472-.484-.843-1.056-1.092-1.684-.235-.607-.342-1.255-.314-1.906.022-.53.122-1.053.296-1.554.167-.484.418-.935.74-1.332l3.663 1.48c-.082.175-.132.363-.148.555-.024.221-.024.445 0 .666-.001.243.07.481.204.685.161.241.354.458.573.648Zm5.957 5.92c.032-.422-.148-.831-.481-1.092a3.327 3.327 0 0 0-1.332-.518c-.623-.117-1.253-.185-1.887-.203l-4.07-.185c-.413.264-.76.618-1.017 1.036-.208.283-.342.614-.389.962.021.42.2.816.5 1.11.427.427.955.739 1.536.906.789.249 1.614.368 2.442.352.912.026 1.823-.086 2.701-.333.573-.153 1.096-.452 1.517-.87.301-.313.473-.729.48-1.165Zm-2.96-14.282c.007-.459-.088-.914-.278-1.332-.183-.392-.48-.721-.851-.944-.445-.25-.951-.372-1.461-.352-.699-.042-1.385.198-1.906.666-.485.519-.732 1.216-.684 1.924-.008.646.223 1.271.647 1.758.499.534 1.213.813 1.942.759a2.632 2.632 0 0 0 1.887-.666c.483-.476.738-1.136.704-1.813Z"/>
  </g>
</svg>
