<svg xmlns="http://www.w3.org/2000/svg" width="56" height="55" fill="none" viewBox="0 0 56 55">
  <defs>
    <clipPath id="a">
      <path fill="#fff" d="M-.00024.5h56v54h-56z"/>
    </clipPath>
  </defs>
  <g clip-path="url(#a)">
    <path fill="#1E3101" d="M46.0859.5H9.91359C4.43833.5-.00024 4.93857-.00024 10.4138v34.1724c0 5.4752 4.43857 9.9138 9.91383 9.9138H46.0859c5.4753 0 9.9139-4.4386 9.9139-9.9138V10.4138C55.9998 4.93857 51.5612.5 46.0859.5Z"/>
    <path fill="#99E83F" d="M45.142 23.2914v-4.0001c0-1.8203-1.0388-3.481-2.6755-4.2775l-12.385-6.02689c-1.314-.63945-2.849-.63945-4.1631 0L13.5335 15.0138c-1.6139.7854-2.6456 2.4111-2.6742 4.2014-.0004.0254-.0013.0507-.0013.0761v5.6096c0 1.2362.8336 2.3169 2.0293 2.6308l24.2991 6.3421c.1991.0494.2248.3219.0384.4075l-8.0431 3.8084c-.7466.3601-1.6168.3601-2.3635 0l-7.0815-3.4159c-.9405-.4536-1.5383-1.4057-1.5383-2.4499v-.4365h-7.3405v3.9743c0 1.8262 1.0455 3.4912 2.6904 4.2846l12.3849 5.974c1.3059.6299 2.8277.6299 4.1335 0l12.3849-5.974c1.5736-.759 2.5979-2.3159 2.6838-4.0483.0039-.0785.0066-.1572.0066-.2363v-5.448c0-1.2362-.8337-2.317-2.0294-2.6309L18.676 21.2674l.0755.0172a.22313.22313 0 0 1-.0664-.0296c-.1308-.0867-.1311-.2969.0253-.3745l8.0993-3.966c.7514-.3656 1.6291-.3656 2.3805 0l7.0815 3.4461c.9359.4554 1.5298 1.405 1.5298 2.4458v.485h7.3405Z"/>
  </g>
</svg>
