<svg xmlns="http://www.w3.org/2000/svg" width="56" height="55" fill="none" viewBox="0 0 56 55">
  <defs>
    <clipPath id="a">
      <path fill="#fff" d="M-.00024.5h56v54h-56z"/>
    </clipPath>
  </defs>
  <g clip-path="url(#a)">
    <path fill="#1E3101" d="M9.91376.5H46.0858c5.475 0 9.914 4.439 9.914 9.914v34.172c0 5.475-4.439 9.914-9.914 9.914H9.91376c-5.475 0-9.914-4.439-9.914-9.914V10.414c0-5.475 4.439-9.914 9.914-9.914Z"/>
    <path fill="#99E83F" d="M13.3288 38.206V14.563c0-.172.0739-.259.2219-.259.395 0 .863-.006 1.406-.019.542-.012 1.1281-.024 1.7581-.037.629-.012 1.2949-.025 1.9979-.037.703-.012 1.399-.018 2.09-.019 1.608-.041 3.21.197 4.736.703 1.157.391 2.2131 1.036 3.0891 1.887.743.738 1.318 1.627 1.684 2.608.346.955.522 1.963.518 2.979.07 1.732-.41 3.441-1.369 4.884-.919 1.288-2.2101 2.263-3.7001 2.793-1.66.598-3.415.893-5.18.87-.543 0-.9249-.006-1.1469-.019-.222-.012-.5551-.018-.9991-.019v7.289c.023.161-.089.31-.25.333-.028.004-.056.004-.083 0h-4.5139c-.173.002-.259-.096-.259-.294Zm5.1059-19.462v7.659c.32.025.6161.037.8881.037h1.221c.896.013 1.788-.112 2.646-.37.733-.218 1.3879-.642 1.8869-1.221.517-.677.7731-1.518.7211-2.368a3.7353 3.7353 0 0 0-.5361-2.035 3.45028 3.45028 0 0 0-1.6089-1.313c-.86-.334-1.7791-.492-2.7011-.463-.592 0-1.116.006-1.573.019-.457.012-.771.031-.944.055Zm26.122 16.095v3.034c0 .272-.099.432-.296.481-.486.152-.98.276-1.48.37-.586.104-1.181.154-1.776.148-.796-.008-1.537-.071-2.287-.368-.697-.276-1.362-.683-1.821-1.288-.475-.627-.779-1.367-.93-2.136-.156-.789-.106-1.574-.106-2.371v-8.304h-2.183c-.198 0-.296-.111-.296-.333v-3.663c0-.197.111-.296.333-.296h2.183c.024-.419.055-.906.093-1.462.037-.555.086-1.11.148-1.665.061-.555.117-1.005.167-1.351.025-.074.062-.143.111-.204.048-.06.112-.105.185-.129l4.403-.555c.059-.025.126-.025.185 0 .049.025.074.099.074.222-.05.568-.087 1.338-.111 2.313-.025.975-.05 1.918-.074 2.831h3.441c.148 0 .222.099.222.296v3.737c.019.122-.063.237-.185.259h-3.515v7.047c0 .884-.09 1.843.407 2.623.258.406.803.564 1.257.588.45.024.914-.003 1.363-.063.122-.016.28-.071.394-.002.063.038.094.118.094.241Z"/>
  </g>
</svg>
