<svg xmlns="http://www.w3.org/2000/svg" width="56" height="55" fill="none" viewBox="0 0 56 55">
  <defs>
    <clipPath id="a">
      <path fill="#fff" d="M-.00024.5h56v54h-56z"/>
    </clipPath>
  </defs>
  <g clip-path="url(#a)">
    <path fill="#1E3101" d="M9.91376.5H46.0858c5.475 0 9.914 4.439 9.914 9.914v34.172c0 5.475-4.439 9.914-9.914 9.914H9.91376c-5.475 0-9.914-4.439-9.914-9.914V10.414c0-5.475 4.439-9.914 9.914-9.914Z"/>
    <path fill="#99E83F" d="M10.5538 38.1326v-23.532c-.014-.148.094-.28.242-.295.006-.001.011-.001.017-.001.37-.024.912-.043 1.628-.055.715-.012 1.553-.025 2.516-.037.962-.012 1.986-.018 3.071-.019 2.54-.09 5.065.43 7.363 1.517 1.847.915 3.375 2.366 4.384 4.163 1.001 1.87 1.504 3.966 1.462 6.086.028 1.605-.229 3.202-.759 4.718-.463 1.297-1.166 2.496-2.072 3.533-.857.972-1.863 1.802-2.979 2.46a13.0875 13.0875 0 0 1-3.552 1.443c-1.222.304-2.477.459-3.737.462h-2.756c-.975 0-1.881-.006-2.72-.019-.839-.013-1.468-.031-1.887-.055-.147.001-.221-.122-.221-.369Zm5.106-19.388v15.318c.271 0 .518.006.74.019.222.013.449.025.685.037.234.013.499.019.795.019 1.119.015 2.232-.161 3.293-.518.95-.323 1.816-.854 2.535-1.554.723-.722 1.279-1.593 1.628-2.553.398-1.103.592-2.269.573-3.441.023-1.105-.166-2.203-.555-3.238-.347-.892-.899-1.69-1.61-2.331-.726-.642-1.585-1.116-2.516-1.387-1.039-.305-2.117-.455-3.2-.444-.494 0-.907.006-1.24.019-.332.011-.708.03-1.128.054Zm30.118 6.1797c-.695-.357-1.436-.618-2.201-.777-.844-.194-1.706-.293-2.572-.296-.468-.013-.935.043-1.387.167-.288.064-.543.228-.722.463-.121.188-.185.406-.185.629.007.216.085.425.222.592.671.818 1.732 1.142 2.694 1.478 1.14.398 2.223.931 3.245 1.575.753.475 1.376 1.13 1.812 1.906.368.734.552 1.547.537 2.368.022 1.084-.288 2.149-.889 3.052-.642.917-1.535 1.63-2.571 2.053-1.322.53-2.739.782-4.162.74-1.05.011-2.098-.089-3.127-.296a8.9669 8.9669 0 0 1-2.238-.74c-.165-.085-.266-.258-.259-.444v-3.996c-.009-.08.026-.158.092-.204.065-.037.146-.029.204.019.846.521 1.77.902 2.738 1.128 1.002.234 2.036.429 3.07.365.805-.05 2.158-.246 2.147-1.308-.043-.511-.37-.822-.795-1.067-.81-.467-1.669-.781-2.535-1.123-.97-.383-1.9-.877-2.757-1.473-.723-.503-1.319-1.168-1.739-1.942-.84-1.549-.692-3.649.24-5.125.581-.92 1.417-1.653 2.405-2.109 1.275-.582 2.669-.861 4.07-.814.954-.008 1.906.06 2.849.204.664.085 1.312.266 1.924.536.102.029.184.105.222.204.025.09.038.184.037.277v3.737c.005.089-.037.173-.111.222-.079.049-.179.049-.258-.001Z"/>
  </g>
</svg>
