<svg xmlns="http://www.w3.org/2000/svg" width="56" height="55" fill="none" viewBox="0 0 56 55">
  <defs>
    <clipPath id="a">
      <path fill="#fff" d="M-.00024.5h56v54h-56z"/>
    </clipPath>
  </defs>
  <g clip-path="url(#a)">
    <path fill="#1E3101" d="M9.91376.5H46.0858c5.475 0 9.914 4.439 9.914 9.914v34.172c0 5.475-4.439 9.914-9.914 9.914H9.91376c-5.475 0-9.914-4.439-9.914-9.914V10.414c0-5.475 4.439-9.914 9.914-9.914Z"/>
    <path fill="#99E83F" d="M17.2327 38.8726c-1.261.012-2.519-.106-3.755-.352-.977-.187-1.927-.491-2.831-.906a.63108.63108 0 0 1-.296-.629v-4.403c-.009-.08.027-.158.093-.204.078-.036.169-.029.24.019 1.023.636 2.132 1.122 3.293 1.443 1.108.314 2.253.476 3.404.481 1.047.086 2.096-.14 3.016-.648.557-.347.899-.953.906-1.609.006-.396-.096-.786-.296-1.128-.267-.401-.622-.736-1.036-.981-.646-.396-1.327-.73-2.035-.999l-1.85-.777c-1.274-.505-2.464-1.197-3.533-2.053-.774-.623-1.379-1.431-1.758-2.35-.325-.863-.488-1.779-.481-2.701-.049-2.675 1.512-5.117 3.959-6.198 1.537-.676 3.206-.998 4.884-.944 1.108-.005 2.214.069 3.312.222.853.098 1.684.335 2.46.703.172.097.273.284.259.481v4.042c0 .113.011.243-.1.311-.079.048-.159.013-.233-.025-.818-.423-1.689-.734-2.59-.925-1.008-.224-2.038-.336-3.071-.333-.61-.011-1.218.051-1.813.185-.421.095-.826.251-1.202.462-.29.165-.527.409-.685.703-.144.267-.22.566-.222.869-.005.378.111.748.333 1.055.305.379.682.693 1.11.925.696.4 1.413.764 2.146 1.092l1.369.518c1.368.518 2.652 1.235 3.811 2.127.83.646 1.49 1.484 1.924 2.442.374.896.563 1.859.555 2.83.027 1.368-.381 2.709-1.166 3.83a7.4457 7.4457 0 0 1-3.237 2.534c-1.551.627-3.212.929-4.884.891Zm19.795-19.1298c1.537-.068 3.063.277 4.421.999 1.086.627 1.957 1.569 2.498 2.701.555 1.193.833 2.496.814 3.811v7.141c0 .469.006.913.019 1.332.012.42.031.851.055 1.295 0 .099-.024.161-.074.185-1.11.42-2.097.753-2.96.999-.824.238-1.665.412-2.516.518-.86.101-1.724.151-2.59.148-1.283.018-2.557-.208-3.756-.666-1.079-.411-2.021-1.116-2.719-2.035-.722-1.012-1.086-2.236-1.036-3.478-.043-1.204.344-2.385 1.091-3.33.788-.93 1.819-1.621 2.979-1.998 1.395-.466 2.858-.691 4.329-.666h1.351c.278-.007.556.006.833.037v-.222c-.014-.221-.058-.438-.13-.647-.098-.302-.27-.576-.5-.795-.302-.279-.662-.488-1.054-.611-.593-.18-1.212-.261-1.832-.24-.894-.007-1.787.08-2.664.259-.774.16-1.53.395-2.257.703-.072.025-.15.025-.222 0-.076-.027-.123-.105-.111-.185v-3.738c-.012-.178.093-.343.259-.407.881-.39 1.807-.67 2.756-.833.995-.182 2.004-.275 3.016-.277Zm2.738 14.8v-3.922c-.296-.049-.58-.086-.852-.111-.271-.024-.604-.037-.999-.037-.981-.082-1.964.124-2.83.592-.539.363-.853.978-.833 1.628-.004.381.105.755.314 1.073.26.361.62.637 1.036.796.583.228 1.206.335 1.832.314.421.002.842-.029 1.258-.093.364-.054.722-.134 1.074-.24Z"/>
  </g>
</svg>
