<svg xmlns="http://www.w3.org/2000/svg" width="57" height="55" fill="none" viewBox="0 0 57 55">
  <defs>
    <clipPath id="a">
      <path fill="#fff" d="M.3844.5h56v54h-56z"/>
    </clipPath>
  </defs>
  <g clip-path="url(#a)">
    <path fill="#000B1D" d="M46.4706.5H10.2982C4.82297.5.3844 4.93857.3844 10.4138v34.1724c0 5.4752 4.43857 9.9138 9.9138 9.9138h36.1724c5.4752 0 9.9138-4.4386 9.9138-9.9138V10.4138C56.3844 4.93857 51.9458.5 46.4706.5Z"/>
    <path fill="#fff" d="M45.2482 19.1342c0-.3704-.1472-.7256-.4091-.9876a1.39657 1.39657 0 0 0-.9875-.4091h-3.5295v-3.6993c0-.0608-.012-.1209-.0352-.177a.46185.46185 0 0 0-.1002-.15.46292.46292 0 0 0-.15-.1002.46306.46306 0 0 0-.177-.0352h-7.8252c-.0608 0-.1209.012-.177.0352a.46292.46292 0 0 0-.15.1002.46185.46185 0 0 0-.1002.15.46306.46306 0 0 0-.0352.177v3.6993h-6.25v-3.6993a.46247.46247 0 0 0-.4625-.4624h-7.85a.46272.46272 0 0 0-.327.1354.46238.46238 0 0 0-.1354.327v3.6993h-3.7251c-.3704 0-.7257.1472-.9876.4091a1.3968 1.3968 0 0 0-.4091.9876l.0332 17.9272c0 .1835.0361.3651.1063.5345.0701.1695.173.3235.3027.4532.1297.1297.2837.2326.4531.3028.1695.0701.3511.1063.5345.1063h31.0294a1.39635 1.39635 0 0 0 .9876-.4091 1.39677 1.39677 0 0 0 .4091-.9877l-.0331-17.9272ZM21.9208 33.5277l-5.6026-4.6561a.86743.86743 0 0 1-.2013-.2864.868.868 0 0 1-.0719-.3425.8571.8571 0 0 1 .0656-.3312.85384.85384 0 0 1 .1886-.2801l5.6216-4.6503 1.0479 2.3169-3.6131 2.9594 3.6136 2.9598-1.0484 2.3105Zm4.8527 1.0469h-2.7164l.5889-1.2601 5.405-11.7155h2.6915l-5.969 12.9756Zm13.5928-5.6982-.0195.0181-5.6021 4.6322-1.0479-2.3168 3.613-2.9594-3.613-2.9598 1.0469-2.31 5.6036 4.6556a.86952.86952 0 0 1 .2013.2863c.047.1081.0714.2247.0719.3426a.85782.85782 0 0 1-.0656.3312.85757.85757 0 0 1-.1886.28Z"/>
  </g>
</svg>
