<svg xmlns="http://www.w3.org/2000/svg" width="56" height="55" fill="none" viewBox="0 0 56 55">
  <path fill="#fff" d="M46.0831.5H9.91642C4.4396.5-.00024 4.89105-.00024 10.3077v34.3846c0 5.4166 4.43984 9.8077 9.91666 9.8077H46.0831c5.4768 0 9.9167-4.3911 9.9167-9.8077V10.3077C55.9998 4.89105 51.5599.5 46.0831.5Z"/>
  <path fill="#EB1000" d="M43.9465 26.9818c-1.6378-5.7081-7.4863-13.8398-7.4863-13.8398s-3.627-.4272-8.4461-.4272c-4.8192 0-8.4748.4272-8.4748.4272s-5.8485 8.1317-7.4862 13.8398c6.5795 11.3071 15.6537 17.4026 15.9467 17.4815.2861-.0782 8.8644-6.0727 15.9467-17.4815Z"/>
  <path fill="#fff" d="m27.4984 30.6499-2.1773-1.6446c-.0534-.0433-.0225-.1289.0465-.1289h5.2726c.069 0 .0999.0856.0465.1289l-2.1772 1.6446.5766 1.6677 4.2107.7305c.0369.0065.0729-.0157.0832-.0514l3.3867-11.6548-4.9972 3.3624.2022 3.7138c.0047.0836-.1137.1075-.1424.0287l-2.0589-5.7894 7.0282-2.3826-3.6107-1.9766-5.184 1.749-5.2269-1.749-3.5761 1.9757 7.0365 2.3835-2.0588 5.7894c-.0288.0788-.1472.0549-.1425-.0287l.2022-3.7138-4.9971-3.3624 3.3916 11.654c.0104.0357.0464.0579.0833.0515l4.2058-.7304.5765-1.6671Zm-2.8621 3.053.8956 2.3262h4.9357l.8956-2.3262-3.3638-.5186-3.3631.5186Z"/>
  <path fill="#EB1000" d="M30.2099 44.6932c-.2386 0-.4325-.1916-.4325-.4277 0-.2381.1939-.4277.4325-.4277.2407 0 .4325.1896.4325.4277 0 .2361-.1918.4277-.4325.4277Zm0-.7969c-.2081 0-.3753.1634-.3753.3692 0 .2038.1672.3712.3753.3712.2061 0 .3733-.1674.3733-.3712 0-.2058-.1672-.3692-.3733-.3692Zm.1183.6154-.1285-.1937H30.11v.1937h-.0653v-.4903h.202c.0836 0 .157.0585.157.1493 0 .1089-.0979.1453-.1265.1453l.1327.1957h-.0817Zm-.0815-.4338H30.11v.1816h.1367c.0428 0 .0897-.0384.0897-.0888 0-.0545-.0469-.0928-.0897-.0928Z"/>
</svg>
