<svg xmlns="http://www.w3.org/2000/svg" width="56" height="55" fill="none" viewBox="0 0 56 55">
  <defs>
    <clipPath id="a">
      <path fill="#fff" d="M0 .5h56v54H0z"/>
    </clipPath>
  </defs>
  <g clip-path="url(#a)">
    <path fill="#470137" d="M46.0862.5H9.91383C4.43857.5 0 4.93857 0 10.4138v34.1724C0 50.0614 4.43857 54.5 9.91383 54.5H46.0862C51.5614 54.5 56 50.0614 56 44.5862V10.4138C56 4.93857 51.5614.5 46.0862.5Z"/>
    <path fill="#FF61F6" d="M29.5008 14.9195 22.619 25.9962l7.3633 11.9915a.3835.3835 0 0 1 .0371.2776c-.0254.0867-.1114.1424-.2593.1665h-5.2539a.82965.82965 0 0 1-.4402-.0764.82959.82959 0 0 1-.3367-.2937c-.4941-.9619-.9873-1.847-1.4804-2.797-.4932-.9492-1.0173-1.9174-1.5723-2.9045-.5547-.9861-1.1035-1.9851-1.6465-2.9969h-.0371c-.4937.9869-1.0054 1.9735-1.5352 2.96-.5312.9869-1.0555 1.9673-1.5727 2.9414-.5181.9749-1.0484 1.8722-1.5913 2.8341a.52377.52377 0 0 1-.2048.2505.52298.52298 0 0 1-.3128.0825H8.70686a.15024.15024 0 0 1-.06175-.0065.15186.15186 0 0 1-.05386-.0309.1507.1507 0 0 1-.05039-.1106.36773.36773 0 0 1 .05518-.259l7.14116-11.6585-6.95615-11.4839c-.07422-.0982-.08594-.1785-.03711-.2405a.26901.26901 0 0 1 .1002-.0724.26954.26954 0 0 1 .12196-.0202h5.2173a.77289.77289 0 0 1 .333.0557c.0883.0502.164.1198.2217.2034.4443.9868.9375 1.6917 1.48 2.6778.5425.987 1.0913 1.9614 1.6465 2.9231.5551.9619 1.067 1.9363 1.5356 2.9231h.0371c.4932-1.0113.9925-1.9979 1.498-2.96.5059-.9622 1.0239-1.9303 1.5542-2.9046.5303-.9741 1.0415-1.6604 1.5357-2.6223a.56233.56233 0 0 1 .148-.2405.53526.53526 0 0 1 .2959-.0557h4.8471a.21186.21186 0 0 1 .1396.0136.21152.21152 0 0 1 .1006.0977.212.212 0 0 1 .0176.1392.21166.21166 0 0 1-.0732.1196v.0001ZM39.745 38.8724a11.46196 11.46196 0 0 1-4.9395-1.0362 7.85572 7.85572 0 0 1-3.46-3.1264 10.00204 10.00204 0 0 1-1.2578-5.2356 9.66223 9.66223 0 0 1 1.2578-4.847 9.2388 9.2388 0 0 1 3.6631-3.552 11.8267 11.8267 0 0 1 5.8091-1.332c.1235 0 .2838.0062.481.0186.1972.0127.6173.0313.8888.0554v-6.5461a.59585.59585 0 0 1 .1136-.4384.59564.59564 0 0 1 .3891-.232h3.5811a.67075.67075 0 0 1 .4724.1965.6705.6705 0 0 1 .1965.4724v21.0886c0 .4197.0184.8761.0552 1.3691.0371.4937.068.9376.0928 1.3318a.38265.38265 0 0 1-.0538.2193.38251.38251 0 0 1-.1679.1508 16.97183 16.97183 0 0 1-3.5698 1.1102 20.07489 20.07489 0 0 1-3.5517.333Zm2.3565-4.5882v-10.101a5.14603 5.14603 0 0 0-.71-.1109 7.36683 7.36683 0 0 0-.7588-.0371 5.71287 5.71287 0 0 0-2.5898.592 4.76182 4.76182 0 0 0-2.0626 1.8967 4.76147 4.76147 0 0 0-.6386 2.7283 6.52656 6.52656 0 0 0 .3887 2.3679 4.497 4.497 0 0 0 1.0361 1.6282c.4393.4244.9712.741 1.5537.9248a6.0856 6.0856 0 0 0 1.9053.2961c.3457 0 .6665-.0123.9624-.0371.3084-.021.6143-.0705.9136-.1479Z"/>
  </g>
</svg>
